<mxfile host="Electron" modified="2024-07-31T15:51:53.873Z" agent="Mozilla/5.0 (Windows NT 10.0; Win64; x64) AppleWebKit/537.36 (KHTML, like Gecko) draw.io/22.0.3 Chrome/114.0.5735.289 Electron/25.8.4 Safari/537.36" etag="TQZm3-rRkYftbe2mtHd9" version="22.0.3" type="device">
  <diagram name="Page-1" id="0ai45WilkLOMXXE7x8xO">
    <mxGraphModel dx="748" dy="439" grid="1" gridSize="10" guides="1" tooltips="1" connect="1" arrows="1" fold="1" page="1" pageScale="1" pageWidth="700" pageHeight="200" math="0" shadow="0">
      <root>
        <mxCell id="0" />
        <mxCell id="1" parent="0" />
        <mxCell id="5a-CCkB_ibbZyQVuqNtb-2" value="" style="shape=image;imageAspect=0;aspect=fixed;verticalLabelPosition=bottom;verticalAlign=top;image=data:image/svg+xml,PHN2ZyB4bWxucz0iaHR0cDovL3d3dy53My5vcmcvMjAwMC9zdmciIHZpZXdCb3g9IjAgMCAxMjIuMjIgMTU1LjE2IiBkYXRhLW5hbWU9IkxheWVyIDIiIGlkPSJMYXllcl8yIj4mI3hhOyAgPGRlZnM+JiN4YTsgICAgPHN0eWxlPiYjeGE7ICAgICAgLmNscy0xIHsmI3hhOyAgICAgICAgc3Ryb2tlLXdpZHRoOiAwcHg7JiN4YTsgICAgICB9JiN4YTsgICAgPC9zdHlsZT4mI3hhOyAgPC9kZWZzPiYjeGE7ICA8ZyBkYXRhLW5hbWU9IkxheWVyIDEiIGlkPSJMYXllcl8xLTIiPiYjeGE7ICAgIDxnPiYjeGE7ICAgICAgPHBhdGggZD0ibTQ4LjQyLDE1NC40NmMxLjk5LjExLDMuOTguMjIsNS45Ny4zM3YuMzdoLTE1LjI5YzAtLjA5LS4wMi0uMTctLjAzLS4yNiwxLjYtLjEsMy4yLS4yLDQuODgtLjNxLS43MS0xLjIzLTcuNTItMi4xMmMxLjg5LS4xLDMuMzUtLjE3LDUuMDMtLjI2LS45My0xLjYyLTItMi41NC0zLjg0LTIuNDItMS41Mi4xLTMuMDUuMDItNC41OS0uMzZoNS4xYy0yLjEtNC44LTYuMzEtMy40LTkuODQtMy45N2g1Ljc0Yy0xLjgtMy4zNS00LjU4LTQuMTktNy45LTQuMDEsMS4wNC0uMTIsMi4wOS0uMjMsMy40MS0uMzgtMS4wOC0xLjUxLTEuOTktMi40Ny0zLjg0LTIuMy0yLjIxLjE5LTQuNDUuMDUtNi42OS0uMDYsMi4zNy0uMTgsNC43My0uMzUsNy4xLS41My4wNy0uMjcuMTMtLjU0LjItLjgxLTEuNS0uNTktMy0xLjE4LTQuMTUtMS42My4wNiwwLC42My0uMDYsMS4yNC0uMTFxLTEuMDYtMS43My02LjEzLTIuMzRjLjU5LDAsMS4xOCwwLDEuNzgsMCwuNTItLjAyLDEuMDQtLjA3LDIuMDktLjE0LTEuODItMS41Mi0zLjYyLTIuNTQtNC43MS00LjA2LTEuNTMtMi4xNC0zLjg0LS42Ni01LjUyLTEuNzcsMS4wNi0uMDUsMi4wOS0uMSwzLjExLS4xNS4wNS0uMTUuMTEtLjMuMTYtLjQ1LTEuMzktLjk2LTIuNzgtMS45My00LjAxLTIuNzgtLjE0LjA3LjE0LS4wNi43OS0uMzctLjk5LS40NS0xLjcxLS43OC0yLjMxLTEuMDUuMDMtLjIxLjI0LS43My4wOS0uODctLjk4LS45My0xLjktMi4wOS0zLjA4LTIuNTktMS44My0uNzctMS44OS0yLjAxLTEuMjktMy4xOSwxLjI5LTEuMTYsMi41MS0yLjQsMy44OS0zLjQ0LjcyLS41NCwxLjY5LS44NCwyLjU5LTEuMDMsMS4xMy0uMjQsMS41OC0uNzQsMS41NS0xLjkyLS4yOS0xMi42OS0uNTctMjUuMzctLjc4LTM4LjA2LS4wNS0yLjc4LS44My00Ljg4LTMuNTYtNi4xMS0xLjI2LS41Ny0yLjM4LTEuNTQtMy40NC0yLjQ3LTEuMDQtLjktLjc1LTIuMTYuNTgtMi42LDEuNjktLjU2LDMuMzMtMSwzLjc5LTMuMTYuMDktLjQyLDEuMzUtLjY5LDIuMTEtLjg1LDcuNjQtMS42LDE1LjMtMy4xNiwyMy4yMi00Ljc5LS4xMi0xLjMyLS4zMy0yLjY4LS4zNi00LjA2LS4wOS0zLjUxLS4wMy03LjAzLS4xOS0xMC41NC0uMTUtMy4zNS0yLjUtNS4yOS01LjczLTQuOTgtNS42OS41NS0xMS4zOCwxLjE4LTE3LjA4LDEuNi0yLjA2LjE1LTQuMi0uMDEtNi4yMi0uNDMtMy4xMS0uNjQtMy40Ni0yLjUtMi44MS01Ljc2LjA5LS40NS4zOC0uODYuNTgtMS4yOSwxLjE5LTIuNDQsMS40LTQuODUuMDktNy4zNkMuNzQsMTUuMDUtLjU2LDExLjM2LjI0LDcuMTguODUsMy45OCwzLjQ3Ljc1LDYuMTkuMmMzLjQ1LS42OSw2LjQ0LjQsNy45NiwyLjk2LDIuMjMsMy43OCwyLjY0LDcuNjguOTIsMTEuODItLjg0LDIuMDItMS40OCw0LjE2LTEuOTQsNi4zLS40OSwyLjMxLjczLDQuMTksMi4xMSw1LjkuMjguMzUuOTIuNjQsMS4zNS41OSw1LjctLjU4LDExLjQyLTEuMDEsMTcuMDYtMS45NiwyLjU5LS40NCw0LjkyLTIuMiw3LjUtMi44NywyLjc4LS43Miw1LjctLjg2LDguNTYtMS4yNywxLjM5LS4yLDIuODMtLjMsNC4xNS0uNzMsMS42LS41MiwyLjgxLTEuMzgsMy4zMi0zLjM2LjM1LTEuMzYsMS42Ni0yLjkyLDIuOTMtMy40OCwyLjI4LTEuMDEsNCwuNDYsNC40NywzLjY0LjE5LDEuMzIuNDMsMi4wOSwxLjg2LDIuMzQuNDIuMDcuNzEuODksMS4yLDEuNTUsNC42OSwxLjIsOS43NywyLjI5LDE0LjcsMy44NCwyLjAyLjY0LDMuODcsMi4xLDUuNTMsMy41LDEuNDMsMS4yLDIuMDIsMy4yOCwxLjAzLDQuODEtMS43MywyLjY2LTEuMzQsNS41OS0xLjg1LDguNC0uNTksMy4yNS0uOTQsNi41NC0xLjU1LDkuNzgtLjIzLDEuMjQuMDYsMS43NywxLjE2LDIuMzMsNy45OSw0LjA3LDE1Ljk2LDguMTksMjMuODgsMTIuMzkuOTguNTIsMS42NSwxLjYyLDIuNSwyLjQxLjkyLjg2LDEuOTQsMS42MywyLjc5LDIuNTUuNTIuNTcsMS4xMywxLjM5LDEuMDgsMi4wNS0uMDQuNS0uOTksMS4wOC0xLjY1LDEuMzUtLjg2LjM1LTEuODQuMzgtMi43NS42MS0zLjE5LjgzLTMuMjYuODMtMy41NSw0LjE3LTEsMTEuNy0xLjk1LDIzLjQxLTIuOTIsMzUuMTEtLjEzLDEuNTUtLjMyLDMuMDktLjQsNC42NC0uMTMsMi42Mi0uMDUsMi42OCwyLjg3LDIuOC0uNDMuMTgtLjY1LjI4LS44OC4zNy0uMDIuMTctLjA0LjM0LS4wNy41MSwxLjU0LjE0LDMuMDguMjcsNC45LjQzLTEuMDMuMTgtMS44MS4zMS0yLjcuNDcuNiwxLjQ2LDEuNTUsMS44MiwyLjk5LDEuNzMsMi4yMS0uMTQsNC40My0uMDQsNi42NS0uMDQsMCwuMTYsMCwuMzMuMDIuNDloLTcuOThjMS4xMiwzLjA0LDMuNDcsMi4yOSw1Ljk1LDIuNTgtMS4xMy4xNy0xLjc1LjI2LTIuNS4zNy4wNS42My4xLDEuMjEuMTYsMS45Mmg3LjE3Yy01LjEzLjc0LTEwLjQ2LjI5LTE1LjYzLDMuMTloNy44NWMtNS41Ni42Ni0xMS4zNC0uMjktMTYuNzIsMy4xaDE4LjIxdi4xNWMtNi42Mi4xNi0xMy4yNC4xOC0xOS44NS41NC0yLjEuMTEtNC4xNSwxLjExLTYuMjIsMS43LjA1LjIxLjA5LjQyLjE0LjYyaDQuNTd2LjE4Yy0yLjU5LjE1LTUuMjMuMDQtNy43NS41My0yLjUzLjQ5LTQuOTUsMS41OS03LjM3LDIuODdoNC42NWMtNC41My4zOC05LjA5LjMxLTEzLjYxLDIuNzRoMjAuMDdjLTguMi40Ni0xNy4yNy45Ni0yNi4zNCwxLjQ3LDAsLjI0LDAsLjQ4LDAsLjcxLDEuMjkuMDcsMi41OS4xNCwzLjg4LjIxLTIuNDEuMTQtNC44Mi4yOS03LjIzLjQzLDAsLjE5LDAsLjM4LjAyLjU3aDExLjUzdi44NGMtNC4yNCwwLTguNTEtLjM0LTEyLjcxLjEtMy44Ny40LTcuNjQsMS42NS0xMS40NiwyLjUyLjA5LjI5LjEzLjU0LjE2Ljc5Wm0tMTkuMjYtNzYuMDNjLS44Mi0uNzktMS41OC0xLjY2LTIuNDgtMi4zNS0xLjYyLTEuMjItMy4zMi0yLjMyLTQuOTktMy40Ny0uMTcuMjUtLjMzLjUxLS41Ljc2LDIuNTgsMS43NSw1LjE3LDMuNSw3Ljc1LDUuMjQsNC4wNywyLjcyLDguMTQsNS40NSwxMi4yMSw4LjE3LDEuNzUsMS4zMywzLjUsMi42Nyw1LjI2LDQsLjEyLS4xNy4yNC0uMzQuMzctLjUxLTEuMy0yLjA3LTMuNDItMy4wOS01LjU4LTQuMDQtLjY5LS40OC0xLjM3LS45OC0yLjA4LTEuNDQtMy4zMi0yLjEyLTYuNjQtNC4yNC05Ljk2LTYuMzZabTEuNi01MC4xNmMuNTcuMTEsMS4xNi4zNiwxLjcxLjI5LDMuMjctLjQxLDYuNTQtLjc4LDkuNzgtMS4zNywzLjc0LS42OCw3LjQ4LTEuNDgsMTEuMTctMi40MSwzLjQyLS44Nyw2Ljc4LTEuOTgsMTAuMTctMi45OC0uNDgtLjQxLS45LS40NS0xLjI0LS4zLS44OS4zNy0xLjU1LjUyLTIuNTktLjA3LTEuMDEtLjU4LTIuNjUtLjg1LTMuNzEtLjQ0LTQuOCwxLjg1LTkuNTUsMy43Ni0xNC43Miw0LjQyLTMuMzQuNDItNi42NiwxLjA2LTkuOTgsMS42NS0uNTQuMS0xLjAyLjQ5LTEuNTMuNzUtMS4yOC4wMy0yLjU2LDAtMy44My4xLTMuMTguMjItNi4zNy40NC05LjU0Ljc4LS41NC4wNi0xLjAzLjcxLTEuNTQsMS4wOC4wOS4yLjE4LjQuMjcuNjEsNC44LS40Niw5LjYxLS45MSwxNC40MS0xLjQxLjQxLS4wNS43OC0uNDYsMS4xNy0uN1ptMTUuOCwxMjMuMDFjLS4zNC45OC4wMiwxLjI2Ljk2Ljk1LDEuMzQtLjQ0LDIuNjktLjg2LDQuMDItMS4zMiwxMy4zLTQuNjEsMjYuNTktOS4yOCwzOS45MS0xMy44Myw3LjIxLTIuNDcsMTQuNDgtNC43NiwyMS43Mi03LjEyLTEuMi0xLjQ0LTIuMjItMi42Ni0zLjI5LTMuOTUtNS43MiwxLjg2LTExLjQ5LDMuNy0xNy4yMyw1LjYzLS41MS4xNy0xLjAyLjc3LTEuMjQsMS4zLS45MSwyLjE1LTQuNDcsMy44OS02LjA4LDIuNDQtLjk2LS44Ni0xLjQyLS44Ny0yLjMzLS41Ni0xMC4zOSwzLjU1LTIwLjc3LDcuMTUtMzEuMTksMTAuNi0yLjk4Ljk4LTUuMzksMi4yLTUuMjUsNS44NmgwWm01NS42OC00Ny43Yy4xNS4yOS4zOC44NC40NC44Mi42Ny0uMTksMS4zMS0uNDgsMS45Ni0uNzQtLjI5LS4yNS0uNTgtLjQ5LS44Ny0uNzQuMTkuNTkuMzcsMS4xOC41NiwxLjc3LjE5LS4wNC4zNy0uMDguNTYtLjEyLDAtLjkyLS4wMy0xLjgzLDAtMi43NS4wNi0xLjMtLjY5LS45OC0xLjQyLS43NS42NC0uNDcsMS4zNS0uODcsMS45MS0xLjQyLjM1LS4zNC44LTEuMDMuNjctMS4zNS0uNjgtMS42NC0uNzQtMS42Mi0uNTItMy4xMS4wNS43NC4xLDEuNDguMTUsMi4yMi4yMSwwLC40MSwwLC42MiwwLC41Ni01LjM0LDEuMTItMTAuNjgsMS42Ny0xNi4wMi0uMjMtLjA0LS40NS0uMDktLjY4LS4xMy0uMjIsMS4xLS40NCwyLjItLjY1LDMuMy0uMDctLjAxLS4xNC0uMDMtLjIyLS4wNC4wNy0uOTEuMTQtMS44MS4yMi0yLjkxLTIuNC40My00LjU0LjgyLTYuMTgsMS4xMS4xMi0uOTQuMjUtMS45My4zMy0yLjUxLTEuMy0uMTUtMi4xOS0uMjUtMy4zMS0uMzgtLjE4LDEuMjMtLjM2LDIuNDItLjU0LDMuNjItLjA2LDAtLjExLS4wMS0uMTctLjAxdi0zLjI5Yy0xLjE4LjItMi4zNy4xMS0zLjE4LjYzLS42OC40NC0uOSwxLjU4LTEuMiwyLjE4LS4wNS0uMzctLjE2LTEuMDYtLjI1LTEuNjgtMi4xMi0uMi0yLjk4Ljc5LTMsMi42Ny0uMDUtLjY1LS4xLTEuMzEtLjItMi41NS0xLjE2Ljg3LTIuMDEsMS41LTIuNzQsMi4wNSwwLC4wMS0uMTMtLjQzLS4yNi0uODctLjIyLS4wMS0uNDQtLjAyLS42Ni0uMDItLjE3LDEuMzUtLjM0LDIuNy0uNTUsNC4zMy0uMTctMS40Ni0uMy0yLjYyLS40NS0zLjg2LS42Ny4xNy0xLjMxLjM0LTEuOTguNTEtLjExLDEuMy0uMjIsMi41NS0uMzgsNC4yOC0uMjYtMS4yNi0uNDItMi4wMy0uNjctMy4yMy0xLjE3LjcxLTIuMTQsMS4zLTMuMTEsMS44OC4wMy4xMS0uMDgtLjI5LS4yLS43My0uODYuMjUtMS41OS40Ni0yLjMuNjd2NS4yYy0uMS4wMS0uMjEuMDItLjMxLjAzLS4yMi0xLjI3LS40NC0yLjU0LS42Ny0zLjg0LS43My4yMS0xLjM0LjM4LTIuMDMuNTd2LTIuNTNjLS42OS4xNy0xLjQ2LjM1LTIuMTguNTMtLjE2LDEuMDgtLjI5LDIuMDQtLjQzLDMtLjA5LS4wMS0uMTctLjAxLS4yNi0uMDItLjEtLjgyLS4yLTEuNjQtLjM3LTMuMTMtLjc3LDEuMDktMS4yNCwxLjc2LTEuNTcsMi4yMi0uMzEtLjMyLS42NS0uNjctLjk5LTEuMDItLjE5LjQzLS41NC44NS0uNTUsMS4yOC0uMDYsMi4yOS0uMDMsNC41Ny0uMDMsNi44NmgtLjE4Yy0uMTUtMi41My0uMy01LjA3LS40NC03LjYtMS42NC0uMjctMi42OSwxLjI2LTQuMTYuNzktLjA5LS4wMy0uNjQuODUtLjY4LDEuMzMtLjE2LDIuMDUtLjIyLDQuMTItLjMxLDYuMTgtLjEsMC0uMiwwLS4zLDB2LTcuMDNjLTIuMi0uMTctMS40OSwxLjY2LTIuMDUsMi40Ny0uMjYtLjIyLS41Ni0uNDYtMS4xNi0uOTd2Ni4zcy0uMDgsMC0uMTIsMGMtLjIzLTEuODctLjQ2LTMuNzQtLjY5LTUuNi0uMi0uMDItLjM5LS4wNS0uNTktLjA3LS4yNC41Ni0uNDksMS4xMi0uNzUsMS43Mi0uNjgtMi40OS0yLjAxLS4yMy0zLjA2LS43LS4wOCwxLjMxLS4xNCwyLjM5LS4yMywzLjg2LS4zLTEuMzYtLjUxLTIuMzItLjcyLTMuMjctLjA4LjAxLS4xNi4wMi0uMjQuMDMtLjA4LDEuMDItLjE1LDIuMDQtLjIzLDMuMDYtLjA1LDAtLjEsMC0uMTUsMC0uMTUtMS4yOS0uMjktMi41OC0uNDQtMy44Ny0uMi4wMi0uNDEuMDUtLjYxLjA3LDAsMi4wMS4xMSw0LjAyLS4wMiw2LjAyLS41OSw5LjUzLjY5LDE5LjA4LS41LDI4LjYxLS4zOCwzLjA2LS4wOSw2LjItLjExLDkuMzEsMCwxLjkyLDAsMy44NSwwLDUuNzcuMTEsMCwuMjEsMCwuMzIsMCwuMDUtLjU4LjExLTEuMTYuMTYtMS43My4wNCwwLC4wOSwwLC4xMy4wMi4wNi41OC4xMywxLjE2LjE5LDEuNzVoLjQzYy4yNS01LjU5LjUxLTExLjE4Ljc2LTE2Ljc3LS4xLDAtLjItLjAzLS4yOS0uMDQtLjEuNDEtLjIuODItLjMsMS4yMy0uMDUtLjAyLS4xMS0uMDQtLjE2LS4wNnYtMTQuNzZoLjQxdjkuMjVjLjEsMCwuMTksMCwuMjksMCwuMDUtLjUyLjExLTEuMDQuMS0uOTgsMS43MS0uNjcsMy4wOC0xLjIyLDQuNDktMS43Ny4wMiwwLC40NS40Ni44NS40NC4zMy0uMDIuOC0uNTYuOTEtLjk1LjIzLS44Mi4yNi0xLjY5LjQtMi43Ny4xLjk2LjE4LDEuNjcuMjUsMi4zNywxLjg3LS4wOCwzLjIyLS41NSwyLjg5LTMuMTEuMzYsMS4wMy41NiwxLjYxLjc2LDIuMTloLjU3Yy4yMy0xLjQ0LjQ1LTIuODguNjgtNC4zMi4wNCwwLC4wOSwwLC4xMy4wMi4wNywxLjI2LjEzLDIuNTEuMiwzLjc3aC41MmMuMTQtLjU1LjI4LTEuMTEuMzMtMS4zMS40Ni4zNywxLjExLDEuMTcsMS40MSwxLjA1LjU0LS4yMSwxLjE1LS45MSwxLjI1LTEuNDkuMjUtMS41LjIzLTMuMDQuMzEtNC40Ny4xOSwxLjguMzksMy42OS42MSw1Ljc4LDEuOTEtMS4xMyw0LjM4LS40LDYtMi44NS0uNjkuMjItLjk1LjMtMS4yMS4zOWgwYzEuMTYtLjU3LDIuMzItMS4xMywzLjUyLTEuNzEuMDQuNzguMDYsMS4yNC4wNywxLjY0LDIuNDYuMSwyLjEzLTEuOTQsMi43OC0zLjI1LjExLjcxLjIxLDEuMzIuMzIsMi4wNiwyLjk0LS43OCwxLjM2LTMuMzMsMi4zNy01LjI2djQuMDNjMi4wMi4zMywyLjQ2LS44NywyLjctMi4zOCwwLDEuNDkuNjUsMi4wMiwyLjAxLDEuOTMsMS4zNC0uMDgsMS4xOC0uOTgsMS4yNi0xLjg2LjItMi4xLjQ4LTQuMTkuNzgtNi43OSwwLDEuOTEuMDUsMy4zMy0uMDIsNC43My0uMDYsMS4xOS4zNiwxLjYzLDEuNTEsMS4yOC0uODUuNDQtMi4xNy42Mi0uOTYsMi40Mi43OC0uNiwxLjU2LTEuMTksMi4zNC0xLjc4LS40OC0uMi0uOTYtLjQtMS40NC0uNjEsMS43Ny0uMzcsMy4xOC0xLjc1LDUuMi0xLjY5LjU0LjAyLDEuMTQtMS42NCwxLjU0LTIuMjcuMDUuNjEuMTQsMS42OS4yMSwyLjY2LDIuNzksMS4yNiwzLjMyLS41MiwzLjY1LTIuNjguMS42Ny4xNywxLjE4LjMzLDIuMjguOTYtLjg1LDEuNTYtMS40MSwyLjE2LTEuOThabS03NC45Mi0xNC42M2MtLjExLS4wMi0uMjMtLjA0LS4zNC0uMDcsMC0xLjI4LjA2LTIuNTYtLjAxLTMuODQtLjI1LTQuMjgtLjI3LTQuMjgtMi44My02LjUxLS4wNi45NS0uMTEsMS44LS4xNiwyLjY2LS4xNS0uNTUtLjEyLTEuMDktLjE1LTEuNjMtLjEtMi4wMS0uNjQtMi40OS0xLjUtMS40NS0uMjQtMS4xOS0uNDktMi40LS43NC0zLjYyLS4xNS4wMy0uMjkuMDYtLjQ0LjA4djEwaC0uMDVjLS4yNy0zLjY2LS41My03LjMzLS44LTEwLjk5LS4xNy4wMS0uMzQuMDItLjUxLjAzLS4wNiwxLjAxLS4xMSwyLjAxLS4yLDMuNTktLjMxLTEuODgtLjUzLTMuMTYtLjc1LTQuNDUtLjE1LDAtLjMuMDEtLjQ2LjAxLS4xNSwxLjMzLS4zLDIuNjUtLjQ2LDQuMDQtLjItMS41OS0uMzgtMy4wOS0uNTYtNC41OS0uMjIuMDEtLjQzLjAzLS42NS4wNC0uMTQuNTEtLjI4LDEuMDItLjQ0LDEuNTYtLjIxLS42MS0uNC0xLjE1LS43MS0yLjA0LS4zOS43Ny0uNiwxLjE5LS44NywxLjcxLS4xOC0uODctLjMyLTEuNTItLjQ2LTIuMTctLjA5LjAzLS4xNy4wNi0uMjYuMDh2MTEuN2gtLjE2Yy0uMTgtMi41LS4zNy01LS41NS03LjUtLjEsNS44OS0uMTksMTEuNzYtLjA3LDE3LjYxLjEyLDUuNTktLjg3LDExLjI3LDEuMjYsMTYuNzZ2LTkuMDZjLjM0LDIuNzcuNTUsNS41Ni4yNyw4LjMtLjI0LDIuMzUsMS4xNSwzLjY4LDIuNTcsNS44MnYtNC4zM2guMjJjLjE2LDEuOTUuMzMsMy45MS40OSw1Ljg2LjIzLS4wMi40Ny0uMDQuNy0uMDV2LTIuMzNjMS43NSwyLjQ0LDMuNDcsNC44NCw1LjMyLDcuNDEuMDgtLjc4LjE0LTEuMzguMjEtMi4xMy4zMSwxLjMxLjU4LDIuNDMuODUsMy41Ni4yLS4wNS40MS0uMTEuNjEtLjE2LjA3LTEuNjQuMTUtMy4yNy4yMi00LjkxLjE1LDIuODUuMDIsNS44LDMuMTUsNy40My4xNy0uNDIuMzEtLjc4LjMyLS44LjQyLDEuMDQuODksMi4yNCwxLjM3LDMuNDMuMjItLjA3LjQ0LS4xNS42Ny0uMjJ2LTIuMDdjLjUuNzUuODcsMS4zMSwxLjU4LDIuMzd2LTguNzNjMS4xNSwzLjQ0LS4zNyw3LjI1LDEuNTIsMTAuNTMuMTktLjAyLjM4LS4wNS41Ni0uMDd2LTIuNjljLjU4Ljg2LDEuMTIsMS42NywxLjk0LDIuOS4xMi0xLjM1LjE4LTIuMS4yNC0yLjg0LTEuMDMsMy4xMywxLjg0LDQuNTMsMy4xMyw2LjY4di0xMC42OGMuNDUsMy4wMi42MSw2LjA1LjcyLDkuMDguMDUsMS4zNS4zMiwyLjQ2LDEuOTIsMi43Ni4wNi0uNzcuMTEtMS4zNy4xMi0xLjQ5Ljc0Ljg4LDEuNiwxLjkyLDIuNzQsMy4yOC4xMi0xLjg3LjE5LTMuMTQuMjgtNC41OS4xOCwxLjI4LjM0LDIuMzYuNDksMy40My4yOC0uMDIuNTYtLjAzLjg0LS4wNXYtNDJjLS4xNi0uMDQtLjMxLS4wOS0uNDctLjEzLS4xNCwxLjI0LS4yOSwyLjQ4LS40MywzLjcyLS4zNC0xLjE0LS4zOS0yLjI3LS41Ny0zLjM5LS4wNi0uMzktLjQ1LS43Mi0uNjgtMS4wOC0uMjYuMzEtLjUyLjYxLS43NS44OC0uMTktLjY2LS4zOS0xLjM2LS41OS0yLjA2LS4xMi4wMi0uMjQuMDQtLjM3LjA2LS4xMS4zNC0uMjEuNjgtLjI0Ljc4LS4zMS0uNTktLjY5LTEuMzMtMS4wNy0yLjA3LS4xNi4wNS0uMzEuMTEtLjQ3LjE2LS4xNSwxLjQ2LS4zMSwyLjkyLS40Niw0LjM5LS4yNS0xLjUxLS4yMS0yLjk5LS4yOC00LjQ3LS4wMi0uMzgtLjQtLjc0LS42Mi0xLjExLS4zMi4yNi0uNjQuNTItLjgyLjY2LS4xMi0uOTEtLjI3LTIuMDUtLjQzLTMuMTgtLjIyLDAtLjQ0LS4wMS0uNjYtLjAxLS4xNiwxLjY3LS4zMiwzLjMzLS40OCw1LS4xNC0uMDEtLjI3LS4wMS0uNDEtLjAydi01LjUyYy0uMTUtLjAxLS4zLS4wMS0uNDUtLjAyLS4xMy41Ni0uMjYsMS4xMS0uNDEsMS43Ny0yLjMtMS41NS00LjQ5LTMuMDItNi44OC00LjYzLjU0LS4wNS43Ni0uMDguOTgtLjEtLjUyLTEuMDMtMS4wNC0yLjA2LTEuNzQtMy40Ni0uMTcsMS40My0uMjksMi40OS0uNDEsMy41NS0uMzYtLjk2LS43MS0xLjktMS4wNi0yLjgzLS4xNi4wNC0uMzIuMDctLjQ4LjExLjA3LDIuNzguMDcsNS41Ny4wNyw4LjM1Wm0yMC42Mi02LjcyYy4wNy4yNS4xNC41LjIxLjc1LDIwLjc0LTQuNTIsNDEuMjUtOS45Nyw2MS43OC0xNS4zNy0uMDMtLjE4LS4wNi0uMzctLjA4LS41NS0xLjA5LjEtMi4xNy4yLTMuNDIuMzEuNjQtLjM2LDEuMTItLjYzLDEuOTUtMS4wOS0yLjgxLTEuMjUtNS4yOC0yLjM0LTcuNzQtMy40My0uMDguMTctLjE3LjM1LS4yNS41Mi4yMy0uMi40Ni0uMzkuNjYtLjU2LTEuODMtMi4zNy00LjExLS42MS02LjE4LS43Ni45LS4yNywxLjgtLjU1LDIuNzEtLjgyLS4wMi0uMTQtLjA0LS4yOC0uMDYtLjQyLTEuMzYtLjQ3LTIuNzMtLjk0LTQuMDktMS40MS0xLjQ3LTEuMS0zLjE3LTIuMDQtNC44Ni0yLjk4LTEuMTgtLjY1LTIuMjItMS45OS0zLjkzLS44MS41LjQzLjkuNzcsMS4xLjk0LS45NS4zNy0xLjg3LjcyLTMuMDIsMS4xNy41OC41MS45LjgsMS4zNiwxLjIxLTIuMDcsMS4xNy00LjA5LDIuMzEtNi4yMywzLjUxLjQyLjE1LjkuMzMsMS41NS41Ny0uNi4yNy0xLjA3LjQ4LTEuNzMuNzguNTQuMzguODguNjIsMS4yNS44OC0uOTguNy0zLjE2LS42LTIuNzQsMi4wOS0xLjgzLjQ3LTMuNywxLjExLTUuNjEsMS4zOS0xLjQ4LjIxLTIuNjEsMS42OS00LjMxLDEuMTUuNDguNS45NiwxLDEuNTUsMS42Mi0uNDEtLjEzLS44MS0uMTMtMS0uMzMtMS4wMy0xLjEyLTIuMTEtMS41OC0zLjYxLS44LTIuOTQsMS41Mi01LjgtLjkzLTguNzUtLjI2LS4xNC4wMy0uMzItLjI0LS41LS4yOS0uNTQtLjE0LTEuMTMtLjQ0LTEuNjEtLjMyLS45My4yMy0xLjY3LjQ1LTIuMy0uNi0uMTctLjI5LS45Ny0uMTUtMS40Ni0uMy0xLjc5LS41Mi00LjAzLS4wNi00Ljk1LTIuMzItMS42Ny4yOS0yLjgzLjI4LTIuOTctMS45Ni0uMDctMS4wOS0uODQtMi4yNi0yLjA1LTMuMS0yLjgyLTEuOTctNS40MS00LjI2LTguMDUtNi4zOC4xNy0uMDguNDEtLjIuODgtLjQzLTMuMTMtLjU2LTE4LjA0LDIuMjgtMjAuNDYsMy43OSw1LjAxLDMuNDYsMTAsNi45MSwxNS4wMSwxMC4zNSw0LjM5LDMuMDIsOC44Niw1LjkyLDEzLjE2LDkuMDcsMi45MSwyLjEzLDUuNzcsMy42LDkuMzgsMS45NC4wOC0uMDQuMjIuMDcuMzkuMTQtMS4zNi40OC0yLjY2Ljk1LTMuOTYsMS40MSwwLC4yNCwwLC40OC4wMi43MSwxLjUzLjE2LDMuMDYuMzIsNC4zNy40NS0uMzIuMTItLjg2LjMzLTEuNDEuNTRabS0xMi44My00Ni4zMWMtLjI1LjA4LS40OS4xNS0uNzQuMjMuMTgsNC4wMi4wNiw4LjA5LjYxLDEyLjA2LDEuMDMsNy4zOCw1LjAxLDEyLjU4LDEyLjQ0LDE0LjUzLDIuOTEuNzYsNS45NCwxLjE5LDguOTUsMS40LDQuOTUuMzQsOS45My4zOSwxNS4wMS0uOC0uMzktLjI1LS41OC0uMzctLjcyLS40NSwyLjA3LS4xMiw0LjE4LS4xNCw1Ljg3LTEuODIuNzctLjc3LDIuNTEtLjI4LDIuNjItMS45OCwyLjkyLS4zNSwzLjczLTMuMDEsNC40Ni00Ljk4LDEuMjItMy4yNCwxLjY1LTYuOCwyLjIzLTEwLjI1LjM2LTIuMTMuMzctNC4zMi41MS02LjEyLTE1LjMsNS4yMi0zMC44NSw1LjExLTQ2LjYzLDEuMiwxLjU4LjU0LDMuMTYsMS4wOCw0Ljc1LDEuNjMtLjA0LjEyLS4wNy4yNS0uMTEuMzctMS45NS0uNTUtMy45MS0xLjEtNS44Ni0xLjY2LS4wNS4xLS4wOS4yMS0uMTQuMzEuODMuNDksMS42Ni45NywyLjQ5LDEuNDYtLjAyLjA3LS4wNC4xMy0uMDYuMi0xLjAzLS4zLTIuMDYtLjYtMy4wOS0uOS0uMDUuMTgtLjExLjM2LS4xNi41NCwxLjU4LjU3LDMuMTUsMS4xMyw0LjczLDEuNy0uMDUuMTQtLjEuMjgtLjE1LjQxLTIuMTQtLjY2LTQuMjctMS4zMi02LjgyLTIuMTEuNzEtLjM2Ljk5LS40OS45NC0uNDctLjIxLTEuMDQtLjM2LTEuODktLjU2LTIuNzItLjE2LS42Mi0uMzgtMS4yLS41Ny0xLjc4Wm0yMy44Myw4OS45MmMtMS4xNSw1LjM2LS42OCwxMC42NS0uOTYsMTYuMTEsOC4yOC0yLjc1LDE2LjQyLTUuNDUsMjQuNTYtOC4xNSwwLS4xOS4wMi0uMzkuMDMtLjU4LS44NC0uMjItMS42Ny0uNDMtMi41NC0uNjYuMDMtLjM0LjA1LS43Mi4wOS0xLjE0LS41NC4yMy0xLjAxLjQzLTEuMjIuNTItLjktMS43OS0xLjc2LTMuNTEtMi42NS01LjI3LDEuNDEtLjksMS44MS0xLjcxLDEuMDYtMi41OC41Ny0uMzMsMS4yMS0uNTksMS43MS0xLjAxLDIuMi0xLjgzLDQuOTgtMS40Nyw2LjUyLjg3LjQ2LjcuODcsMS44MSwxLjQ5LDEuOTYsMi42OS42Nyw0LjMxLDIuMyw1LjA3LDQuOSwyLjAyLS42NSwzLjkyLTEuMzUsNS44Ny0xLjg2LDIuMjEtLjU4LDMuOTgtMS40MywzLjktNC4xNC0uMzQtLjA4LS42OS0uMTctLjU4LS4xNCwxLjE4LTMuMzIuMjUtNi43OCwxLjAyLTEwLjA2LS41NC0uMDctLjk1LS4xMi0xLjMyLS4xNy41NS0uMzMsMS4wNi0uNjQsMi0xLjItLjkxLS4yNy0xLjI4LS4zNy0xLjYzLS40Ny4zNi0uMjcuNy0uNTIsMS40Mi0xLjA1LS44LjA2LTEuMTQuMDItMS40My4xMS05Ljg3LDIuOTgtMTkuNzMsNS45Ny0yOS41OSw4Ljk4LTQuMDYsMS4yNC04LjEsMi41NC0xMi4xNCwzLjg1LS4zOC4xMi0uNjkuNS0xLjAzLjc2LjIyLjI2LjQzLjUyLjM1LjQyWm01NS42OC01My4yMmMtLjc0LS45NC0xLjQ1LTEuNjEtMS44OC0yLjQyLS43OS0xLjQ5LTEuODMtMS41NC0zLjMzLTEuMTYtMTEuMjgsMi44OC0yMi41Nyw1LjcxLTMzLjg3LDguNDktOC41LDIuMDktMTcuMDIsNC4wOC0yNS41Miw2LjE0LS41Mi4xMy0xLjMuNDYtMS4zOC44My0uMzIsMS40Mi0uNCwyLjg5LS42Miw0LjcsMjIuNDctNS41OCw0NC42Mi0xMS4xLDY2LjYtMTYuNThaTTEuMzMsMTAuMjNjLS41MSwyLjUuMzUsNC43LDEuNTMsNi44LDEuNzgsMy4xOSwyLjQ0LDYuNDIuNDgsOS43Ni0uODMsMS40MS0uODQsMi41Ni44MiwzLjUzLjUyLS44NywxLjAyLTEuNywxLjUzLTIuNTUuMzMuMjcuNjEuNDkuNzMuNTktLjMzLjM2LS42NC43LTEuMTEsMS4yLjg1LjIsMS40LjMzLDIuMjkuNTUtMS4wMy4xLTEuNjguMTYtMi4zMy4yMiwwLC4xNywwLC4zNS4wMS41MiwyLjE3LDAsNC40LjI4LDYuNTEtLjA3LDIuNDQtLjQxLDMuMDYtMi4wNiwxLjY4LTQuMDEtMS40NC0yLjA0LTEuNzYtNC4yNi0xLjI2LTYuNTUuNDEtMS44OSwxLjEtMy43NCwxLjg5LTUuNTIsMS42Ny0zLjc2LDEuMzMtNy4zMS0uNjgtMTAuODMtMS4zOS0yLjQzLTMuNzEtMi45OS02LjA5LTIuNzQtMi4zOS4yNi0yLjQ2LDIuOC0zLjI3LDQuNTEtLjE1LjMxLjM3LjkzLjU5LDEuNDMtLjQyLjAzLTEuMTcuMDktMi4wOC4xNi0uMDcuNjUtLjE1LDEuNDItLjI1LDIuMywxLjAzLjA5LDEuNzkuMTYsMi41Ni4yMy40OSwxLjg0LDEuMSw0LjExLDEuNzEsNi4zOC0uMDYuMDMtLjEyLjA1LS4xOC4wOC0uNDgtMS4xMi0uOTYtMi4yMy0xLjQ2LTMuMzktLjY2LjA3LTEuMjQuMTQtMi40Ni4yOC44NywxLjE4LDEuNSwyLjA0LDIuMDgsMi44Mi0uMDQuMDItLjMzLjE1LS42Mi4yOS4zOS43My43NywxLjQ2LDEuMTYsMi4yLS4xNi4wNy0uMzEuMTQtLjQ3LjIxLTEuODEtMi40OC0yLjI3LTUuNTUtMy4zMS04LjRabTgxLjI5LDE4LjIxYzEuMzUuNiwyLjIuOTcsMy4wNSwxLjM1LjA2LS4yNS4xMi0uNDkuMTktLjc0LTctMy4wNC0xNC4wNy01Ljc3LTIxLjE2LTQuNC0yLjI4LDEuMTguMzcsMS44LS44MSwyLjU4Ljg0LjQ3LDEuNjguOTMsMi4yOCwxLjI3LS40NS4xNy0xLjE3LjQzLTEuODkuNy40Ny4yOC45NC41NywxLjEyLjY3LjE3LDEuMTMuMDIsMi40NC41OCwzLjI0LjUyLjc0LDEuODEuOTQsMi42NSwxLjMzLTIuOTYsMS4yMi0zLjY2LDIuMDItMi45MSwzLjUyLjY0LS4yNSwxLjctLjg3LDEuODctLjY4LDEuMTgsMS4zMSwyLjQ5LjUzLDMuNzEuMzksMi42LS4yOSw1LjE5LS42OSw3LjktMS4wNS0uMi0uNTgtLjM4LTEuMDktLjU1LTEuNi4wOC0uMDMuMTYtLjA3LjI1LS4xLjM4LjUuNzUsMSwxLjI2LDEuNjgsMS0uNjksMS44OS0xLjMsMi42NC0xLjgzLjM3LjEzLjgxLjQ2LDEuMDYuMzUuODUtLjM4LDEuNjYtLjg5LDIuNDUtMS40MS45NC0uNjIsMS4wNS0xLjM2LjE1LTIuMTItMS4xNC0uOTQtMi4yOS0xLjg3LTMuODQtMy4xNVptLTM3LjY3LDEyMy45MmMuMy0uNC40NS0uNTUuNTMtLjczLjE0LS4zMS4yMy0uNjMuMzQtLjk1cTEuMTItMy4yNS0xLjM3LTUuNDVjLTguOTMtNy45Mi0xNy44OC0xNS44Mi0yNi43OS0yMy43OC0zLjAxLTIuNjktNS45MS01LjUtOC44MS04LjIxLTEuMTcuOTQtMi4yMywxLjc5LTMuNDksMi44MSwxMy4yMSwxMi4xMiwyNi4zOCwyNC4yLDM5LjU5LDM2LjMxWk02LjE3LDYxLjI1YzEzLjU1LDkuMTMsMjcuMTYsMTguMjksNDAuODMsMjcuNDksMS4zLTQuMjksMS4xNy00LjkyLTEuMDYtNi40MS04Ljg3LTUuOTEtMTcuNzQtMTEuODMtMjYuNi0xNy43NS0zLjE5LTIuMTMtNi4zNi00LjI5LTkuMzMtNi4yOS0xLjMzLDEuMDMtMi41MSwxLjk0LTMuODQsMi45NlptNDcuNzcsNTkuNmMyLjE5LDIuNDYsNC4xMSwzLjcxLDcuNjEsMi41NiwxMi4zMy00LjA2LDI0Ljc5LTcuNzUsMzcuMjUtMTEuNDEsMi42My0uNzcsNC43OC0xLjU0LDQuNy00LjcxLTE2LjU0LDMuOTQtMzIuODcsOC45Ny00OS41NiwxMy41NlpNMzIuMzEsMzEuNDhjLS4xMS4yLS4yMy40LS4zNC42LjYzLjY2LDEuMiwxLjM5LDEuODksMS45NywzLjU0LDIuOTMsNy44Myw0LjIsMTIuMTgsNS4xNiw5LjQ3LDIuMDgsMTkuMDIsMS45MywyOC41OS41OSwzLjYzLS41MSw3LjI1LTEuMDEsMTAuMzgtMy4wNiwxLjI1LS44MiwyLjI2LTIuMDIsMy4zOC0zLjA1LS4xNS0uMTctLjMxLS4zNS0uNDYtLjUyLTIuMjMsMi45LTUuNTYsMy41Ny04Ljc2LDQuMjMtMTEuNzYsMi40Mi0yMy41LDEuNzQtMzUuMTQtLjg3LTMuNzEtLjgzLTcuNTgtMS41Ny0xMC4zNy00LjYzLS4yNy0uMy0uODktLjI5LTEuMzUtLjQyWm0xLjMxLTEuOTVjMS42MS4yMSwzLC43LDQuMjcuNDksNC4yMy0uNyw4LjQ0LTEuNTksMTIuNjMtMi41NCw0LjIzLS45Niw4LjQyLTIuMDYsMTIuNjItMy4xNCwxLjI3LS4zMywyLjQtLjksMi43NC0yLjY3LTEuNDMuNjUtMi40NywxLjI5LTMuNiwxLjYxLTMuMDguODctNi4xOSwxLjY2LTkuMywyLjQtMTEuMDUsMi42NC0yMi4zLDMuODktMzMuNjEsNC42OS0yLjAyLjE0LTQuMDIuNTEtNi4wMy42OS0yLjQ1LjIyLTQuOTEuNC03LjM3LjQ5LS45MS4wNC0xLjg0LS4yMi0yLjc2LS4zNC0uMDQuMTctLjA4LjM0LS4xMS41MiwxLjEyLjMzLDIuMjUuOTUsMy4zNy45Myw0LjQ3LS4wOCw4Ljk2LS4yMSwxMy40Mi0uNjEsNC44My0uNDMsOS42Mi0xLjE5LDE0LjQzLTEuODIuMDksMCwuMTYtLjE2LjI0LS4yNC0uMjMtLjExLS40NS0uMjItLjk0LS40NlptMjMuNjUsMTEyLjIxYy4yLTUuMzkuNDEtMTAuNjQuNTctMTUuODksMC0uNDItLjEzLTEuMDEtLjQyLTEuMjQtMS4yMi0uOTgtMi41My0xLjg1LTMuOTUtMi44Ni0uMzYsNi43OC0uNywxMy4zNC0xLjA2LDIwLDEuNzYsMCwzLjE2LDAsNC44NiwwWm0tMi45MS0xMTNjLTEyLjcxLDEuNTEtMTUuMDQsMi41OS0xNi43NywzLjk2LDEuMDUsMCwyLjMxLjExLDMuNTQtLjAzLDEuMy0uMTUsMi41Ny0uNTYsMy44Ni0uODUuMDIuMDguMDMuMTYuMDUuMjQtLjU2LjI1LTEuMTMuNTEtMS42OS43Ni4wMi4xLjAzLjIuMDUuM2gyLjk5Yy0uNi4zNy0uOTYuNTktMS40MS44NywxLjE2LjU1LDIuMzgsMS42NCwzLjA4LDEuMzcsMi4wMS0uNzcsMy42MS4zNCw1LjM4LjU4LjYyLjA4LDEuMi4zOSwxLjguNTkuMDctLjE4LjEzLS4zNi4yLS41My0uOTktLjQxLTEuOTktLjgzLTMuMzgtMS40MWgzLjJjLjM3LS43NC42NC0xLjI3LjktMS43OS0uNC0uMjEtLjg0LS40NC0xLjMxLS42OS41Mi0uMTcuOTItLjMsMS4zMy0uNDQsMC0uMjUsMC0uNDkuMDItLjc0LTEuNDktLjEzLTIuOTgtLjI2LTQuNDctLjM5LDAtLjA3LDAtLjE0LjAyLS4yMSwxLjgzLS4xMSwzLjY2LS4yMiw1LjU3LS4zNC0uMTMtLjY5LS4yNi0xLjQ2LS40Mi0yLjMxLTEuNDUuMjItMi43NC40Mi00LjAyLjYydi4yNGMuNDkuMDguOTguMTQsMS40OC4yWm0yMC4yMywzNC44NGMtOC4xLDEuOTMtMTYuMDMsMS40Mi0yMy45Ny45LTEuNC0uMDktMi44NC40Mi00LjI3LjY1LDAsLjIyLjAyLjQzLjA0LjY1LjQuMTguNzkuNDMsMS4yMS41NCw2LjkzLDEuODMsMTMuOTYsMi40OSwyMC45NS42OCwyLjEyLS41NSw0LjcxLS45NCw2LjA0LTMuNDJabTEyLjgxLDYzLjI3Yy0uODYtLjM1LTEuNzktLjcyLTIuNjUtMS4wNy4wMi0uMzYuMjEtLjk0LjA1LTEuMDYtLjkxLS43MS0xLjgzLTEuNTctMi45LTEuODgtLjY4LS4xOS0xLjgzLjI2LTIuMzguODEtMS41NCwxLjUzLTEuNTQsMy4yOC4wOSw1LjM2LjU3LjczLDEuODMuOTIsMi43NywxLjM1LjA5LS4xOC4xOS0uMzUuMjgtLjUzLjQyLjU5Ljg0LDEuMTcsMS4xNywxLjYzLDEuMTgtMS41MSwyLjMzLTMsMy41Ny00LjYxWm0tNjkuMjktNS44NWMyLjgsMi4yMyw1LjQxLDQuMTcsNy44Niw2LjI5LDEuNTQsMS4zMywyLjgxLDIuOTcsNC4yOCw0LjM4Ljg0LjgxLDEuOTEsMS40LDIuNzYsMi4yMSwxLjc1LDEuNjUsMS44NywxLjcyLDQuNTgsMS4wNi01LjA0LTQuMjktOS45My04LjQ4LTE0Ljg3LTEyLjYtMS4xNS0uOTYtMi4xOC0yLjQ4LTQuNjEtMS4zNFptNzIuOTksOS4zN2MtLjE2LTEuMjQtLjY4LTIuNTctMi4zNy0yLjc2LTEuODQtLjItMy44MywyLjM5LTMuNzksNC43Mi4wMiwxLjYzLDEuMDQsMi42NywyLjYyLDIuNjYsMi0uMDEsMy41OC0xLjk1LDMuNTQtNC42MlpNNTguNjQsMzAuODZjLS41MS4xNi0uODYuMjgtMS4yLjM5LjE3LjM4LjMsMS4wNS41MiwxLjA4LDEuNTQuMjIsMy4wOS4zNyw0LjY0LjQuMzguMDEuNzYtLjUzLDEuMTQtLjgxLS41LS4xNS0xLS4zLTEuNDgtLjQ0LjA5LTEuOTEuMTktMy44Ny4yOC01LjgzLS4xNS0uMDItLjMxLS4wMy0uNDYtLjA1LS4xNC41Ni0uMjgsMS4xMi0uNCwxLjY0LS4wOC0uNDctLjE3LS45Ni0uMzctMi4wOS0uOCwxLjQ3LTEuMzEsMi40MS0xLjc1LDMuMjMtLjA0LS40LS4xMS0uOTgtLjE3LTEuNTUtLjExLDAtLjIyLDAtLjMzLDAtLjE0LDEuMzYtLjI5LDIuNzMtLjQyLDQuMDRabS01LjQyLDExMy4xNmMtLjY4LS4yMS0uOTEtLjI3LTEuMzQtLjQsMS40OS0uMjEsMi43MS0uMzksMy45My0uNTYtLjAzLS4yMy0uMDYtLjQ2LS4wOS0uNjktMi4zOS4zMS00Ljc3LjY1LTcuMTYuOTEtLjYuMDctMS41MS4xMy0xLjgtLjIxLTEuMi0xLjQyLTIuNTktLjg3LTQuNC0uOTEsMS42LDEuNTEsMi44MSwyLjc0LDQuMTQsMy44NC4zNi4zLDEuMTMuMzgsMS41OS4yMSwxLjYyLS42LDMuMTktMS4zNSw1LjEzLTIuMTlabTkuNTMtMTEwLjA2aC01LjEzYy0uMjMsMS4wNi0uNDcsMi4yMi0uNzUsMy41NCwyLjczLjIxLDUuMDYuNCw3LjguNjEtLjc1LTEuNjEtMS4yNy0yLjczLTEuOTItNC4xNVptMTAuMTEsNTAuMDhjLjA3LjIyLjE0LjQ1LjIxLjY3LDkuNTktMi4zNSwxOS4xOC00LjcsMjguNzctNy4wNS0uMDYtLjI2LS4xMy0uNTItLjE5LS43OS05LjU5LDIuMzktMTkuMTksNC43OC0yOC43OSw3LjE3Wm0tNTMuMzYsMzYuNjZjLjEyLS4yNS4yNC0uNDkuMzYtLjc0LTIuNTQtMi4yMy01LjA0LTQuNS03LjYzLTYuNjctLjYtLjUxLTEuNDgtLjctMi4yMi0xLjAzLS4xLjIyLS4yMS40NC0uMzEuNjYsMi4zNSwyLjE1LDQuNjUsNC4zNSw3LjA3LDYuNDEuNzUuNjQsMS44MS45MiwyLjczLDEuMzdabTI1LjYyLDIxLjE0Yy0xLjc3LTEuNC0zLjYxLTIuMjMtNC40NS0zLjY2LTEuMzUtMi4yNy0zLjMxLTIuMTktNS40Mi0yLjMxLDMuMjUsMS43NSw0LjYxLDYuMzYsOS44Nyw1Ljk3Wm0xMi43NC0xMjMuOTVjMS41NiwwLDIuOTguMSw0LjM3LS4wNS40Ny0uMDUsMS4yOC0uODYsMS4yMS0xLjExLS4yLS42OC0uNjctMS42LTEuMjQtMS44LTIuMTktLjc0LTMuMzMuMDMtNC4zNCwyLjk2Wm00NS45NSwxMDAuMzhjLjMyLjAzLjYzLjA1Ljk1LjA4LjQ2LTUuOS45Mi0xMS44LDEuMzktMTcuNy0uMjItLjAyLS40NS0uMDQtLjY3LS4wNS0uNTYsNS44OS0xLjEyLDExLjc4LTEuNjcsMTcuNjdabS01Ni4wOC0yNy45MWMuMDguMzMuMTUuNjUuMjMuOTgsNi4zMS0xLjU4LDEyLjYyLTMuMTYsMTguOTMtNC43NS0uMDMtLjEzLS4wNi0uMjctLjEtLjQtNi4zNSwxLjM5LTEyLjcxLDIuNzgtMTkuMDYsNC4xN1ptOS43OS03MS45MWMtLjMyLDEuMzEuMTMsMi4wNSwxLjU1LDIuMTMuOC4wNCwxLjYxLjEzLDIuNDEuMTksMi4xNC4xNSwyLjQ5LS4yNiwyLjE5LTIuMzJoLTYuMTVabTQ3LjExLDEwNy44M2MxLjI3LS4yNSwyLjY2LS41Myw0LjQtLjg3LTEuNDEtMS4xOC0yLjMyLTEuOTUtMy4wOC0yLjU5LTEuNTIsMS42My0yLjg4LDMuMDktNC4yMyw0LjU1LjEzLjEyLjI2LjI0LjQuMzUsMS4wNS0uMzUsMi4xLS43LDMuNTQtMS4xNy0uNzMtLjE5LS45OC0uMjYtMS4wMy0uMjdabS40LTQ3LjljLS42LjY2LS45NiwxLjM2LTEuMjYsMS4zNC0yLjY5LS4yMy0yLjY5LS4yNy0yLjM3LDIuMzVxNC4wNy0uNzIsMy42My0zLjY5Wm0tMjEuOTItNTEuN2MtNS4yNS0yLjExLTEwLjc4LTMuMzctMTYuNTMtMy43MSw1LjUxLDEuMjQsMTEuMDIsMi40OCwxNi41MywzLjcxWm0tMzQuNjUtMy45NmMtLjA0LS4xOS0uMDgtLjM3LS4xMy0uNTYtMy43Ni44Ni03LjUyLDEuNzEtMTEuMjgsMi41Ny4wNi4yNC4xMS40OS4xNy43MywzLjc1LS45MSw3LjQ5LTEuODIsMTEuMjQtMi43NFptLTkuOTIsMTI0Ljg0Yy0uMTMuMTItLjI2LjI1LS4zOC4zNywxLjgzLDEuNjMsMy42NiwzLjI3LDUuNDksNC45LjEzLS4xNS4yNi0uMy4zOS0uNDUtMS44My0xLjYtMy42Ny0zLjIxLTUuNS00LjgyWk0yLjcyLDEyLjM0aDIuMTVjLS4wOC0uNzEtLjE1LTEuMjktLjIxLTEuODVoLTIuMjdjLjEzLjY2LjIyLDEuMTguMzMsMS44NVoiIGNsYXNzPSJjbHMtMSIvPiYjeGE7ICAgICAgPHBhdGggZD0ibTcxLjk0LDExMi44MWMtLjc4LjIzLTEuNTYuNDYtMi40Ljcxdi02LjQxYy4xMSwwLC4yMywwLC4zNCwwLC4xMiwxLjcyLjIzLDMuNDUuMzUsNS4yOC41OC4xNCwxLjE1LjI5LDEuNzEuNDNoMFoiIGNsYXNzPSJjbHMtMSIvPiYjeGE7ICAgICAgPHBhdGggZD0ibTg4LjMzLDcxLjY0YzMuNTItLjgyLDcuMDUtMS42MywxMC41Ny0yLjQ1LjAzLjEyLjA2LjI0LjA5LjM2LTMuNTIuODMtNy4wNCwxLjY2LTEwLjU2LDIuNDktLjAzLS4xMy0uMDYtLjI3LS4xLS40WiIgY2xhc3M9ImNscy0xIi8+JiN4YTsgICAgICA8cGF0aCBkPSJtMzcuNTksNDUuNDZjLS42Ny0xLjA5LTEuMzItMi4xMy0yLjEyLTMuNDEsMS40MS4zMywyLjQ2LjUyLDMuNDcuODIuNzYuMjMsMS40OC42LDIuMTgsMS4xMi0xLjMtLjMtMi41OS0uNi0zLjg5LS45LS4wOC4xOC0uMTUuMzYtLjIzLjU0LjguNDgsMS41OS45NSwyLjQ0LDEuNDYtLjI1LjA4LS41Ni4xOS0xLjE0LjM4LjcyLjQ3LDEuMjkuODUsMS44NSwxLjIyLDAsLjA4LS4wMy4xNS0uMDQuMjMtLjk5LS4yNi0xLjk4LS41My0yLjk4LS43OWwtLjE4LjQyYy43NC40NiwxLjQ5LjkxLDIuMjMsMS4zNywwLC4wOS0uMDMuMTktLjA0LjI4LTEuMDMtLjMtMi4wNi0uNi0yLjk4LS44N3YtMi4xM2MuNDYuMDYsMS4wNS4xOCwxLjQzLjI2WiIgY2xhc3M9ImNscy0xIi8+JiN4YTsgICAgICA8cGF0aCBkPSJtNDYuNTYsMTUxLjI3Yy40My0uMzYuODYtLjcyLDEuMzMtMS4xMS45Mi43MywyLjMuMjQsMi42Ni0uNjQuODgtLjIzLDEuMzYtLjM2LDEuOTUtLjUxLS4wMi0uMDkuMTUuNTkuMTMuNi0yLjAyLjU5LTQuMDQsMS4xMi02LjA3LDEuNjYsMCwwLDAsMCwwLDBaIiBjbGFzcz0iY2xzLTEiLz4mI3hhOyAgICAgIDxwYXRoIGQ9Im0xMTMuMjQsNzIuMDFjLTEuNzkuNDItMy40NS44MS01LjE3LDEuMjEuOC0zLjI0LDIuMy0zLjYxLDUuMTctMS4yMVoiIGNsYXNzPSJjbHMtMSIvPiYjeGE7ICAgICAgPHBhdGggZD0ibTE1LjU1LDEyMi4wM2MtMi44LTEuNzktNS42MS0zLjU3LTguNjQtNS41LDEuMDItLjQ5LDEuNS0uNzMsMi40My0xLjE4LDEuOTIsMS43OCw0LjI4LDMuOTgsNi42NSw2LjE3LS4xNC4xNy0uMjkuMzQtLjQ0LjUxWiIgY2xhc3M9ImNscy0xIi8+JiN4YTsgICAgICA8cGF0aCBkPSJtNDQuMzMsMTQ3LjY0cy0uMDguMDgtLjEyLjExYy0uMDQtLjA0LS4xLS4wOC0uMS0uMTJzLjA3LS4wOC4xMS0uMTFjLjAzLjA0LjA3LjA4LjExLjEyWiIgY2xhc3M9ImNscy0xIi8+JiN4YTsgICAgICA8cGF0aCBkPSJtNTQuMzYsMTI4LjEydi00LjczYzEuODYsMi4wMy42NCwzLjM4LDAsNC43M1oiIGNsYXNzPSJjbHMtMSIvPiYjeGE7ICAgIDwvZz4mI3hhOyAgPC9nPiYjeGE7PC9zdmc+;" vertex="1" parent="1">
          <mxGeometry x="106" y="210" width="118" height="150" as="geometry" />
        </mxCell>
        <mxCell id="5a-CCkB_ibbZyQVuqNtb-3" value="" style="shape=image;imageAspect=0;aspect=fixed;verticalLabelPosition=bottom;verticalAlign=top;image=data:image/svg+xml,PHN2ZyB4bWxucz0iaHR0cDovL3d3dy53My5vcmcvMjAwMC9zdmciIHZpZXdCb3g9IjAgMCA5OC41MiAxMzcuNDUiIGRhdGEtbmFtZT0iTGF5ZXIgMiIgaWQ9IkxheWVyXzIiPiYjeGE7ICA8ZGVmcz4mI3hhOyAgICA8c3R5bGU+JiN4YTsgICAgICAuY2xzLTEgeyYjeGE7ICAgICAgICBzdHJva2Utd2lkdGg6IDBweDsmI3hhOyAgICAgIH0mI3hhOyAgICA8L3N0eWxlPiYjeGE7ICA8L2RlZnM+JiN4YTsgIDxnIGRhdGEtbmFtZT0iTGF5ZXIgMSIgaWQ9IkxheWVyXzEtMiI+JiN4YTsgICAgPGc+JiN4YTsgICAgICA8cGF0aCBkPSJtMjYuMyw1Ny44NmMtMS4wMi0xLjg0LTEuODktMy42LTIuOTctNS4yMi0uMzMtLjQ5LTEuMjUtLjY5LTEuOTMtLjgyLTMuNDUtLjY1LTYuNzgtMS41Ni05LjU2LTMuODMtMS42Ny0xLjM2LTIuNzMtMy0yLjUyLTUuMy4zMy0zLjU2LjUyLTcuMTIuODQtMTAuNjguMzUtMy45Mi43OC03Ljg0LDEuMi0xMS43Ni4yMS0xLjk0LjQ5LTMuODcsMS42Ny01LjUxLjI4LS4zOS43LS43MywxLjEyLS45Nyw2Ljg5LTMuOTQsMTQuMTctNy4wNSwyMS40OC0xMC4xMSwzLjUyLTEuNDcsNy4xMi0yLjY5LDEwLjg5LTMuMjksMy44Ni0uNjEsNy43My0uNDYsMTEuNTYuNDEsMS4zNC4zLDIuNzEuNSw0LjA3Ljc0LjIzLjA0LjU1LjExLjY5LDAsMS4xOC0uOTUsMi40OS0uNDMsMy42OS0uMjcsMy45MS41MSw3LjgsMS4xNCwxMS42OSwxLjguNTEuMDkuOTQuNjMsMS40MS45NS4zMS4yMS42MS41Ljk2LjU5LDEuOTIuNSwzLjg5Ljg1LDUuNzgsMS40NC45Mi4yOSwxLjcxLjk4LDIuNTcsMS40OC4zNS4yLjcuNDEsMS4wOC41MywxLC4zMSwxLjUzLDEuMDIsMS42MiwxLjk5LjMxLDMuMzEuNjEsNi42My44Miw5Ljk1LjI1LDMuNzcuNDEsNy41NC42MSwxMS4zLjE2LDMuMS4zMSw2LjIuNDcsOS4zLjI5LDUuNzIuNjEsMTEuNDQuODksMTcuMTcuMTksMy44MS4zMyw3LjYyLjUsMTEuNDIuMjIsNC44Mi40NSw5LjY0LjY4LDE0LjQ1LjEyLDIuNTEuMjcsNS4wMy4zOCw3LjU0LjE3LDMuOTEuMjMsNy44MiwxLjE4LDExLjY0LjM4LDEuNTIuODYsMy4wMywxLjE0LDQuNTcuMTksMS4wMi4yOCwyLjEuMTMsMy4xMi0uMTcsMS4xNC0uNSwyLjMxLTEuMDIsMy4zMy0xLjg0LDMuNTUtNS4xNyw1LjM2LTguNTYsNy4xMS04LjY2LDQuNDctMTcuNDcsOC42Mi0yNi41NCwxMi4yLTMuMTQsMS4yNC02LjI0LDIuNTYtOS42NCwyLjkyLS4yLjAyLS40My4xNS0uNTYuMzEtMS4xMSwxLjI5LTMuOSwxLjQ3LTUuMjEuMzUtLjIxLS4xOC0uNTEtLjMtLjc4LS4zMi03LjIxLS40OC0xNC4zMi0xLjY4LTIxLjQxLTIuOTktNC45My0uOTEtOS44My0yLjA2LTE0Ljc1LTMuMDQtMS4yNC0uMjUtMi41My0uMjQtMy43OS0uNDQtLjQ2LS4wNy0uOTQtLjM0LTEuMy0uNjUtLjU5LS41Mi0xLjAyLTEuMjMtMS42My0xLjczQy42NiwxMjUuNDUtLjE1LDEyMi43OC4wMiwxMTkuNDljLjEzLTIuMzcsMS4zNC0zLjc4LDIuODktNS4yOCwzLjQ1LTMuMzQsNy42MS01LjU1LDExLjgtNy43NC43NC0uMzguOTctLjc2LjgtMS42NS0uNTQtMi43OC0uMjEtNS41Ny4xMi04LjM1Ljg3LTcuMjEsMi41OC0xNC4yNSw0LjE2LTIxLjMzLjI1LTEuMTEuOS0yLjEzLDEuMTQtMy4yMy40Mi0xLjkzLjctMy44OS45Ni01Ljg1LjE3LTEuMy4wOC0yLjY0LjMyLTMuOTMuNDEtMi4xNywxLjkxLTMuNDgsNC4wOS00LjI3Wm0tOC4zLTguMTJjLjM3LjIxLjcyLjUzLDEuMTIuNjIsMy45Ljg4LDcuNzksMS44NiwxMS43MiwyLjU2LDcuMSwxLjI3LDE0LjI1LDIuMDksMjEuNDgsMS44OC41My0uMDIsMS4wNC0uMzEsMS41My0uNDcuMTMuMDcuNDEuMzYuNi4zMS42NS0uMTcsMS42LjMzLDEuODItLjU3LjM2LjA3LjY5LjIyLjk5LjE3LDEuNDUtLjI3LDIuODktLjYyLDQuMzQtLjg4LjctLjEzLDEuMDgtLjQ1LDEuMTktMS4xOC4wMi4yNC4wNS40Ny4wOC44Mi41NC0uMjEuOTgtLjQzLDEuNDQtLjU1LDMuMDEtLjc0LDUuODktMS43Nyw4LjQ3LTMuNTMuMDctLjA1LjE1LS4wOC4yMy0uMTEuMzMtLjEyLjY3LS4yMy45OS0uMzYuMDktLjA0LjE1LS4yLjIzLS4yLjk1LS4wMiwxLjA2LS4xLDEuMjMtLjkxLjA0LS4yMS4xNC0uNDEuMjEtLjYyLjAzLjQuMDUuNzkuMDksMS4zNi4zOC0uNDMuNjgtLjc3Ljg3LS45OS4yOC4wNy41MS4xOS41OS4xMy40Mi0uMy43OS0uNjgsMS4yMS0uOTguMTUtLjExLjQyLS4wNi45LS4xMS0uNjguNzQtMS4xOCwxLjMtMS42OCwxLjg1LS44LjEzLTEuNjEuMzgtMi4zNS43Ny0uMy4xNi0uNi41OS0uNjMuOTMtLjA4Ljk1LS4wMywxLjktLjAzLDIuODZoLS4yMXYtMy4zNWMtMS4zNC4yNy0uMjIsMS40Ni0uOTQsMS45OC0uMDQtLjU0LS4wNy0xLjAyLS4xLTEuNTFoLS4yNmwtLjE4LDEuNXMtLjA3LS4wMS0uMTEtLjAxYy0uMDYtLjM4LS4xMS0uNzctLjE3LTEuMTUtLjEtLjA0LS4yLS4wNy0uMy0uMTEtLjE5LjM4LS4zOC43NS0uNTksMS4xOC0uMDktLjI0LS4xNi0uNDQtLjI0LS42NC0yLjMxLjg4LTQuNiwxLjc2LTcuMDIsMi42OS42MS4xNiwxLjA2LjI4LDEuNS4zOS0xLjIuMjYtMi40Ny0uNi0zLjc4LjQyLDEuNDEuMjcsMi42NS41LDMuOS43NC0uNC4xNy0uNzYuMTEtMS4xMS4wNS0xLjEzLS4yLTIuMjUtLjQ1LTMuMzgtLjU4LS4zLS4wMy0uNjkuMjUtLjk2LjQ4LS4wOS4wOC4wMS42MS4xMy42NSwxLjMyLjQ1LDEuMjUsMS41LDEuMTMsMi41NS40MS4yMi43OC40LDEuMTIuNjEsMS4yNS43OSwyLjQsMS42OCwyLjU2LDMuMzEuMzEsMy4yMi43Nyw2LjM5LDEuNjMsOS41NCwxLjMxLDQuODQsMi4zMSw5Ljc3LDMuNDEsMTQuNjcuMjEuOTIuNTksMS42MywxLjQ4LDIuMDIuMDgtLjIxLjE3LS40Mi4zMS0uNzguMTMuNjEuMjIsMS4wNC4zMiwxLjQ4LjA5LDAsLjE3LS4wMy4yNi0uMDR2LTguNTFoLjM4djguNzRjLjE1LDAsLjMsMCwuNDUsMHYtNC45OGMuMDksMCwuMTcsMCwuMjYsMHY1LjA4YzEuODguMzksMy42OC43NSw1LjY3LDEuMTYtLjE1LTQuMzgtLjMtOC41OS0uNDUtMTIuNzkuMDYsMCwuMTIsMCwuMTgtLjAxLjE3LDQuMTguMzMsOC4zNS41LDEyLjUzLjA0LDAsLjA5LjAyLjEzLjAyLjA4LS4yMi4xNy0uNDUuMjctLjcyLjEyLjQuMjEuNy4zLDEsLjA5LS4wMi4xNy0uMDMuMjYtLjA1LjA2LS40NC4xMi0uODguMi0xLjUuMTQuNy4yNSwxLjIuMzUsMS43MS4xMy0uMDIuMjYtLjA1LjM4LS4wN3YtMi4xYy4yMi45NC4xNywxLjk3LjU5LDIuMjEuNTIuMzEsMS40Mi0uMDIsMi4xNi0uMDcuNjktLjA1Ljk4LS4zNi45Mi0xLjExLS4xNi0yLjExLS4yNi00LjIzLS4zNS02LjM1LS4yOS02LjQzLS41OC0xMi44Ni0uODctMTkuMjktLjItNC41NC0uMzctOS4wOS0uNjItMTMuNjMtLjA4LTEuNDUtLjQyLTIuODgtMS4zNy00LjA2LTEtMS4yNS0xLjQ2LTEuMzktMi41Ny0uOTktMS4zNy41LTIuNTgsMS4zNS0zLjk5LDEuNzgtLjA1LjAyLS4wOS4xLS4xMy4xNS0yLjEyLjgxLTQuMjMsMS42Mi02LjM2LDIuNDEtMS43Ni42Ni0zLjUxLDEuMzItNS4yOSwxLjkyLS45Ny4zMy0yLjEyLS4wNy0yLjk4Ljg4LS4yNi4yOC0uOTguMTctMS41LjE5LS42LjAzLTEuMjEuMDEtMS44MS4wMS4wMS4wNy4wMy4xNC4wNC4yLjA4LjA1LjE2LjEuNDYuMjktMS4wNS0uMS0xLjgyLS4xNy0yLjYtLjI0LDAsLjA0LS4wMS4wOC0uMDEuMTMuMjQuMDYuNDguMTEuNzEuMTctLjAxLjA2LS4wMS4xMi0uMDIuMTdoLTEwLjE0Yy4wNi0uMDQuMTUtLjEuNTItLjMyaC02LjIyYy4xNi0uMTIuMjYtLjE5LjM0LS4yNi0uNjQtLjEtMS4yNy0uMTktMS44OS0uMy01Ljk2LTEuMDItMTEuOTMtMi4wNC0xNy44OS0zLjA0LTEuMS0uMTktMi4yMS0uMy0zLjUzLS40Ny4yMy41Ni4zNi45LjQ4LDEuMjItLjI1LS4zOS0uNTEtLjc5LS44NC0xLjMyLS4xNS0uMDMtLjQ3LS4xLS44NS0uMTguMDEuMjcuMDIuNDYuMDMuNi0uNTItLjQxLTEuMDItLjgtMS41My0xLjIuMzcsMS41MSwxLjczLDIuMjksMy4xOSwyLjFabTM5LjczLDguNjhjLS44NC0uMDktLjM4LS42NC0uMjktLjk2LjI1LS45MS41Ny0xLjguODYtMi43LS4xMS0uMDQtLjIyLS4wOC0uMzMtLjExLS44Ny44My0uNzMsMi4xMy0xLjQxLDMuMDguMjItLjk1LjQ1LTEuOS42Ny0yLjg0LS4xMy0uMDUtLjI2LS4xMS0uMzktLjE2bC0uOTMsMi4wNHMtLjA3LS4wMy0uMTEtLjA0Yy4xMy0uNTYuMjYtMS4xMi4zNy0xLjU4aC0xMy40NGMtLjA2LjY3LS4xMywxLjQxLS4yLDIuMTUtLjE0LS41NC0uMTgtMS4wOC0uMTMtMS42MS4wNi0uNTgtLjE5LS43Ny0uNzItLjg0LTMuNzctLjUtNy41NC0xLjAxLTExLjMtMS41MS0uMDgtLjAxLS4xNy4wOC0uMjcuMTIuMDEuMjkuMDMuNTYuMDQuODMtLjM5LTEuNDktMS42NS0xLjIyLTIuODgtMS41Ny44NSwyLjA5LDEuNjIsMy45NywyLjM4LDUuODQtLjA4LjAzLS4xNy4wNy0uMjUuMS0uNzQtMS44Mi0xLjQ2LTMuNjUtMi4yMi01LjQ2LS4xLS4yNS0uMzYtLjQ0LS41NC0uNjYtLjA5LjA3LS4xOC4xMy0uMjcuMi4yOS42Ny41NSwxLjM1Ljg2LDIuMDEuNjYsMS40LDEuMzIsMi44MSwyLjA1LDQuMTguMjEuMzkuNjEuNzgsMS4wMi45NSwyLjY1LDEuMSw1LjQ2LDEuNDUsOC4yOSwxLjYyLDIuMTYuMTMsNC4zNC4wMyw2LjUxLjAzLjA3LS40My4xMS0uNzIuMTYtMS4wMWguMTFjLjA1LjMxLjEuNjIuMTYsMSw0LjMtLjI2LDguNDUtLjg1LDEyLjE4LTMuMTIuOTEtMS4xMywxLjA2LTIuNTIsMS4zMi0zLjg3LS42NiwxLjIzLTEuMzksMi40Mi0xLjMsMy44OVpNMTIuOTYsMTE4Ljk5Yy4wMS0uMDYtLjAxLS4xNi4wMi0uMTksMi4yOS0xLjY5LDQuNDEtMy44Miw3LjY5LTIuOS4xNi4wNS4zNSwwLC41MiwwLS40My0uMzEtLjktLjQ1LTEuMzUtLjYzLS44OC0uMzYtMS43Ni0uNzUtMi42My0xLjEyLDEuODMuNTcsMy42MywxLjI4LDUuNSwxLjY5LDMuNTYuNzcsNy4xNCwxLjQyLDEwLjczLDIuMDEsMi4xMi4zNSw0LjI4LjQ1LDYuNDEuNzEsMi43Ni4zNSw1LjU5LS4wNiw4LjMsMS4wMy45OS40LDEuNjMuOSwxLjg3LDEuODQuMjUuOTctLjMxLDEuNzktMS4wOCwyLjIyLTEuMTMuNjMtMi4zNCwxLjIzLTMuNTgsMS40OC0xLjgzLjM3LTMuNy4yOC01LjMzLS45LTEuNzItMS4yNC0uOTMtMy4zNy4yOS00LjAxLjg2LS40NSwxLjgyLS43MywyLjc3LTEuMDktMS41NC0uMTMtMy4wOC0uMjYtNC45NC0uNDEsMS4xNC41Ni45OSwxLjA1LjUxLDEuNzctMS42LDIuNC0yLjk5LDQuOS0yLjYxLDcuOTguMDkuNzYuMjEsMS4zLDEuMTMsMS4zLjUsMCwxLjAxLjA4LDEuNTEuMTUsNC45Ni43LDkuOTIuOSwxNC44OS4xNS4zMy0uMDUuNjMtLjMuOTYtLjQ2Ljg5Ljc4Ljc4LS40LDEuMDgtLjg3LjEuMzguMTcuNjIuMjcuOTcsMi4xMy0uNjIsNC4yNS0xLjA4LDYuMjQtMS44Niw0LjcxLTEuODQsOS4zNS0zLjgzLDE0LjAzLTUuNzYuODktLjM2LDEuNjQtLjgsMS4zOC0xLjk1LjA5LjM4LjE5Ljc2LjI4LDEuMTQuMTEsMCwuMjIsMCwuMzItLjAyLjA4LS42LjE2LTEuMTkuMjItMS42NC4wNS4zMy4xMS44LjE4LDEuMjguMTEuMDQuMjIuMDkuMzIuMTMuMzktLjUyLjc4LTEuMDQsMS4xMS0xLjQ3LjAyLjA3LjA5LjM0LjI2Ljk0LjI3LS40Mi4zNi0uNzEuNTMtLjc4LDEuMzItLjU1LDIuNy0uOTgsMy45OS0xLjYsMy45NS0xLjg5LDcuOTgtMy42NiwxMS40NC02LjQxLjYtLjQ4LDEuMjQtLjkyLDEuMTgtMS44Ni0uMDUtLjgzLDAtMS42Ny4wMi0yLjUuMDEtLjQyLjA3LS44NS4xMi0xLjM4LTQuMjcsMy45MS05LjM2LDUuOTMtMTQuMzQsOC41Ny43MS0xLjA3LDEuNDMtMS43OSwxLjcyLTIuNjcuODItMi40MSwxLjEyLTQuOTIsMS4wMi03LjQ3LS4xMS0yLjkzLS4yNy01Ljg2LS4zNy04Ljc5LS4wNS0xLjY0LS4wMS0zLjI4LS4wMS01LTEuMzEuMDgtMi4zMy4xNS0zLjQxLjIxdjEuNjlzLS4wNSwwLS4wOCwwYy0uMTEtLjU5LS4yMi0xLjE4LS4zNC0xLjc3LS4xMy4wMy0uMjYuMDUtLjM5LjA4djIuNTRzLS4wOCwwLS4xMiwwYy0uMDctLjg3LS4xNC0xLjc0LS4yMS0yLjYyLS4xNCwwLS4yOC4wMi0uNDEuMDN2Mi45OWgtLjI0Yy0uMDMtLjU4LS4wNi0xLjE1LS4wOS0xLjczLS4wMSwwLS4wMiwwLS4wNCwwdjguMzVjLS4xNS0yLjYyLS4yOC01LjI0LS4zMi03Ljg2LS4wMy0yLjA1LjAyLTIuMDYtMS45NS0yLjM3LS43OS0uMTItMS42NC0uMDQtMi4zNS0uMzMtLjczLS4zLS44OC4wMi0xLjA1LjU2LS4wOS0uMjQtLjE2LS40NC0uMjMtLjY0LS4xMS4wMi0uMjIuMDMtLjMyLjA1djE0LjY4aC0uM3YtMTQuOWMtLjEsMC0uMTksMC0uMjksMCwuMTYsNS44Ny0uNTMsMTEuNzYuNDYsMTcuNjQuMDYtLjIzLjEzLS40NS4yNi0uOTIuMjEsMi43NC4xMywyLjYzLTEuOTYsMy4zLS4xNS0uNTEtLjMtMS4wMi0uNDUtMS41Mi4yNC4zOC40OS43Ni43NiwxLjE5LjktLjQ1LDEtMS4yMS45NC0yLjA1LS4xMy0xLjc3LS4zNS0zLjU0LS4zNy01LjMyLS4wMy0yLjc5LjA4LTUuNTkuMTEtOC4zOS4wMS0xLjM4LS4wNS0yLjc3LS4wOC00LjE1LS4xNCwwLS4yOSwwLS40MywwdjE4LjQyYy0uNTctLjUyLTEuMDItLjkyLTEuNDctMS4zMy0uMDcuMDgtLjE1LjE2LS4yMi4yNC4yNi40Ny41My45My43OSwxLjQtLjI4LS4yMi0uNTYtLjQ0LS45NS0uNzQtLjQxLjY0LTEuMDMsMS4xOS0xLjExLDEuODEtLjI1LDEuODctMS40OCwyLjg2LTIuOTIsMy43My0yLjcsMS42Mi01LjcxLDIuNDMtOC43NiwyLjkzLTMuNDEuNTYtNi44NywxLTEwLjMzLDEuMTItNC4xOS4xNS04LjQtLjA5LTEyLjYtLjE2LTIuOTUtLjA1LTUuNzktMS40OS04Ljg0LS44MS4zNy0uMTMuNzUtLjI1LDEuMjQtLjQyLS41Ny0uMjMtMS4wMi0uNDctMS41LS41OC0uNjYtLjE2LTEuNzEsMC0xLjkzLS4zNi0uNjktMS4xNS0xLjY4LS41OS0yLjUzLS43Ny0uMDUsMC0uMDgtLjA3LS4xMS0uMS4yNC0uMTEuNDktLjIxLDEuMDQtLjQ1LS45MS0uMzMtMS41My0uNTUtMi4xNC0uNzcuMTYtLjA1LjM1LS4xMi43NS0uMjYtLjg1LS40Ny0xLjUxLS44NC0yLjE4LTEuMjEuMDItLjA0LjA0LS4wNy4wNi0uMTEuMzkuMTQuNzcuMjgsMS40NC41Mi0uMzYtLjctLjQ5LTEuMjktLjg2LTEuNTktLjg3LS43Mi0xLjg2LTEuMzEtMi44Ni0yLS41OC40OS0xLjIxLDEuMDMtMS44NSwxLjU3LjQ3LS41Mi45Ny0xLjAyLDEuMzgtMS41OC4xNS0uMjEuMjMtLjY1LjExLS44My0uMTEtLjE2LS42MS0uMjYtLjgtLjE1LTIuOTYsMS42OC01Ljk2LDMuMy04LjgxLDUuMTUtMiwxLjMtMy44OCwyLjg2LTUuMDksNC45OC0uNDcuODItLjY5LDEuODEtLjgzLDIuNzUtLjE0Ljg3LS4yOSwxLjg5LDEuMDMsMi4zNS4wNC0uODEuMDgtMS42LjExLTIuMzguMTQuMTkuMTUuMzcuMTQuNTUtLjA1LDIuMzctLjA2LDIuNDIsMi4xNywzLjE0LDEuNzEuNTYsMy40Ny45Nyw1LjQyLDEuNTEtLjM5LTMuMDEsMS4xMS00LjczLDMuMzctNS45OC0uMjMuMjMtLjQ0LjQ4LS42OC43LTEuMzYsMS4yLTIuNTksMi40MS0yLjM3LDQuNS4wNy43Mi4yOS45MS44OSwxLjAyLDMuNTQuNjUsNy4wOCwxLjMzLDEwLjYzLDEuOTgsMS43NS4zMiwzLjUuNiw1LjI3LjkuMDUtLjQ1LjA5LS43OC4xMS0uOTkuMTYuMzUuMjYuODYuNTcsMS4xMS4yMy4xOS43My4wNCwxLjMyLjA0LjM2LjQyLDUuMTUsMS4zNiw3LjEzLDEuMTctLjcyLTMuNzMuODgtNi44MSwyLjk3LTkuODktLjYzLS4xMi0xLjExLS4yMS0xLjU5LS4zLTYuMDEtMS4wNC0xMi4wMi0yLjA5LTE4LjAzLTMuMDgtLjU4LS4xLTEuMjkuMDQtMS44MS4zMS0xLjUyLjc4LTIuOTcsMS42OS00LjQ0LDIuNTZabTUwLjY3LTQ2LjIzYzEuMi0uNC42My0xLjM1LjU1LTIuMDUtLjI2LTIuMDktLjYzLTQuMTYtLjk2LTYuMjMuMS0uMDIuMjEtLjA0LjMxLS4wNi40LDIuNDkuODEsNC45OCwxLjIxLDcuNDYuMTYtLjAzLjMyLS4wNi40OC0uMDgtLjQzLTIuNjYtLjg1LTUuMzEtMS4yOC03Ljk3LjExLS4wMS4yMi0uMDMuMzMtLjA0LjQsMi40My44MSw0Ljg1LDEuMjEsNy4yOC4wOS0uMDIuMTgtLjAzLjI3LS4wNS0uNC0yLjYzLS44MS01LjI1LTEuMjEtNy44OC4xLS4wMS4yLS4wMy4zLS4wNC4xOS45NC4zNywxLjg5LjYsMy4wNy4xNC0yLjg1LS4zOC01LjMzLTEuMTgtNS45OC42MSwxLjQ5LjM5LDIuMzEtLjg2LDMuMzQtMS41MiwxLjI1LTMuMzIsMS45NS01LjE3LDIuNDUtNi4wMSwxLjYzLTEyLjE0LDIuMDgtMTguMzUsMS44LTEuMTMtLjA1LTIuMjYtLjAxLTMuMzMtLjAxdjguNzljMy4zMSwwLDYuNTQuMDEsOS43Ni0uMDEuNDksMCwxLjAzLjA1Ljk5LS43Ny0uMTItMi4yOS0uMTgtNC41OC0uMjctNi44Ny0uMDEtLjIxLS4xLS40Mi0uMTUtLjYzLS4wOCwwLS4xNi4wMS0uMjMuMDF2Ny40MmgtLjE1Yy0uMTEtMi4zOC0uMjItNC43NS0uMzMtNy4xMy0uMS4wMS0uMi4wMS0uMzEuMDJ2NS42OGgtLjE0Yy0uMDgtMS44OC0uMTctMy43Ni0uMjUtNS42NGgtLjI2djQuMjRoLS4yMWMtLjA5LTEuNDMtLjE3LTIuODYtLjI2LTQuMjktLjA5LDAtLjE4LDAtLjI3LjAxdjIuNzdjLS4xMSwwLS4yMy4wMS0uMzQuMDF2LTIuNzhoLS4yN2MtLjA1LjMyLS4xLjY0LS4xNS45Mi0uMy0uNDctLjU3LS45LS44NS0xLjM1Ljc5LDAsMS43LjAyLDIuNjEtLjAxLjkxLS4wMywxLjgxLS4xLDIuNzItLjE1LDAsLjA1LjAxLjEuMDEuMTQtLjI4LjA1LS41Ni4xMS0uODIuMTYtLjI3LDIuNjMuMTMsNy42LjYyLDguMDd2LTdzLjA5LS4wMS4xNC0uMDJjLjExLDIuMzIuMjMsNC42My4zNCw2Ljk1LjA5LS4wMS4xOC0uMDEuMjctLjAydi00Ljgxcy4wOS0uMDEuMTMtLjAxYy4xMSwxLjYuMjMsMy4yMS4zNCw0LjgxLjEzLS4wMS4yNS0uMDIuMzgtLjAzdi0zLjc4Yy42MywxLjIzLS4wOCwyLjYuNiwzLjY3LjEtLjAxLjE5LS4wMi4yOS0uMDN2LTIuMjdoLjE2Yy4wNy43NS4xNSwxLjUxLjIyLDIuMjYuMDktLjAxLjE4LS4wMS4yNy0uMDIuMDUtLjU5LjA5LTEuMTguMTQtMS43Ny4wNy4wMS4xMy4wMS4yLjAyLjAzLjU1LjA2LDEuMS4xLDEuNzIsMy40LS4yOSw2LjYzLTEuMDQsOS43Ny0yLjE1LjgxLS4yOSwxLjU1LS43NywyLjMyLTEuMTdsLS4wNC4wM1pNNi44NiwxMjguMTljOC41OCwyLjUxLDE3LjQxLDMuNzgsMjYuMiw1LjIyLS4wMi4xMi0uMDUuMjUtLjA3LjM3LTcuODgtMS40Ni0xNS43NS0yLjkxLTIzLjUxLTQuMzUuMDkuMDMuMy4xNC41My4xOSw2LjM3LDEuMjcsMTIuNzMsMi42NSwxOS4xMiwzLjc4LDQuODEuODUsOS42NiwxLjQ2LDE0LjUxLDIuMDMsMy4yNC4zOCw2LjUxLjM0LDkuNzMtLjM3LDUuNTMtMS4yMiwxMC43My0zLjM5LDE1Ljg3LTUuNjYsNS45MS0yLjYxLDExLjcyLTUuNDYsMTcuNTQtOC4yNSwxLjcxLS44MiwzLjMzLTEuODIsNC45OS0yLjczLS4wNS0uMDktLjA5LS4xOC0uMTQtLjI3LS45Ni40Ny0xLjkxLjk0LTIuODcsMS40MS43Mi0uNiwxLjUtMS4wNywyLjMyLTEuNDUuODUtLjM5LDEuODgtLjUxLDIuNTYtMS4wOCwxLjEyLS45NCwyLjEtMi4wOCwyLjk5LTMuMjYuNDgtLjY0LjY1LTEuNTMuOTYtMi4zLS4wOS0uMDQtLjE4LS4wOC0uMjYtLjEyLTEuMTkuODUtMi4zMSwxLjg2LTMuNTksMi41My00LjQ1LDIuMzItOC45LDQuNjUtMTMuNDYsNi43My01LjI0LDIuMzgtMTAuNTgsNC41My0xNS45LDYuNzMtNC42NiwxLjkzLTkuNSwzLjIyLTE0LjU1LDMuNTEtNC41Ny4yNi05LjEtLjIzLTEzLjYxLS44OC01LjItLjc1LTEwLjM4LTEuNjUtMTUuNTUtMi41OC00LjExLS43NC04LjIyLTEuNTQtMTIuMjktMi40Ny0yLjUtLjU3LTQuOTQtMS40My03LjM1LTIuMTQuMTksMS41MS4xMywxLjYsMS4zMSwyLjQ4LDEuNDUsMS4wOCwzLjAyLDEuOTksNC41NSwyLjk3LTEtLjQxLTEuOTktLjgxLTIuOTktMS4yMi0uMDQuMDctLjA3LjE0LS4xMS4yMSwxLjIyLjYsMi40NCwxLjIsMy42NiwxLjguMDQtLjA3LjA3LS4xNS4xMS0uMjItLjI0LS4yLS40Ny0uNC0uNy0uNjFaTTc0LjIyLDE2LjUzbC0uMDItLjAyYy0xLjM5Ljc1LTIuNzksMS41MS00LjE0LDIuMjQsMS4yOSwxLjM2LDIuNDYuNTMsMy42My0uMDIsMS4yNS0uNTksMi40OC0xLjIxLDMuNzMtMS43OS40My0uMi44Mi0uNTMsMS4zOC0uMDkuMTUuMTIsMS4wMy0uMjcsMS4wOC0uNTIuMTUtLjguNzYtLjk3LDEuMzEtMS4yNiwyLjE3LTEuMTYsNC4zOS0yLjI0LDYuNDgtMy41MywxLjUyLS45MywxLjM0LTMuMzEtLjMxLTMuOTctMS45OC0uOC00LjA4LTEuMzQtNi4xNC0xLjkyLTEuMy0uMzctMi42NC0uNi00LjEtLjkzLjMxLS4yOS40Ny0uNDQuODEtLjc2LTQuNDMtLjc2LTguNjYtMS40OS0xMi45LTIuMjEtLjAyLjEtLjA0LjItLjA2LjMuNDUuMTEuOS4yMSwxLjM2LjMyLS40Ni4wNy0uOTYtLjA2LTEuMzQuMS0uNS4yMS0uODcuNzMtMS4zNi45Ni0yLjM1LDEuMS00LjczLDIuMTUtNy4xLDMuMi0xLjA2LjQ3LTIuMTQuOTMtMy4yMSwxLjM5LS4wMi0uMDUtLjA0LS4xMS0uMDctLjE2LDIuNjMtMS4yNSw1LjI1LTIuNDksNy44OC0zLjc0LS4wMy0uMDYtLjA2LS4xMy0uMDktLjE5LTEuMTkuNDgtMi4zOS45Ni0zLjU4LDEuNDMtLjA0LS4xMS0uMDktLjIzLS4xMy0uMzQsMi40NC0uOSw0Ljg5LTEuOCw3LjMzLTIuNjkuMDEtLjA5LjAyLS4xNy4wMy0uMjYtLjQyLDAtLjg0LS4wMy0xLjI2LDAtLjM2LjAzLS43Mi4yNS0xLjA2LjItMi42LS4zOC01LjE4LS44NC03Ljc4LTEuMjEtMy43OC0uNTMtNy41Ni0uMzQtMTEuMjMuNjUtNS45NCwxLjYtMTEuNTMsNC4xNy0xNy4xLDYuNzMtMy40MiwxLjU3LTYuNjYsMy41NC0xMC4wNSw1LjE5LTEuNDcuNzEtMS42MywxLjgtMS41NywzLjE1LjA2LDEuMTcsMS4wMywxLjI5LDEuODEsMS41OSw0LjA4LDEuNTYsOC4zNiwyLjMzLDEyLjYyLDMuMi4zMy4wNy41Ny40OS45LjU5Ljc4LjI0LDEuNzIuNzIsMi4zNC40Ny41NC0uMjIsMS4wMi0uMzksMS41NS0uMyw1LjE0LjkxLDEwLjI5LDEuNjEsMTUuNTIsMS43OCwzLjU4LjEyLDcuMTQuMDcsMTAuNjYtLjYxLjMyLS4wNi41NS0uNTEuODctLjcyLjI5LS4xOS42NC0uMzkuOTctLjQuNzMtLjAxLDEuNDcuMTUsMi4yLjE0LDIuMzItLjA1LDQuMzUtMS4xMSw2LjQ2LTEuOTEuMi0uMDcuMzMtLjMyLjQ5LS40OS0uMDQtLjA1LS4wOC0uMTEtLjEyLS4xNi0xLjk1LjY5LTMuODksMS4zNy01Ljg0LDIuMDYtLjAyLS4wNi0uMDUtLjEzLS4wNy0uMTksMS44Mi0uNjksMy42NC0xLjM5LDUuNjMtMi4xNS0uNjctLjU0LTEuMy0xLjAyLS4zNi0xLjQ4LDEuMjgtLjYsMi42My0xLjEyLDMuOTUtMS42OFptOC4xNCwyOC40aC0uMDJjMS4yOSwxLjM0LDEuNjYsMy4xLDEuNzgsNC44Mi4zLDQuNC40NCw4LjgyLjYzLDEzLjIzLjIxLDQuNzUuNDEsOS40OS42MiwxNC4yNC4wMS4xNi4wNy4zMi4xMS40OC44NC0uMjQuNDMuNDYuNDQuNjguMSwyLjU0LjE0LDUuMDkuMjMsNy42My4wNCwxLjEzLjE0LDIuMjcuMjIsMy40MS45LS4xNCwxLjI4LS41NSwxLjA2LTEuNDItLjA4LS4zMS0uMDEtLjY1LS4wMS0uOThoLjJjLjA1LjU3LjA5LDEuMTQuMTQsMS43Mi4xLDAsLjIxLDAsLjMxLDB2LTQuMzhzLjA2LDAsLjEsMGMuMSwxLjM1LjE5LDIuNy4zLDQuMTkuNC0uMTcuNjUtLjI0Ljg3LS4zNywxLjA5LS42NSwyLjE4LTEuMzIsMy4yNi0xLjk5LDEuODctMS4xNSwxLjg4LTEuMjQsMS42MS0zLjMzLS4xLS43Ni0uMDItMS41NC0uMDItMi4zMWguMjFjLjA1LDEuMTIuMTEsMi4yNC4xNiwzLjM2LjEyLDAsLjI1LDAsLjM3LS4wMiwwLS4zNS4wMS0uNywwLTEuMDUtLjItNC42OC0uMzktOS4zNy0uNjEtMTQuMDUtLjMxLTYuMzYtLjY2LTEyLjcyLS45Ny0xOS4wOC0uMjQtNC44NS0uNDMtOS42OS0uNjgtMTQuNTQtLjM1LTYuOS0uNzMtMTMuOC0xLjEyLTIwLjctLjA2LTEuMDctLjI1LTIuMTItLjQxLTMuMzgtMy4xOSwyLjg3LTYuODQsNC4zNC0xMC4yNyw2LjE4LTEuNDUuNzgtMy42MSwxLjA4LTMuMDUsMy42MS4wMS4wMy0uMDMuMDctLjAyLjA1LS4xMy0uNTgtLjI3LTEuMi0uNDItMS44Ni0uNDcuMTQtLjQ4Ljk4LTEuMDQuNDMtLjE4LjI0LS40OC40Ny0uNTEuNzItLjA3LjYyLS4wMiwxLjI2LS4wMiwxLjg5aC0uMDdsLS4yNy0yLjEzYy0uMTIuMDEtLjI1LjAyLS4zNy4wM3YyLjUzaC0uMTVjLS4xLS43My0uMi0xLjQ2LS4yOS0yLjE5LS4xNS0uMDEtLjMtLjAyLS40NC0uMDItLjA5LjUzLS4xOCwxLjA3LS4yOCwxLjcxLS4wOS0uNDktLjE2LS44Ni0uMjMtMS4yMy0uMTMtLjAyLS4yNS0uMDMtLjM4LS4wNS0uMTQuNS0uMjgsMS4wMS0uNCwxLjQ1LS4wNy0uMjgtLjE2LS42My0uMjUtLjk5aC0uMjRjLS4xLjMzLS4xOS42NS0uMjkuOTgtLjUtLjU2LS41MS0uNTgtMS4zOS0uMTktNi4xNiwyLjc4LTEyLjYzLDQuMDEtMTkuMzYsMy44NC0yLjU2LS4wNi01LjEyLS4yNC03LjY3LS40My0uNy0uMDUtMSwuMTEtMS4wNC44MnMtLjE1LDEuNDEtLjIsMi4xMWMtLjQ2LDYuNDUtLjkzLDEyLjg5LTEuMzYsMTkuMzQtLjA5LDEuMzYtLjAxLDIuNzQtLjAxLDQuMTgsNC4zOC41NSw4Ljc2Ljc1LDEzLjI4LjM4di02Ljg4Yy4yNCwxLjc1LjI0LDMuNDkuMjQsNS4yNHEwLDEuNjEsMS42LDEuMzlzLjEtLjA3LjItLjE1di02LjQ2aC4zMWMwLDEuODguMDEsMy43Ni0uMDEsNS42NC0uMDEuNjkuMTYsMS4wMS45NC44MiwzLjAxLS43Miw2LjEtMS4xNyw5LjAxLTIuMTgsNC4xNy0xLjQ0LDguMjEtMy4yNSwxMi4yOS00Ljk0LDEuMTgtLjUxLDIuMy0uNjksMy4zOC4yWm0tNDcuMzMsNDcuMTVjLjA4LjA5LjE3LjE5LjI1LjI4LjM1LS4xMS43LS4yMiwxLjA1LS4zMi0uMjUuMjgtLjU3LjQtLjgzLjYxLS4yMi4xOC0uMzUuNDYtLjUyLjcuMTkuMTMuMzguMjYuNDIuMjgtLjIuNDEtLjUxLjc4LS41NiwxLjE4LS4yMywxLjc0LS40OCwzLjQ4LS41NCw1LjIyLS4wOSwyLjU1LDAsNS4xMS0uMDUsNy42Ny0uMDEuMzYtLjI1LjkzLS41MywxLjA0LTIuMDEuNzUtNC4wMiwxLjU3LTYuMSwyLjA1LTEuNTkuMzctMy4yOC4yNy01LjIxLjQsMSwuNDUsMS43OC45MSwyLjYzLDEuMTUuODEuMjMsMS42OC4zMywyLjUyLjMxLjg1LS4wMiwxLjY5LS4yNSwyLjU0LS4zOC4wMS4wNi4wMi4xMi4wMy4xOC0uNzYuMjItMS41Mi40NC0yLjI4LjY2LjA0LjEzLjA4LjI1LjEyLjM4LDEuOTItLjYsMy44My0xLjIsNS43NS0xLjguMDIuMDUuMDQuMTEuMDYuMTYtMS40MS41NC0yLjgxLDEuMDktNC4yMiwxLjYzbC4wOS4yNGMyLjQ2LS4zMiw0LjYyLTEuNTUsNi44OS0yLjQ0LjAzLjA4LjA2LjE2LjA5LjIzLTEuNzEuNzUtMy40MiwxLjUtNS4xMiwyLjI1LjAzLjA5LjA2LjE4LjA4LjI3LDIuMDUtLjI5LDMuODEtMS41Myw1LjgyLTIuMDItMS40Ny42OS0yLjk1LDEuMzctNC40MiwyLjA2LjA1LjEyLjEuMjQuMTUuMzYsMS4zNS0uNTMsMi43MS0xLjA1LDQuMDYtMS41OC4wMi4wNC4wMy4wOS4wNS4xMy0uODUuNDMtMS43Ljg1LTIuNjksMS4zNSwxLjU5LjU0LDIuNi0uNjYsNC4wNy0uODgtLjczLjQyLTEuMjUuNzItMS43NiwxLjAyLjA2LjExLjExLjIzLjE3LjM0LDEuMTEtLjQ1LDIuMjEtLjksMy4zMi0xLjM1LjAyLjA1LjA0LjA5LjA1LjE0LS41OC4zMS0xLjE2LjYyLTEuNzUuOTMuMDQuMS4wOC4yLjEyLjMsMS4wMi0uMzgsMi4wNC0uNzYsMy4wNi0xLjE0LjAxLjAzLjAyLjA2LjAzLjA5LS41Mi4yOC0xLjA1LjU3LTEuNTcuODUuMDMuMTIuMDYuMjMuMDkuMzQsMy4wMi0uMTEsNi4wNS0uMTYsOS4wNy0uMzMsNS4wMi0uMjksOS45NC0xLjA4LDE0LjctMi44MiwyLjY3LS45Nyw0Ljc5LTIuNTMsNi4xMS01LjA3LjE5LS4zNy4yNi0uOC4zOC0xLjItLjA3LS4wMy0uMTMtLjA2LS4yLS4wOS0uNywxLjAyLTEuNCwyLjA0LTIuMSwzLjA2LS4xMy0uMDUtLjI1LS4xMS0uMzgtLjE2LDMuNTYtMy43LDQuMDYtOC4xNiwzLjY1LTEyLjg1LS4xMi0uMDgtLjI0LS4xNi0uMzYtLjI1LS4yMS4yOS0uNDIuNTktLjYzLjg4LS4wMy0uMDMtLjA2LS4wNS0uMDgtLjA4LjM2LS41Mi43Mi0xLjAzLDEuMDctMS41NS0uMDYtLjA0LS4xMi0uMDktLjE5LS4xMy0uNDQuNTQtLjg5LDEuMDgtMS4zMywxLjYxLS4wNS0uMDMtLjA5LS4wNi0uMTQtLjA5LjU1LS44NiwxLjA5LTEuNzIsMS42NC0yLjU5LS4wOS0uMDYtLjE4LS4xMi0uMjgtLjE4LS41Mi42Ny0xLjA0LDEuMzMtMS41NiwyLS4wNC0uMDQtLjA4LS4wOC0uMTItLjExLjYzLTEuMDEsMS4yNS0yLjAyLDEuODgtMy4wMy0uMTEtLjA3LS4yMi0uMTUtLjMzLS4yMi0uNDQuNTItLjg4LDEuMDUtMS4zMywxLjU3LS4wNC0uMDQtLjA5LS4wNy0uMTMtLjExLjUyLS43OSwxLjA0LTEuNTksMS41Ni0yLjM4LS4wOS0uMDYtLjE5LS4xMi0uMjgtLjE3LTEuMjQsMS41LTIuNDksMy4wMS0zLjczLDQuNTEtLjA1LS4wNC0uMS0uMDgtLjE1LS4xMiwxLjMtMS42OSwyLjYtMy4zOSwzLjktNS4wOC0uMDctLjA1LS4xNC0uMS0uMi0uMTUtLjY0LjgzLTEuMjgsMS42NS0xLjkyLDIuNDguMzQtLjg2Ljc2LTEuNjcsMS4zNC0yLjM0LjY3LS43Ny42Mi0xLjUyLjM3LTIuNC0uNy0yLjUtMS4zOC01LjAxLTIuMDMtNy41Mi0uMzMtMS4yNS0uNTktMi41MS0uOTItMy45Mi0uNy43Ny0xLjI3LDEuNC0xLjg0LDIuMDMuMzEtMS4xNywxLjY2LTEuNzUsMS42Ny0zLjAyLS4wOS0uMDUtLjE3LS4xLS4yNi0uMTUtMS4wNSwxLjI2LTIuMSwyLjUyLTMuMTYsMy43OC44NC0xLjQ0LDEuODYtMi43MiwyLjg3LTQuMDEuMTUtLjE5LjMzLS40OC4yOS0uNjgtLjE4LTEuMDYtLjQyLTIuMTEtLjY2LTMuMjgtMS4wNCwxLjg4LTIuNzQsMi43Ni00LjUyLDMuMzQtMi41Mi44Mi01LjEsMS41LTcuNywyLTQuNjUuODktOS4zNSwxLjE3LTE0LjA5Ljg1LTEuMDQtLjA3LTIuMDktLjA4LTMuMTMtLjA3LS4yLDAtLjQxLjIzLS42MS4zNi4xOS4xOC4zNi4zOC41OC41Mi4xMy4wOC4zMi4wNS42Mi4wOC0uNDguMDYtLjgzLjEtMS4yNS4xNS0uMjEsMi40Ny0uNDIsNC45LS42NCw3LjQ5LDEuMDMtLjM5LDEuODYtLjcsMi42OC0xLjAxLjAxLjAzLjAzLjA2LjA0LjA5LS45NC40Ni0xLjg4LjkyLTIuODIsMS4zOC4wNS4xMi4xLjIzLjE1LjM1LjYzLS4yMSwxLjI1LS40MywxLjk1LS42Ny0uNTUuODQtMS45OC40OC0yLjE0LDEuODUuNjQtLjI1LDEuMTYtLjQ0LDEuODEtLjY5LS41NS44Mi0xLjg1LjU1LTEuOTksMS44NS42Ny0uMjMsMS4xNi0uNCwxLjctLjU4LS40NS43Ny0xLjg5LjM3LTEuNzEsMS43MmguNTJjLS4yNi4zNS0uNTUuNzMtLjg1LDEuMTIuMDcuMDYuMTUuMTIuMjIuMTcuMjQtLjA0LjQ5LS4wNy42Ni0uMS0uMzMuMzQtLjY4LjcxLTEuMDMsMS4wN1ptLTEzLjQ3LTE4LjM3Yy0uMDkuNTItLjEuNzQtLjE2Ljk1LS45MiwzLjY2LTIuMDYsNy4yOS0yLjcxLDExLS45NCw1LjM3LTEuMzYsMTAuODMtMi4zMywxNi4xOS0uMzgsMi4wOC4zOCwzLjUzLDEuMjYsNS4xMS4wNy4xMy4xNC4yNi4yMi4zOS0uMDQuMDMtLjA5LjA2LS4xMy4wOS0uMy0uMzgtLjYtLjc1LS45LTEuMTMuMTQuNi4zOSwxLjEzLjc4LDEuNTIsMi43MiwyLjY4LDYuMDgsMy4yMyw5LjY0LDIuNTcsMS44NS0uMzQsMy42Mi0xLjExLDUuNDMtMS42NS45NS0uMjgsMS4yNy0uNzgsMS4yNS0xLjgxLS4wNy0yLjc2LS4xNS01LjUzLjA2LTguMjguNDItNS4zLjk0LTEwLjYsMS42LTE1Ljg4LjU3LTQuNi4zOS05LjIyLjQ5LTEzLjgyLjAyLS44My0uMzgtMS4xMy0xLjE0LS44My0xLjQuNTYtMi44OSwxLjAzLTQuMTMsMS44NS0xLjUzLDEuMDItMy4yMSwxLjEzLTQuNzYuNzctMS4zMy0uMzEtMS45Mi4xMy0yLjU0LDEuMDMtLjAxLjAxLS4wOS0uMDMtLjIyLS4wNy4zOS0uNTUuNzctMS4wOSwxLjE1LTEuNjItLjEtLjA3LS4yLS4xNS0uMy0uMjItLjU2Ljc0LTEuMTMsMS40OC0xLjc3LDIuMzIuMDQtLjMxLjA2LS40Ny4xLS44LS42MywxLjA3LTEuMTcsMi0xLjcxLDIuOTQuMDguMDUuMTYuMDkuMjMuMTQuMTQtLjE3LjI3LS4zNC41OS0uNzZabS0xLjE0LTUyLjA0Yy0uMTQtLjAxLS4yOC0uMDEtLjQyLS4wMi0uMTgsMS40Mi0uMzksMi44NS0uNTUsNC4yNy0uNzgsNi45OS0xLjUzLDEzLjk4LTIuMzQsMjAuOTYtLjA5Ljc4LjI0Ljk0LjgzLDEuMDUsNi4xMywxLjEyLDEyLjI1LDIuMjUsMTguMzksMy4zNSwxLjM5LjI1LDIuODEuMzYsNC41LjU2LS4zLS41MS0uNDctLjc1LS41OS0xLjAzLS4xMi0uMjctLjM0LS42OS0uMjQtLjgyLjktMS4xMi44Mi0yLjQ2LjkxLTMuNzUuMzQtNC45My42My05Ljg2Ljk3LTE0Ljc5LjE0LTIuMDYuMzctNC4xMS41Ni02LjE1LTIuNTEtLjM1LTQuODUtLjYzLTcuMTgtMS4wMS0zLjM5LS41Ni02Ljc2LTEuMjEtMTAuMTUtMS43OS0uMzQtLjA2LS43Mi4xLTEuMDEuMTQtLjUxLS4yMy0xLjAzLS40Ni0xLjYtLjcxLS4xNy40NS0uMy43OC0uNDcsMS4yLS4wNS0uNS0uMDgtLjg4LS4xNC0xLjQ3LS4yNy4zNC0uMzcuNDYtLjQ2LjU4LS4xMi0uMTgtLjI2LS4zOS0uMzktLjYtLjA5LjAxLS4xOC4wMi0uMjcuMDMtLjE0LjgzLS4yOSwxLjY2LS40MywyLjUtLjAzLS4wMS0uMDctLjAyLS4xLS4wMi4wNi0uODMuMTItMS42NS4xOC0yLjQ4Wm03NC41OCw2My4wOWMtLjcyLjU3LTEuMzUsMS4xOC0yLjA4LDEuNjItMS42MywxLTMuMzIsMS45LTQuOTcsMi44Ny0uOC40Ny0xLjc1Ljg1LTEuNjksMi4wOC0uMDctLjI1LS4xNC0uNTEtLjItLjc2LS4xLDAtLjIuMDItLjMuMDMuMTksNS40LjM4LDEwLjc5LjU3LDE2LjE5LjA0LDAsLjA5LDAsLjEzLjAyLjA2LS40Ny4xMy0uOTQuMTktMS40Mi4xLjAyLjE5LjAzLjI5LjA1LS4yOCwyLjI3LS41NSw0LjU1LS44Myw2LjgyLS4xLDAtLjE5LS4wMi0uMjktLjAzLjE0LTEuMDIuMjgtMi4wNS40Mi0zLjA3LS4wNSwwLS4wOSwwLS4xNCwwLS40MSwxLjMzLS44MSwyLjY1LTEuMjcsNC4xNC45MS0uNDYsMS43LS44MSwyLjQ2LTEuMjQsMi43Mi0xLjU0LDUuNDUtMy4wOCw4LjE0LTQuNjguOTMtLjU2LDEuNjMtMS4zNC45NC0yLjU3LS4wOS0uMTUtLjA2LS4zNy0uMDgtLjU2LjA0LDAsLjA3LS4wMi4xMS0uMDMuMTguNDEuMzcuODIuNTUsMS4yMy0yLjE2LTYuNzUtMS4yNC0xMy43Mi0xLjk1LTIwLjY4Wk0xNi41OCw0Ny43OWMuMS0uNjMuMTYtLjk1LjE5LTEuMjguMjctMi44MS40OS01LjYzLjgyLTguNDQuNjItNS4yOSwxLjI4LTEwLjU3LDEuOTgtMTUuODUuMDktLjY5LS4wOS0uOTUtLjcyLTEuMTctMi4wMi0uNzEtNC4wMi0xLjQ4LTYuMDctMi4yMy0uMDMuMTEtLjEzLjM2LS4xNS42Mi0uMzcsMy40OC0uNzksNi45Ni0xLjA3LDEwLjQ1LS4zOSw0Ljc2LS42Niw5LjU0LTEuMDQsMTQuMy0uMDUuNTguMDguOTIuNTIsMS4xMiwxLjc4LjgyLDMuNTksMS42MSw1LjU0LDIuNDhabTM4LjEzLDEyLjk2YzEuNTMtLjA3LDEuOTgsMS4zMywyLjk1LDEuOTgtLjI1LTEuNzMtMS42OC0yLjY4LTMuMzEtMi4yLTMuOCwxLjEyLTcuNzEsMS41My0xMS42NSwxLjU4LTIuMzUuMDMtNC43Mi0uMTMtNy4wNS0uNDItMS4yMS0uMTUtMi4xNi0uMDktMi45Ni45LjMxLS4zOS42Mi0uNzcuOTUtMS4yLTEuMjUtLjM1LTEuNTguNzQtMi4xOSwxLjMtLjM0LjMyLS43NS43OS0uMTcsMS4yOC42OC41NywxLjY1LjYxLDEuOTcuMjcuMzUuMjQuNjQuNTYuOTYuNjEuMjUuMDQuNTUtLjI2LjYxLS4yOS4zNy4yNC42Ni41OCwxLC42Myw1LjQxLjc3LDEwLjgyLjcyLDE2LjE5LS4yNSwxLjYtLjI5LDMuMTYtLjgsNS4wMS0xLjI5LS44OC0xLjEyLTEuNTYtMS45Ny0yLjMxLTIuOVptMy4xMy0yLjA1Yy4wMS4xMi4wMS4yNC4wMi4zNi4xMy4xLjI3LjE5LjQuMjksMS45NCwxLjQ3LDEuODksMi45OS0uMjcsNC4xMi0xLjI3LjY2LTIuNjcsMS4xNC00LjA2LDEuNTEtNC43LDEuMjMtOS41MSwxLjMyLTE0LjMzLDEuMDctMy4yNy0uMTctNi41My0uNTEtOS41MS0yLjA2LTIuMDItMS4wNS0yLjI1LTEuOTctLjk3LTMuODItMS42Ni0xLjMxLTEuNzEtMS4zMi0zLjQxLS4yNS0uMzQuMjEtLjY3LjQ2LS45Ni43My0uOTMuODYtMS4xMSwxLjU1LS42NiwyLjM4LjUyLjkzLDIuMzUsMi4wOSwzLjA2LDEuODgsMS42Ni0uNDksMy4xNi4xMiw0LjY1LjY5LDEuMDkuNDIsMi4xMSwxLjE5LDMuMjMsMS4zNSwyLjEyLjMyLDQuMjguMzcsNi40Mi40Myw1LjYyLjE3LDExLjE3LS4zNiwxNi42Mi0xLjgyLDEuOS0uNTEsMy43Ny0xLjE1LDUuMi0yLjU2LjQ1LS40NC44MS0xLjIxLjc5LTEuODItLjAzLTEuMDItMi41Ni0yLjc5LTMuNi0yLjcxLS44OS4wNS0xLjc2LjE0LTIuNjIuMjNabTEwLjg3LDUxLjUyYy0uMDYtLjA2LS4xMS0uMTItLjE3LS4xOC0uNS4zMS0uOTkuNjYtMS41MS45NC0yLjc4LDEuNDgtNS43NiwyLjM0LTguODQsMy00LjY0Ljk5LTkuMzMsMS4zLTE0LjAzLDEuNDEtMi43NS4wNy01LjUxLS4xNS04LjI2LS4zNS01LjE2LS4zNi0xMC4xNi0xLjM0LTE0Ljc4LTMuODIsMy40NiwzLjIzLDcuNzIsNC4zNSwxMi4zMiw0LjZoLS40NGMuNTkuMjEsMS4yMi4yMSwxLjc5LjQsMS43Ny41NywzLjU5LS4yLDUuNC4yNywxLjE3LjMsMi40Ny4xNCwzLjcxLjA5LDEuMDYtLjA0LDIuMTEtLjI2LDMuMTctLjMyLDItLjExLDQuMDIsMCw1Ljk5LS4yOSwzLjExLS40NSw2LjItMS4wOCw5LjI4LTEuNzQsMi4yNC0uNDcsNC4xMS0xLjY4LDUuNzEtMy4zLjIyLS4yMi40My0uNDcuNjYtLjcxWm0tMzMuOTgtNDIuNjJjLS43Ni0uMzgtMS40LS43OC0yLjA4LTEuMDMtMS40MS0uNTEtMi44My0uOTktNC4yOC0xLjM5LS4zLS4wOC0uOS4wOS0xLjAzLjMzLS42OSwxLjI1LTEuMywyLjU0LTEuODksMy44NC0uMjYuNTcuMDMuODguNjIuOTgsMS41My4yNiwyLjk2LjE3LDQuMzctLjY0LDEuMzQtLjc5LDIuOC0xLjM4LDQuMjktMi4wOVptNi41Niw1NS4yM2MuMDIuMTQuMDQuMjkuMDcuNDMuODEuMTUsMS42Mi40MiwyLjQzLjQzLDEuNTEuMDIsMi45NS0uMzIsNC4xMS0xLjM3Ljg5LS44Ljg2LTEuNDUtLjA0LTIuMDQtMS42LTEuMDUtNS4zOC0uODUtNi44Mi4zNi0uODEuNjgtLjgzLDEuMzEtLjEyLDIuMDIsMS43My0uODEsMy40NC0xLjYxLDUuMTUtMi40MS4wNC4wNy4wNy4xNS4xMS4yMi0xLjYzLjc5LTMuMjYsMS41OC00Ljg5LDIuMzZabTIzLjI1LTk5LjQzYy0uMDMtLjExLS4wNS0uMjItLjA4LS4zMy0uMzUuMDgtLjY5LjE3LTEuMDQuMjMtMi42OC40My01LjM2LDEuMDctOC4wNiwxLjI1LTYuMzguNDMtMTIuNy0uMjktMTktMS4yNi0xLjEzLS4xNy0yLjI1LS4zNy0zLjM3LS41Ni0uMDIuMTEtLjA0LjIyLS4wNi4zMywxLjQ2LjI1LDIuOTIuNTQsNC40LjczLDMuMy40MSw2LjYxLjgyLDkuOTIsMS4xNCwxLjg0LjE4LDMuNy4yNyw1LjU0LjIyLDIuMDgtLjA2LDQuMTctLjIxLDYuMjMtLjUyLDEuODYtLjI4LDMuNjgtLjgxLDUuNTItMS4yM1pNMjMuMyw2MS41NGMtLjA5LS4wMi0uMTgtLjA0LS4yNi0uMDUtLjIxLDIuNi0uNDEsNS4xOS0uNjIsNy43OS4xLjAxLjIuMDIuMy4wMy4xMy0xLjguMjctMy41OS40LTUuMzkuMS4wMS4yLjAyLjMuMDItLjA5LDEuNTItLjE3LDMuMDQtLjI2LDQuNTYuMTIuMDEuMjMuMDIuMzUuMDMuMS0xLjM1LjIxLTIuNzEuMzEtNC4wNmguM2MtLjA2LDEuMS0uMTEsMi4yMS0uMTcsMy4zMS4xLjAxLjIuMDIuMzEuMDIuMDgtLjczLjE1LTEuNDYuMjMtMi4xOS4wOC4wMS4xNi4wMi4yNC4wM3YxLjgyYzEuMzItLjEyLDEuMTUtMS40MiwxLjgyLTIuMDMtMi45MS0xLjU4LTMuMTctMS45LTMuMjUtMy44OVpNMTMuNjEsMTcuNThjMS4yMSwxLjIzLDIuNzQsMS45Niw0LjQxLDIuMzYsMy41My44NSw3LjA3LDEuNjIsMTAuNjEsMi40MS4xOS4wNC40LjAxLjYuMDEtNS4zLTEuMzMtMTAuNzUtMi4wNy0xNS42Mi00Ljc4Wm03Ni4xLTYuNjZjLTIuOTEsMS42NS01Ljk5LDMuNDEtOS4wNyw1LjE2LDMuMjktMS40MSw2LjY1LTIuNjksOS4wNy01LjE2Wm0tMjguMzMsNDYuODZjLjAyLS4xMS4wNi0uMzQuMTItLjU2LjIxLS42OC0uMS0xLjE4LS43MS0xLjMtLjI5LS4wNS0uNzUuMzEtLjk5LjYxLS4zMi40LS41LjkyLS44NSwxLjU5LjkxLS4xMiwxLjYxLS4yMiwyLjQzLS4zNFptLTQzLjkzLDMyLjM3Yy0uOCwzLjc5LTEuNDQsNy42My0xLjMzLDExLjU0LjQ1LTMuODUuODktNy42OSwxLjMzLTExLjU0Wm03Ljk2LTM3Ljc5Yy0uMDcuMDYtLjE0LjEyLS4yLjE4LDEuMTcsMi4yNiwyLjM0LDQuNTEsMy41Miw2Ljc3LjA5LS4wNS4xOC0uMS4yOC0uMTQtLjk4LTIuMTUtMS45Ni00LjMtMi45Ni02LjQzLS4xLS4xOS0uNDMtLjI2LS42NC0uMzhabTQ2Ljg0LDU0LjUxdi01LjI3Yy0uNDIuOTgtLjUxLDIuMDMtLjg0LDIuOTktLjM4LDEuMDktLjA2LDEuNzcuODQsMi4yOFptLTEzLjU3LTQ0Ljg1Yy43MS0uNzcuMzUtMS4zOC0uMjItMS44OS0uNjYtLjYtMS4zOS0xLjA1LTIuMTUtLjMzLjc4LjczLDEuNTYsMS40NywyLjM3LDIuMjJabS0zNC4zOS05Ljg5Yy0uMDguMDktLjE1LjE3LS4yMy4yNiwxLjEzLDEuOTcsMi4yNywzLjk0LDMuNCw1LjkxLjItLjE5LjIxLS4yOS4xNy0uMzYtLjkyLTEuODItMS44My0zLjY1LTIuNzctNS40NS0uMDktLjE4LS4zOC0uMjUtLjU3LS4zNlptNTMuOTQtMzQuNTljLS4wNS0uMTEtLjEtLjIyLS4xNS0uMzMtMi4xNSwxLTQuMzEsMi02LjQ2LDMuMDEuMDUuMTIuMTEuMjQuMTYuMzUsMi4xNS0xLjAxLDQuMy0yLjAyLDYuNDUtMy4wM1ptLTYuMDksNzUuNzRjLjU3LTEuNjYuMTItNC42My0uNzktNS4xNi4yNywxLjcyLjUyLDMuNC43OSw1LjE2Wm0tNDIuNjctMzAuNTljLjQ3LS42Mi45My0xLjIzLDEuNC0xLjg1LS43Ny0uNjEtMS4zMS0uMzMtMS43NC4yMy0uMzcuNDktLjU0LDEuMDMuMzQsMS42MlptMjIuMDcsNzMuMjljLTEuNDguMDctMi42Ni4xMy00LjAzLjIsMS4yNC43NSwyLjg4LjcsNC4wMy0uMlpNMTAuNjMsMzcuMzdjLS4wNiwwLS4xMy0uMDEtLjE5LS4wMS0uMTUsMS45OS0uMzEsMy45OS0uNDcsNS45OC4wOS4wMS4xOS4wMS4yOC4wMi4xMy0yLC4yNS0zLjk5LjM4LTUuOTlabTIxLjc0LDIzLjgyYy0xLjI3LS4wNC0yLjI3LDEuMzEtMS44NCwyLjMyLjU5LS43NSwxLjE4LTEuNSwxLjg0LTIuMzJabTE2LjM1LDYxLjE0Yy0xLjU1LDEuNDQtMy40OCwxLjgxLTUuNDksMS45OCwyLjA4LDAsNC4wOC0uMTYsNS40OS0xLjk4Wk0xMy4xLDQ3LjZjLjQzLjM4Ljg3Ljc1LDEuMywxLjEzLjA4LS4wOS4xNi0uMTguMjQtLjI3LS40NC0uMzgtLjQyLTEuMjgtMS41NC0uODZabTEwLjYzLDIxLjgyYy4xMS4wOC4yMi4xNy4zMi4yNS4zNy0uNDQuNzQtLjg4LDEuMTItMS4zMi0uMTQtLjExLS4yNy0uMjEtLjQxLS4zMi0uMzQuNDctLjY4LjkzLTEuMDMsMS4zOVoiIGNsYXNzPSJjbHMtMSIvPiYjeGE7ICAgICAgPHBhdGggZD0ibTkyLjM2LDQyLjM4Yy0uMTEtMS4xMi0uMjItMi4yNC0uMzItMy4zNmguMTJjMCwyLjY4LS4wNSw1LjM1LjAxLDguMDMuMDcsMi44Ni4yNSw1LjcyLjM2LDguNTguMTUsMy45MS4zLDcuODIuNCwxMS43Mi4wMi44My0uMSwxLjY4LS4zMSwyLjQ4LS4zMywxLjI3LTEuMjksMS45Ny0yLjYsMi4wMS0uOTYuMDMtMS4zLS42OC0xLjM5LTEuNDMtLjE0LTEuMS0uMTItMi4yMi0uMTctMy4zMi0uMzQtNy4zLS42OC0xNC42LTEuMDEtMjEuOS0uMjYtNS44Ni0uNDktMTEuNzItLjc0LTE3LjU4LS4wNi0xLjM4LS4xOC0yLjc2LS4xNy00LjE0LjAxLTEuODUuOTctMy4yLDIuNTMtNC4wOS4yNS0uMTQuOTkuMDgsMS4xNC4zNC4zNy42Ni42OCwxLjQxLjc0LDIuMTYuMjMsMi42MS4zNSw1LjIzLjUsNy44NS4xMSwxLjk1LS4xMywzLjk5LjM4LDUuODMuNTMsMS44OC40MSwzLjc1LjY2LDUuNjEuMDUuMzkuMDEuOC4wMSwxLjItLjA0LS4wMS0uMDksMC0uMTQsMFptLTMuNTUsMjQuNDZoLS4wM2MuMDksMS4xNy4xNCwyLjM1LjI5LDMuNTEuMTEuODcuNjcsMS4xOCwxLjUyLjk2LDEuMTItLjI5LDEuOTEtMS4zNywxLjg3LTIuOTEtLjE0LTUuNTMtLjMzLTExLjA1LS41NC0xNi41Ny0uMTktNC44NS0uNDQtOS43LS42NC0xNC41NS0uMTgtNC40NC0uMzEtOC44OS0uNTMtMTMuMzMtLjA2LTEuMTYtLjI5LTIuMzMtLjYtMy40Ni0uMjUtLjktLjY1LS45NS0xLjQxLS4zOC0xLjE5Ljg5LTEuNzksMi4wOS0xLjc1LDMuNTcuMDYsMi4zMy4xNyw0LjY1LjI3LDYuOTcuMyw2LjY5LjYzLDEzLjM4LjkyLDIwLjA4LjI0LDUuMzcuNDIsMTAuNzQuNjMsMTYuMTFaIiBjbGFzcz0iY2xzLTEiLz4mI3hhOyAgICAgIDxwYXRoIGQ9Im01My42Myw0My44djcuOTNoLS4xM3YtNy45NXMuMDguMDIuMTMuMDJaIiBjbGFzcz0iY2xzLTEiLz4mI3hhOyAgICAgIDxwYXRoIGQ9Im01OC40NCw0My44N3Y3LjIxcy0uMDgsMC0uMTEuMDF2LTcuMjFzLjA4LS4wMS4xMS0uMDFaIiBjbGFzcz0iY2xzLTEiLz4mI3hhOyAgICAgIDxwYXRoIGQ9Im01OS4zMiw1MS4wN3YtNS44Yy4xLDEuOTEuMjEsMy44NS4zMiw1Ljc5LS4xMSwwLS4yMS4wMS0uMzIuMDFaIiBjbGFzcz0iY2xzLTEiLz4mI3hhOyAgICAgIDxwYXRoIGQ9Im01NS40Myw1MS40OHYtNy42OWguMTZ2Ny43MXMtLjEtLjAyLS4xNi0uMDJaIiBjbGFzcz0iY2xzLTEiLz4mI3hhOyAgICAgIDxwYXRoIGQ9Im01Ny40MSwzNy45MnY3LjVoLS4xMXYtNy40NXMuMDctLjA0LjExLS4wNVoiIGNsYXNzPSJjbHMtMSIvPiYjeGE7ICAgICAgPHBhdGggZD0ibTgyLjM2LDQ0LjkzYy0uMTItMS44Ny0uMjQtMy43My0uMzYtNS42LjA5LS4wMS4xOC0uMDEuMjgtLjAyLjA2LDEuMi4xNCwyLjM5LjE3LDMuNTkuMDEuNjctLjA3LDEuMzUtLjEsMi4wMi0uMDEsMCwwLC4wMSwwLC4wMVoiIGNsYXNzPSJjbHMtMSIvPiYjeGE7ICAgICAgPHBhdGggZD0ibTkzLjkzLDc0LjQ4bC0uMTgtMy45NmMuMDksMCwuMTctLjAxLjI2LS4wMXYzLjkycy0uMDUuMDQtLjA4LjA1WiIgY2xhc3M9ImNscy0xIi8+JiN4YTsgICAgICA8cGF0aCBkPSJtNjEuMzcsNDUuODR2NC4zMXMtLjA2LjAxLS4wOS4wMXYtNC4zMXMuMDYtLjAxLjA5LS4wMVoiIGNsYXNzPSJjbHMtMSIvPiYjeGE7ICAgICAgPGVsbGlwc2Ugcnk9IjMuNjkiIHJ4PSIuMDUiIGN5PSI0MC4zOCIgY3g9IjU1LjQ5IiBjbGFzcz0iY2xzLTEiLz4mI3hhOyAgICAgIDxwYXRoIGQ9Im01OS4yMSwzOC4zOXY1LjFoLS4xMXYtNS4xaC4xMVoiIGNsYXNzPSJjbHMtMSIvPiYjeGE7ICAgICAgPHBhdGggZD0ibTg1LjQ5LDY1LjY4djMuNTJzLS4wNCwwLS4wNi4wMWMtLjA3LTEuMTctLjE0LTIuMzUtLjIxLTMuNTIuMDksMCwuMTgtLjAxLjI3LS4wMVoiIGNsYXNzPSJjbHMtMSIvPiYjeGE7ICAgICAgPHBhdGggZD0ibTg1LjcxLDcxLjQ1djQuMDRzLS4wOS4wMS0uMTQuMDF2LTQuMDdzLjA5LjAxLjE0LjAyWiIgY2xhc3M9ImNscy0xIi8+JiN4YTsgICAgICA8cGF0aCBkPSJtNjAuMTgsNDEuOTF2My44M2gtLjE2di0zLjgzaC4xNloiIGNsYXNzPSJjbHMtMSIvPiYjeGE7ICAgICAgPHBhdGggZD0ibTkzLjU0LDY0Ljk4Yy0uMDYtMS4yMS0uMTMtMi40MS0uMTktMy42MS4wOC0uMDEuMTYtLjAxLjIzLS4wMnYzLjYycy0uMDMsMC0uMDQsMFoiIGNsYXNzPSJjbHMtMSIvPiYjeGE7ICAgICAgPHBhdGggZD0ibTU4LjA0LDM3Ljk5di00Ljk2cy4wNywwLC4xMS0uMDF2NC45M3MtLjA4LjAyLS4xMS4wNFoiIGNsYXNzPSJjbHMtMSIvPiYjeGE7ICAgICAgPHBhdGggZD0ibTYwLjM5LDQ3LjU4djIuOTVzLS4wOC4wMS0uMTIuMDFjLS4wNy0uOTgtLjE0LTEuOTctLjIxLTIuOTUuMTEsMCwuMjItLjAxLjMzLS4wMVoiIGNsYXNzPSJjbHMtMSIvPiYjeGE7ICAgICAgPHBhdGggZD0ibTk0LjE2LDc5LjM3Yy0uMDktMS4zNC0uMTYtMi4zOS0uMjMtMy40NC4wOC0uMDEuMTUtLjAxLjIzLS4wMnYzLjQ2WiIgY2xhc3M9ImNscy0xIi8+JiN4YTsgICAgICA8cGF0aCBkPSJtNTQuNDIsNDQuNjd2LTQuNTFoLjExdjQuNTJzLS4wNywwLS4xMSwwWiIgY2xhc3M9ImNscy0xIi8+JiN4YTsgICAgICA8cGF0aCBkPSJtODcuMzYsODUuMjR2LTMuMTRjLjA2LjgzLjEzLDEuOTcuMjEsMy4xMi0uMDcsMC0uMTQsMC0uMjEuMDJaIiBjbGFzcz0iY2xzLTEiLz4mI3hhOyAgICAgIDxwYXRoIGQ9Im04NS4zNCw2MC43NnYzLjI5aC0uMWMtLjA2LTEuMS0uMTMtMi4yLS4xOS0zLjMuMSwwLC4xOS4wMS4yOS4wMVoiIGNsYXNzPSJjbHMtMSIvPiYjeGE7ICAgICAgPHBhdGggZD0ibTkzLjgyLDY2LjAxdjMuMzVzLS4wNS4wMS0uMDcuMDFjLS4wNi0xLjExLS4xMy0yLjIyLS4xOS0zLjM0LjA4LDAsLjE3LS4wMS4yNi0uMDJaIiBjbGFzcz0iY2xzLTEiLz4mI3hhOyAgICAgIDxwYXRoIGQ9Im04NC43NSw1NC45OHYtMy42NHMuMDktLjAxLjEzLS4wMXYzLjY0cy0uMDksMC0uMTMuMDFaIiBjbGFzcz0iY2xzLTEiLz4mI3hhOyAgICAgIDxwYXRoIGQ9Im01Ny40Myw1MS4yOXYtMy4zMnMuMDgtLjAxLjExLS4wMWwuMTgsMy4zM2gtLjI5WiIgY2xhc3M9ImNscy0xIi8+JiN4YTsgICAgICA8cGF0aCBkPSJtNjQuMTIsNzUuMDFjLS4wMi4wNi0uMDcuMjUtLjEzLjQ1LjA4LjA3LjE1LjE0LjIzLjIyLjY2LS44MywxLjMyLTEuNjUsMS45Ny0yLjQ4LjEzLjEzLjI2LjI2LjM4LjQtMy4wNCwyLjk0LTYuMDcsNS44OC05LjExLDguODItLjA3LS4wNi0uMTMtLjEyLS4yLS4xOC41OS0uNTgsMS4xNy0xLjE4LDEuNzYtMS43NS41MS0uNDksMS4wNS0uOTQsMS41NC0xLjQ2LjE0LS4xNS44Mi0uMzYuMS0uNy4wOC0uMTMuMTItLjMuMjMtLjQsMS4xLTEsMi4xOS0xLjk4LDMuMjMtMi45MloiIGNsYXNzPSJjbHMtMSIvPiYjeGE7ICAgICAgPHBhdGggZD0ibTY3LjE1LDc0LjRjLTEuODcsMS41OC0zLjc0LDMuMTYtNS42MSw0Ljc0LjA3LjA3LjEzLjE0LjIuMjEsMS42Ni0xLjc5LDMuMzItMy41OSw0Ljk4LTUuMzguMTQuMTQuMjkuMjkuNDMuNDNaIiBjbGFzcz0iY2xzLTEiLz4mI3hhOyAgICAgIDxwYXRoIGQ9Im02MS43Myw3Ni41NmMtMS42NSwxLjQxLTMuMjksMi44MS00Ljk0LDQuMjItLjA1LS4wNi0uMTEtLjEyLS4xNi0uMTgsMS42NC0xLjQyLDMuMjgtMi44Myw0LjkyLTQuMjUuMDYuMDcuMTIuMTQuMTguMjFaIiBjbGFzcz0iY2xzLTEiLz4mI3hhOyAgICAgIDxwYXRoIGQ9Im02MC4zMyw3Ni44Yy0xLjQ5LDEuMjYtMi45OSwyLjUxLTQuNDgsMy43Ny0uMDYtLjA2LS4xMS0uMTMtLjE3LS4xOSwxLjQ5LTEuMjcsMi45Ny0yLjUzLDQuNDYtMy44LjA2LjA3LjEzLjE0LjE5LjIyWiIgY2xhc3M9ImNscy0xIi8+JiN4YTsgICAgICA8cGF0aCBkPSJtNTkuMjUsMTA3LjQ3Yy45LTEuMDIsMi4xOS0yLjQ5LDMuNDktMy45Ny4xMS4xMS4yMi4yMi4zMy4zNC0xLjQyLDEuMzUtMi44NCwyLjctMy44MiwzLjYzWiIgY2xhc3M9ImNscy0xIi8+JiN4YTsgICAgICA8cGF0aCBkPSJtNjcuMTcsMTA4LjQ3Yy45OC0xLjQ2LDEuOTctMi45MiwyLjk1LTQuMzguMDYuMDQuMTMuMDguMTkuMTMtLjk4LDEuNDgtMS45NiwyLjk1LTIuOTUsNC40My0uMDYtLjA2LS4xMy0uMTItLjE5LS4xOFoiIGNsYXNzPSJjbHMtMSIvPiYjeGE7ICAgICAgPHBhdGggZD0ibTYxLjcxLDEwNC4xOGMtMS4wOC45OS0yLjE3LDEuOTgtMy4yNSwyLjk3LS4wNS0uMDYtLjEtLjExLS4xNi0uMTcsMS4wNy0xLDIuMTQtMi4wMSwzLjItMy4wMS4wNy4wNy4xNC4xNC4yMS4yMVoiIGNsYXNzPSJjbHMtMSIvPiYjeGE7ICAgICAgPHBhdGggZD0ibTU1LjI4LDc5LjU4YzEuMDItLjg5LDIuMDQtMS43OCwzLjA2LTIuNjcuMDYuMDguMTMuMTUuMTkuMjMtMS4wMy44OC0yLjA3LDEuNzYtMy4xLDIuNjMtLjA0LS4wNi0uMS0uMTMtLjE1LS4xOVoiIGNsYXNzPSJjbHMtMSIvPiYjeGE7ICAgICAgPHBhdGggZD0ibTQxLjQ5LDExMC44MWMtMS4xOS42Mi0yLjM4LDEuMjMtMy41NywxLjg1LS4wMy0uMDctLjA3LS4xMy0uMS0uMiwxLjE5LS42MSwyLjM5LTEuMjIsMy41OC0xLjgzLjAzLjA2LjA2LjEyLjA5LjE4WiIgY2xhc3M9ImNscy0xIi8+JiN4YTsgICAgICA8cGF0aCBkPSJtNjcuNjksNzcuMzVjLS42OC44MS0xLjM1LDEuNjEtMi4wMywyLjQyLS4wNi0uMDUtLjEzLS4xMS0uMTktLjE2bDEuOTgtMi40NmMuMDkuMDcuMTYuMTQuMjQuMloiIGNsYXNzPSJjbHMtMSIvPiYjeGE7ICAgICAgPHBhdGggZD0ibTM5LjQsMTMuOTRjMS41NC0uODQsMy4wOC0xLjcxLDQuNjQtMi41MiwxLjE1LS42LDIuMzMtMS4xNSwzLjUtMS43Mi0uMDUtLjExLS4wOS0uMjEtLjE0LS4zMi0yLjAyLjktNC4wMywxLjgxLTYuMDUsMi43MS0uMDItLjA1LS4wNS0uMTEtLjA3LS4xNiwxLjQ0LS43NSwyLjg3LTEuNDksNC4zMS0yLjI0LS4wNi0uMTMtLjEyLS4yNi0uMTktLjQtMi4yNywxLjA0LTQuNTQsMi4wOS02LjgsMy4xMy0uMDMtLjA1LS4wNi0uMTEtLjA5LS4xNiwxLjQ4LS43NSwyLjk2LTEuNTEsNC40My0yLjI2LS4wMy0uMDktLjA3LS4xOC0uMS0uMjctMS4wNC40LTIuMDkuOC0zLjEzLDEuMi41Mi0uMzQsMS4wNS0uNjgsMS41Ny0xLjAyLS4zOC0uOS0uOTItLjI2LTEuNDEtLjE2LjY1LS40OSwxLjI0LS44OCwyLjE5LS44NC45OS4wNCwyLjAxLS40MiwzLjAxLS42OS4zNS0uMDkuNjctLjI3LDEuMDgtLjMtLjE3LjE1LS4zMy4zLS41LjQ2LjA0LjA3LjA4LjE1LjEyLjIyLjY5LS4yNiwxLjM4LS41MywyLjA3LS43OS4wNi4wNy4xMi4xMy4xOC4yLS4yNC4wOC0uNDkuMTctLjczLjI1LjA4LjE0LjE3LjI4LjI1LjQyLDEuMjMtLjQ5LDIuNDctLjk5LDMuNy0xLjQ4LjAyLjA1LjA1LjEuMDcuMTUtLjc0LjM3LTEuNDguNzQtMi4zOCwxLjE5LjQ0LjA5LjcyLjE0LDEuMzIuMjYtLjgzLjQtMS40My42OC0yLjAzLjk2LTIuOTUsMS4zOS01Ljg5LDIuNzgtOC44NCw0LjE3LDAtLjAyLjAyLjAxLjAyLjAxWiIgY2xhc3M9ImNscy0xIi8+JiN4YTsgICAgICA8cGF0aCBkPSJtMzIuODgsMTcuMTVjMS4wOS0uNjcsMi4xNS0xLjQyLDMuMjktMS45OSwxLjAzLS41MSwyLjE1LS44MywzLjIzLTEuMjNsLS4wMi0uMDJjLS40Ny4zLS45NC42LTEuNC45MSwxLjQxLjI5LDIuMzgtLjg3LDMuNjgtLjk2LS44Mi40Mi0xLjY0Ljg1LTIuNDUsMS4yNywxLjM0LjQsMi4xOC0uOCwzLjYyLTEtLjg4LjUtMS41My44OC0yLjE3LDEuMjV2LjIyYy45My4xNiwxLjg2LjMxLDIuNzguNDd2LjQ0Yy0uNDguMDUtLjk2LjEyLTEuNDUuMTUtLjMzLjAyLS42OS4wNy0xLS4wMi0xLjU4LS40Ni0zLjAyLS4xOC00LjM2Ljc2LS4xMS4wNy0uMjQuMTEtLjM3LjE1LS4wNS4wMS0uMTItLjA0LS4yNi0uMS42Ny0uMzksMS4zLS43NiwxLjkyLTEuMTItLjA0LS4xMS0uMDktLjIxLS4xMy0uMzItMS4xOC41MS0yLjM3LDEuMDItMy41NSwxLjUzLS4wMi0uMDQtLjA1LS4wOC0uMDctLjEyLjg0LS40NiwxLjY3LS45MywyLjUxLTEuMzktLjAxLS4wOS0uMDItLjE4LS4wMy0uMjctLjMxLjA0LS42NS4wMy0uOTMuMTQtLjk2LjM5LTEuOS44Mi0yLjg1LDEuMjQtLjAxLS4wMSwwLDAsMCwwWiIgY2xhc3M9ImNscy0xIi8+JiN4YTsgICAgICA8cGF0aCBkPSJtNzQuMjIsMTYuNTNjMi4wOS0xLjA2LDQuMTktMi4xMiw2LjI4LTMuMTkuMTktLjEuMzctLjIzLjU2LS4zNC0uMDMtLjA4LS4wNy0uMTYtLjEtLjI0LS41OS4yNC0xLjE4LjQ5LTEuOTcuODIsMS4xOC0xLjA5LDcuMTctMy45LDguMjktMy44My0uNTguNDEtLjk3Ljc4LTEuNDIsMS4wMS0zLjU1LDEuODYtNy4xMSwzLjY5LTEwLjY4LDUuNTItLjI5LjE1LS42NC4xNi0uOTcuMjMsMCwwLC4wMS4wMi4wMS4wMloiIGNsYXNzPSJjbHMtMSIvPiYjeGE7ICAgICAgPHBhdGggZD0ibTM3LjQyLDEyLjA4Yy0zLjExLDEuNTMtNi4yMiwzLjA3LTkuMzQsNC42LS4wNC0uMDctLjA3LS4xNS0uMTEtLjIyLDEuNjUtLjgyLDMuMy0xLjYyLDQuOTMtMi40Ni4yNi0uMTMuNDMtLjQ0LjY1LS42Ni0uMDgtLjA4LS4xNS0uMTYtLjIzLS4yNC0xLjE5LjUzLTIuMzgsMS4wNi0zLjU3LDEuNTktLjAzLS4wNS0uMDYtLjExLS4wOC0uMTYuODctLjQ0LDEuNzctLjgyLDIuNTgtMS4zNC41My0uMzQsMS4xMy0uNDksMS41Mi0xLjI4LjM2LS43MywxLjctMS4zOCwyLjU2LTEuMzMuNzcuMDUsMS40LS4wMiwyLjA3LS4yNS0uOTguNjgtMS45NSwxLjM2LTIuOTMsMi4wMy4wNS4wOC4xLjE2LjE0LjI0LjYxLS4xNywxLjIxLS4zNCwxLjgxLS41MlptLTMuNSwxLjIxYzEuMzEtLjIsMS4yNy0xLjU5LDIuMTktMS45OC0xLjI3LjEzLTEuOTMuNzItMi4xOSwxLjk4WiIgY2xhc3M9ImNscy0xIi8+JiN4YTsgICAgICA8cGF0aCBkPSJtNTQuNzUsMTAuODRjLS4zOCwwLS43Ny0uMDctMS4xNCwwLS4zOC4wNy0uNzQuMjctMS4xMS40MS0uMDQtLjA5LS4wOC0uMTktLjEyLS4yOCwxLjc4LS44MSwzLjU2LTEuNjEsNS4zNC0yLjQyLjA0LjA3LjA3LjE1LjExLjIyLS42OC4zNC0xLjM2LjY3LTIuMDQsMS4wMS4wNC4xLjA5LjIuMTMuMywxLjM4LS42MywyLjc2LTEuMjUsNC4xNC0xLjg4LjAzLjA2LjA3LjEzLjEuMTktMS4xOC42LTIuMzUsMS4yMS0zLjU4LDEuODQuNDMuNC44NC42NiwxLjA4LDEuMDQuMi4zMi4xOC43Ny4yNSwxLjE2LS41MS0uMDktMS4wOS0uMDctMS41My0uMzEtLjYxLS4zMy0xLjEyLS44NS0xLjY3LTEuMjloLjA0Wm0uNTMtLjUyYy44OC40MSwxLjA3LDEuNzksMi40NSwxLjkxLS40Ny0xLjM2LTEuNTMtMS41NS0yLjQ1LTEuOTFaIiBjbGFzcz0iY2xzLTEiLz4mI3hhOyAgICAgIDxwYXRoIGQ9Im00OC45OSwxNS44NGMyLjE4LS42MSw0LjIyLTEuMTksNi4yNy0xLjczLjIzLS4wNi41Mi4xNC44NS4yMy0xLjI0LDEuMzItNi4wMSwyLjM3LTcuMTIsMS41WiIgY2xhc3M9ImNscy0xIi8+JiN4YTsgICAgICA8cGF0aCBkPSJtNjkuNjksNC4xYy0yLjk1LDEuMzItNS44OSwyLjYzLTguODQsMy45NS0uMDMtLjA3LS4wNy0uMTQtLjEtLjIxLDIuMTktMS4wMyw0LjM4LTIuMDYsNi41Ny0zLjA5LS4wMy0uMDctLjA2LS4xMy0uMDktLjItMS40Ni42My0yLjkyLDEuMjYtNC4zOCwxLjg5LS4wMy0uMDgtLjA2LS4xNy0uMS0uMjUsMi4yNy0uNzgsNC4xOC0yLjU4LDYuODEtMi4zNi4wNS4wOS4wOS4xOC4xMy4yN1oiIGNsYXNzPSJjbHMtMSIvPiYjeGE7ICAgICAgPHBhdGggZD0ibTE1LjgzLDE2LjA0YzQuNDYsMi4zOCw5LjQyLDIuOTQsMTQuMjQsNC4wNC0yLjctLjEtMTIuNTItMi4xNi0xNC4yNC00LjA0WiIgY2xhc3M9ImNscy0xIi8+JiN4YTsgICAgICA8cGF0aCBkPSJtNzIuMzgsNC41NWMtMy4yLDEuNDUtNi40MSwyLjktOS42MSw0LjM0LS4wMy0uMDctLjA3LS4xNS0uMS0uMjIsMy4xOS0xLjQ3LDYuMzktMi45NCw5LjU4LTQuNDEuMDQuMS4wOS4yLjEzLjI5WiIgY2xhc3M9ImNscy0xIi8+JiN4YTsgICAgICA8cGF0aCBkPSJtNTkuMTQsNS45OWMyLjI5LTEuMDUsNC41Ny0yLjA5LDYuODYtMy4xNC4wNS4xMi4xLjIzLjE2LjM1LTIuMzEsMS00LjYxLDItNi45MiwzLS4wMy0uMDctLjA3LS4xNC0uMS0uMjFaIiBjbGFzcz0iY2xzLTEiLz4mI3hhOyAgICAgIDxwYXRoIGQ9Im04MS40MiwxMS4zNWMuMDEtLjA5LS4wMi0uMjQuMDItLjI2LDItLjk4LDQuMDEtMS45NSw2LjAyLTIuOTEuMDYuMTMuMTIuMjYuMTguMzktMi4wOC45Mi00LjE3LDEuODUtNi4yNSwyLjc3aC4wM1oiIGNsYXNzPSJjbHMtMSIvPiYjeGE7ICAgICAgPHBhdGggZD0ibTYxLjgxLDUuNTRjMS44OS0uODUsMy43OC0xLjcsNS42Ni0yLjU2LjA1LjExLjEuMjIuMTUuMzMtMS44OS44NC0zLjc5LDEuNjctNS42OCwyLjUxLS4wNC0uMDktLjA5LS4xOC0uMTMtLjI4WiIgY2xhc3M9ImNscy0xIi8+JiN4YTsgICAgICA8cGF0aCBkPSJtNzEuMDksNC4zM2MtMi4wNS45MS00LjEsMS44Mi02LjE0LDIuNzMtLjAzLS4wOC0uMDctLjE1LS4xLS4yMywyLjAzLS45NSw0LjA2LTEuODksNi4wOS0yLjg0LjA1LjEyLjEuMjMuMTUuMzRaIiBjbGFzcz0iY2xzLTEiLz4mI3hhOyAgICAgIDxwYXRoIGQ9Im04MS41NywxMC4wNmMxLjc2LS43NywzLjUzLTEuNTQsNS4yOS0yLjMxLjA1LjExLjA5LjIyLjE0LjMzLTEuNzcuNzUtMy41NSwxLjQ5LTUuMzIsMi4yNC0uMDMtLjA5LS4wNy0uMTctLjExLS4yNloiIGNsYXNzPSJjbHMtMSIvPiYjeGE7ICAgICAgPHBhdGggZD0ibTY0LjExLDcuMzhjLTEuODYuOTEtMy43MiwxLjgzLTUuNTgsMi43NC0uMDQtLjA4LS4wOC0uMTYtLjEyLS4yNCwxLjg4LS45LDMuNzYtMS44MSw1LjYzLTIuNzEuMDMuMDguMDUuMTQuMDcuMjFaIiBjbGFzcz0iY2xzLTEiLz4mI3hhOyAgICAgIDxwYXRoIGQ9Im03OC4wMiwxMC45YzIuMDEtLjk1LDQuMDItMS45MSw2LjAzLTIuODYuMDQuMDkuMDguMTguMTIuMjctMi4wMS45Mi00LjAxLDEuODUtNi4wMiwyLjc3LS4wNS0uMDYtLjA5LS4xMi0uMTMtLjE4WiIgY2xhc3M9ImNscy0xIi8+JiN4YTsgICAgICA8cGF0aCBkPSJtNzMuNjksNS4xMWMtMS4zMy40OS0yLjY2Ljk4LTQsMS40Ny0uMDItLjA1LS4wNC0uMS0uMDYtLjE0LDEuNC0uNjQsMi44LTEuMjksNC4yLTEuOTMuMDUuMDYuMDkuMTIuMTQuMTctLjExLjE1LS4yMS4zMS0uMzIuNDYsMCwwLC4wNC0uMDMuMDQtLjAzWiIgY2xhc3M9ImNscy0xIi8+JiN4YTsgICAgICA8cGF0aCBkPSJtODEuNCwxMS4zM2MtMS40MS42Ny0yLjgzLDEuMzUtNC4yNCwyLjAyLS4wNS0uMTEtLjEtLjIyLS4xNC0uMzMsMS40Ny0uNTYsMi45My0xLjExLDQuNC0xLjY3LDAsMC0uMDItLjAyLS4wMi0uMDJaIiBjbGFzcz0iY2xzLTEiLz4mI3hhOyAgICAgIDxwYXRoIGQ9Im03My42Niw1LjE1Yy41NS0uMTUsMS4xMS0uMjksMS42Ni0uNDQuMDIuMDYuMDQuMTIuMDcuMTctMS4zMi41OC0yLjYzLDEuMTYtMy45NSwxLjc1LS4wMi0uMDUtLjA1LS4wOS0uMDctLjE0Ljc4LS40NiwxLjU1LS45MSwyLjMzLTEuMzcsMCwwLS4wNC4wMy0uMDQuMDNaIiBjbGFzcz0iY2xzLTEiLz4mI3hhOyAgICAgIDxwYXRoIGQ9Im0zMi44NiwxNy4xM2MtMS4yLjc0LTIuNCwxLjQ4LTMuNiwyLjIxLS4wNi0uMTEtLjEyLS4yMi0uMTktLjM0LDEuMjctLjYyLDIuNTQtMS4yNCwzLjgxLTEuODYsMCwuMDEtLjAyLS4wMS0uMDItLjAxWiIgY2xhc3M9ImNscy0xIi8+JiN4YTsgICAgICA8cGF0aCBkPSJtNzkuMjksMTEuNDNjLTEuMjguNTYtMi41NywxLjEyLTMuODUsMS42OC0uMDMtLjA3LS4wNi0uMTQtLjA5LS4yLDEuMjktLjU2LDIuNTctMS4xMiwzLjg2LTEuNjguMDMuMDcuMDUuMTMuMDguMloiIGNsYXNzPSJjbHMtMSIvPiYjeGE7ICAgICAgPHBhdGggZD0ibTU5Ljc5LDMuNjdjLTEuMTkuNS0yLjM5LDEuMDEtMy41OCwxLjUxLS4wMy0uMDYtLjA2LS4xMy0uMDgtLjE5LDEuMTgtLjUzLDIuMzctMS4wNSwzLjU1LTEuNTguMDMuMDkuMDcuMTguMTEuMjZaIiBjbGFzcz0iY2xzLTEiLz4mI3hhOyAgICAgIDxwYXRoIGQ9Im0yMy40MSwxNy41OGMxLjE0LS41NywyLjI4LTEuMTMsMy40Mi0xLjcuMDMuMDcuMDcuMTQuMS4yLTEuMTMuNTgtMi4yNiwxLjE3LTMuMzksMS43NS0uMDQtLjA4LS4wOS0uMTYtLjEzLS4yNVoiIGNsYXNzPSJjbHMtMSIvPiYjeGE7ICAgICAgPHBhdGggZD0ibTM3LjI3LDEzLjA4Yy0xLjA5LjU0LTIuMTksMS4wOC0zLjI4LDEuNjItLjAzLS4wNi0uMDYtLjExLS4wOC0uMTcsMS4xLS41NCwyLjE5LTEuMDgsMy4yOS0xLjYxLjAyLjA1LjA1LjExLjA3LjE2WiIgY2xhc3M9ImNscy0xIi8+JiN4YTsgICAgICA8cGF0aCBkPSJtNDguNTgsMTEuMDZjMS4xMS0uNTUsMi4yMS0xLjEsMy4zMi0xLjY2LjAzLjA2LjA2LjEyLjA5LjE5LTEuMTEuNTYtMi4yMiwxLjEyLTMuMzIsMS42OS0uMDMtLjA4LS4wNi0uMTUtLjA5LS4yMloiIGNsYXNzPSJjbHMtMSIvPiYjeGE7ICAgICAgPHBhdGggZD0ibTIwLjA5LDE2LjNjMS4wMi0uNTEsMi4wNC0xLjAzLDMuMDUtMS41NC4wMy4wNS4wNS4xLjA4LjE1LTEuMDIuNTItMi4wMywxLjAzLTMuMDUsMS41NS0uMDItLjA1LS4wNS0uMTEtLjA4LS4xNloiIGNsYXNzPSJjbHMtMSIvPiYjeGE7ICAgICAgPHBhdGggZD0ibTU0LjcyLDEwLjgyYy0uMjYuMjQtLjQ5LjUyLS43OS43LS40OC4yOS0xLC41MS0xLjUuNzYtLjA1LS4wOS0uMS0uMTctLjE0LS4yNi44Mi0uMzksMS42NC0uNzgsMi40Ni0xLjE3LDAtLjAxLS4wMy0uMDMtLjAzLS4wM1oiIGNsYXNzPSJjbHMtMSIvPiYjeGE7ICAgICAgPHBhdGggZD0ibTgxLjAyLDEwMC4xN2MtLjExLDIuMTktLjIyLDQuMzgtLjMyLDYuNTdoLjE3di0yLjdjLjYzLDEuNTEuMjksNC4zNi0uNzgsNi4wOC4yMS0zLjMxLjQxLTYuNjEuNjItOS45Mi4xLS4wMS4yMS0uMDIuMzEtLjAzWiIgY2xhc3M9ImNscy0xIi8+JiN4YTsgICAgICA8cGF0aCBkPSJtNzUuODMsOTYuMzV2OC43aC0uMDl2LTguN2guMDlaIiBjbGFzcz0iY2xzLTEiLz4mI3hhOyAgICAgIDxwYXRoIGQ9Im00OC44NiwxMjYuNDJjMi4wNi0uMjMsNC4xMi0uNDcsNi4xOC0uNy4wMS4wNS4wMS4wOS4wMi4xNC0yLjA2LjI3LTQuMTEuNTQtNi4xNy44MiwwLS4wOS0uMDItLjE3LS4wMy0uMjZaIiBjbGFzcz0iY2xzLTEiLz4mI3hhOyAgICAgIDxwYXRoIGQ9Im02NC43OSwxMTYuMzRjMS42Ni0uNTcsMy4zMi0xLjE0LDQuOTgtMS43MS4wMy4wOC4wNS4xNi4wOC4yMy0xLjY2LjU2LTMuMzIsMS4xMy00Ljk4LDEuNjktLjAzLS4wNi0uMDUtLjE0LS4wOC0uMjFaIiBjbGFzcz0iY2xzLTEiLz4mI3hhOyAgICAgIDxwYXRoIGQ9Im00Ny4zMywxMTguNzdoNC4wMXYuMTRoLTQuMDF2LS4xNFoiIGNsYXNzPSJjbHMtMSIvPiYjeGE7ICAgICAgPHBhdGggZD0ibTgwLjc1LDk0LjYzdjQuNDNjLS4wNiwwLS4xMSwwLS4xNywwdi00LjQyYy4wNiwwLC4xMi0uMDIuMTctLjAyWiIgY2xhc3M9ImNscy0xIi8+JiN4YTsgICAgICA8cGF0aCBkPSJtMTUuMDQsMTEyLjkzYy0uMjQtLjIyLS40OS0uNDQtLjc0LS42OC0uNDguMzEtLjkzLjU5LTEuMzguODgtLjA0LS4wNS0uMDgtLjEtLjEyLS4xNS40NS0uMzMuODktLjY2LDEuMzQtLjk5LS4wOC0uMDMtLjE1LS4wNS0uMjMtLjA4LjE3LS42Ny4zNC0xLjM1LjUyLTIuMDItLjUsMS4xNS4xMSwyLjA4LjYxLDMuMDRaIiBjbGFzcz0iY2xzLTEiLz4mI3hhOyAgICAgIDxwYXRoIGQ9Im04MS41Myw5NS43OXY0LjI5aC0uMTR2LTQuMjljLjA1LjAxLjEuMDEuMTQsMFoiIGNsYXNzPSJjbHMtMSIvPiYjeGE7ICAgICAgPHBhdGggZD0ibTc0LjY0LDk4LjkxdjUuMjdoLS4xMnYtNS4yN2guMTJaIiBjbGFzcz0iY2xzLTEiLz4mI3hhOyAgICAgIDxwYXRoIGQ9Im03NC4zNSwxMTIuNjZjMS4wNC0uNSwyLjA4LTEsMy4xMy0xLjUuMDQuMDguMDguMTYuMTEuMjQtMS4wNS41LTIuMS45OS0zLjE1LDEuNDktLjAzLS4wOC0uMDYtLjE2LS4wOS0uMjNaIiBjbGFzcz0iY2xzLTEiLz4mI3hhOyAgICAgIDxwYXRoIGQ9Im03MS44NCw1OC4wM2MuMTQsNi4wNy4yOCwxMi4xNC40MiwxOC4yMmgtLjE5Yy0uMTUtNi4wNy0uMzEtMTIuMTQtLjQ2LTE4LjIyaC4yM1oiIGNsYXNzPSJjbHMtMSIvPiYjeGE7ICAgICAgPHBhdGggZD0ibTc0LjE2LDYyLjY1djE1LjM4aC0uMTR2LTE1LjM2Yy4wNSwwLC4xLS4wMS4xNC0uMDJaIiBjbGFzcz0iY2xzLTEiLz4mI3hhOyAgICAgIDxwYXRoIGQ9Im03Mi44Myw3OS4wM3YtMTAuMzNzLjA1LDAsLjA3LS4wMXYxMC4zM3MtLjA1LjAxLS4wNy4wMVoiIGNsYXNzPSJjbHMtMSIvPiYjeGE7ICAgICAgPHBhdGggZD0ibTcyLjQyLDc5LjY0djcuMDFoLS4xM3YtNy4wMXMuMDksMCwuMTMsMFoiIGNsYXNzPSJjbHMtMSIvPiYjeGE7ICAgICAgPHBhdGggZD0ibTc0LjYzLDY0Ljc4di05LjQ3aC4xNXY5LjQ1Yy0uMDYuMDEtLjExLjAxLS4xNS4wMloiIGNsYXNzPSJjbHMtMSIvPiYjeGE7ICAgICAgPHBhdGggZD0ibTc4LjQ1LDQ5LjY0djUuOTJjLS4wOS0xLjk4LS4xNy0zLjkzLS4yNi01Ljg4LjA5LS4wMS4xNy0uMDMuMjYtLjA0WiIgY2xhc3M9ImNscy0xIi8+JiN4YTsgICAgICA8cGF0aCBkPSJtODEuMTUsODIuNzN2NC44MXMtLjEsMC0uMTQsMHYtNC44MWMuMDUsMCwuMDksMCwuMTQsMFoiIGNsYXNzPSJjbHMtMSIvPiYjeGE7ICAgICAgPHBhdGggZD0ibTc5LjEzLDY4LjYxYy4wNywxLjEuMTksMi45Ni4zLDQuODItLjEuMDEtLjIuMDEtLjMuMDJ2LTQuODRaIiBjbGFzcz0iY2xzLTEiLz4mI3hhOyAgICAgIDxwYXRoIGQ9Im03OS43OSw1NC45N3YtMy45NXMuMDgsMCwuMTItLjAxYy4wNywxLjMyLjE0LDIuNjQuMjEsMy45Ni0uMTEtLjAxLS4yMi0uMDEtLjMzLDBaIiBjbGFzcz0iY2xzLTEiLz4mI3hhOyAgICAgIDxwYXRoIGQ9Im03OS4wMiw1NS44M3YtNS4wMnMuMDgsMCwuMTItLjAxdjUuMDFzLS4wOCwwLS4xMi4wMloiIGNsYXNzPSJjbHMtMSIvPiYjeGE7ICAgICAgPHBhdGggZD0ibTgwLjIxLDg4LjI5di01LjE5cy4wOSwwLC4xNCwwdjUuMThzLS4wOS4wMS0uMTQuMDJaIiBjbGFzcz0iY2xzLTEiLz4mI3hhOyAgICAgIDxwYXRoIGQ9Im03Mi40Nyw2NC40MnYtNC44OHMuMSwwLC4xNC0uMDF2NC45NWMtLjA1LS4wMi0uMS0uMDQtLjE0LS4wNloiIGNsYXNzPSJjbHMtMSIvPiYjeGE7ICAgICAgPHBhdGggZD0ibTgwLjk2LDYyLjkydi00LjM4Yy4wNiwwLC4xMiwwLC4xOC0uMDF2NC40MWMtLjA3LDAtLjEzLS4wMS0uMTgtLjAyWiIgY2xhc3M9ImNscy0xIi8+JiN4YTsgICAgICA8cGF0aCBkPSJtODEuNTQsNzkuNTd2LTMuOThjLjA2LDAsLjEyLDAsLjE4LS4wMXYzLjk5Yy0uMDYsMC0uMTIsMC0uMTgsMFoiIGNsYXNzPSJjbHMtMSIvPiYjeGE7ICAgICAgPHBhdGggZD0ibTc1LjQzLDY2LjEzdi00LjIycy4wNy0uMDEuMTEtLjAxdjQuMnMtLjA3LjAyLS4xMS4wM1oiIGNsYXNzPSJjbHMtMSIvPiYjeGE7ICAgICAgPHBhdGggZD0ibTgxLjc4LDg1Ljc3di00LjQzcy4wOSwwLC4xNCwwdjQuNDRjLS4wNSwwLS4wOSwwLS4xNCwwWiIgY2xhc3M9ImNscy0xIi8+JiN4YTsgICAgICA8cGF0aCBkPSJtNzAuOTUsNTYuMTljLTEuMjctLjQzLTIuNi0uODgtNC4xNy0xLjQyLDEuNjQuMzksMy4xNi4zNSw0LjE3LDEuNDJaIiBjbGFzcz0iY2xzLTEiLz4mI3hhOyAgICAgIDxwYXRoIGQ9Im03OS4zNSw1Ni41NnY0LjQxcy0uMDYuMDEtLjEuMDF2LTQuNDJzLjA2LDAsLjEsMFoiIGNsYXNzPSJjbHMtMSIvPiYjeGE7ICAgICAgPHBhdGggZD0ibTgwLjE2LDU2LjE4djQuMzNzLS4wOSwwLS4xNC4wMXYtNC4zNWMuMDUsMCwuMDksMCwuMTQsMFoiIGNsYXNzPSJjbHMtMSIvPiYjeGE7ICAgICAgPHBhdGggZD0ibTgxLjM5LDczLjgydi0zLjkycy4xLDAsLjE1LS4wMXYzLjkyYy0uMDUuMDEtLjEuMDEtLjE1LjAxWiIgY2xhc3M9ImNscy0xIi8+JiN4YTsgICAgICA8cGF0aCBkPSJtODAuNzgsODEuMTZ2LTQuMjJzLjEsMCwuMTUtLjAxdjQuMjJzLS4xLDAtLjE1LjAxWiIgY2xhc3M9ImNscy0xIi8+JiN4YTsgICAgICA8cGF0aCBkPSJtODAuNzcsNTAuMXYyLjc4Yy0uMDYsMC0uMTEsMC0uMTcuMDF2LTIuNzdjLjA2LS4wMS4xMS0uMDEuMTctLjAyWiIgY2xhc3M9ImNscy0xIi8+JiN4YTsgICAgICA8cGF0aCBkPSJtODEuMzUsNjQuNTd2My43NnMtLjA5LjAxLS4xMy4wMXYtMy43NXMuMDgtLjAxLjEzLS4wMloiIGNsYXNzPSJjbHMtMSIvPiYjeGE7ICAgICAgPHBhdGggZD0ibTc5LjQ1LDYyLjIxYy4wOCwxLjM3LjE1LDIuNTIuMjIsMy42Ny0uMDcsMC0uMTQuMDEtLjIyLjAxdi0zLjY4WiIgY2xhc3M9ImNscy0xIi8+JiN4YTsgICAgICA8cGF0aCBkPSJtNzQuMDUsNTcuM3YyLjI0aC0uMTV2LTIuMjNzLjEsMCwuMTUsMFoiIGNsYXNzPSJjbHMtMSIvPiYjeGE7ICAgICAgPHBhdGggZD0ibTgwLDgxLjQxdi0zLjE5cy4wNSwwLC4wOC0uMDFjLjA2LDEuMDYuMTIsMi4xMi4xOCwzLjE5LS4wOSwwLS4xNy4wMS0uMjYuMDFaIiBjbGFzcz0iY2xzLTEiLz4mI3hhOyAgICAgIDxwYXRoIGQ9Im0zMi4zMiw3NS4wNGMtLjE1LjA4LS4yOC4xOS0uNDQuMjQtMS40MS40Mi0xLjgsMS42NS0yLjE2LDIuODQtMiw2LjY2LTMuNTYsMTMuNDItNC40NywyMC4zMi0uMjksMi4yMy0uNDIsNC40NS4wNyw2LjY3LjA1LjIxLS4zNy41Mi0uNjQuODgtLjgtNS4wNi4yNy05Ljc5LDEuMTItMTQuNTMuMzMtMS44OC45NC0zLjcxLDEuMzgtNS41Ny4yMS0uOS4yNy0xLjgzLjQ3LTIuNzIuMDktLjM5LjQyLS43Mi41NC0xLjExLjQxLTEuMzIuNzYtMi42NiwxLjE2LTMuOTguNDUtMS40OSwxLjA5LTIuODMsMi45Ny0zLjA0WiIgY2xhc3M9ImNscy0xIi8+JiN4YTsgICAgICA8cGF0aCBkPSJtMjAuMDcsODIuMmMuNjUtMi44NCwxLjI5LTUuNjgsMS45NC04LjUyLjEyLjAzLjI0LjA2LjM1LjA4LS4yOCwxLjExLS41NSwyLjIzLS44NiwzLjMzLS40NywxLjctLjk3LDMuMzktMS40Niw1LjA5bC4wMy4wMloiIGNsYXNzPSJjbHMtMSIvPiYjeGE7ICAgICAgPHBhdGggZD0ibTIzLjMzLDczLjk2Yy0uNjQsMi4zNi0xLjI3LDQuNzItMS45MSw3LjA3LS4wNSwwLS4xLS4wMy0uMTUtLjA0LjYtMi4zOSwxLjE5LTQuNzcsMS43OS03LjE2LjA5LjA0LjE4LjA5LjI3LjEzWiIgY2xhc3M9ImNscy0xIi8+JiN4YTsgICAgICA8cGF0aCBkPSJtMjIuNzIsNzguM2MuMzMtMS4yOC42My0yLjQ5Ljk2LTMuNzguNTkuNzYtLjA4LDMuMzEtLjk2LDMuNzhaIiBjbGFzcz0iY2xzLTEiLz4mI3hhOyAgICAgIDxwYXRoIGQ9Im0yNC40Myw5Ny42Yy0uMTQsMi4xMi0uMjcsNC4yMy0uNDEsNi4zNS0uMDksMC0uMTgsMC0uMjctLjAyLjE1LTIuMTEuMy00LjIzLjQ0LTYuMzQuMDgsMCwuMTYsMCwuMjQsMFoiIGNsYXNzPSJjbHMtMSIvPiYjeGE7ICAgICAgPHBhdGggZD0ibTI1Ljg1LDEwOS44MWMtMS4zNC0xLjItMS44OS0yLjczLTIuMS00LjQxLjY4LDEuNDQsMS4zOCwyLjkxLDIuMSw0LjQxWiIgY2xhc3M9ImNscy0xIi8+JiN4YTsgICAgICA8cGF0aCBkPSJtMjAuMDQsODIuMThjLS4xOCwxLjIzLS4zNiwyLjQ2LS41NCwzLjY5LS4xMS0uMDItLjIxLS4wNC0uMzItLjA2LjI5LTEuMi41OS0yLjQxLjg4LTMuNjEuMDEsMC0uMDItLjAyLS4wMi0uMDJaIiBjbGFzcz0iY2xzLTEiLz4mI3hhOyAgICAgIDxwYXRoIGQ9Im0yNC4wMiwxMDguNjNjLS40MS0xLjA1LS44Mi0yLjA5LTEuMjMtMy4xNC4wNy0uMDMuMTQtLjA2LjIxLS4wOC40MSwxLjAzLjgyLDIuMDUsMS4yNCwzLjA4LS4wNy4wNC0uMTQuMDktLjIyLjE0WiIgY2xhc3M9ImNscy0xIi8+JiN4YTsgICAgICA8cGF0aCBkPSJtMjYuMjYsMzkuMjFjLS4xLDIuMDEtLjE4LDQuMDItLjMsNi4wMy0uMDYuOTIuMzcsMS4zOCwxLjIzLDEuNTQuOC4xNSwxLjU4LjM1LDIuMzguNDUuMzMuMDQuNjktLjEyLDEtLjQtMS4wNi0uMTYtMi4xMi0uMzQtMy4xOC0uNDktLjY4LS4xLS45Ni0uNDQtLjk2LTEuMTYsMC01LjcxLjYyLTExLjM2LDEuNTQtMTYuOTkuMTEtLjY5LjQ1LTEuMDEsMS4xOC0uODYsMS4wNC4yMSwyLjA4LjM3LDMuMjEuNDctLjMxLS4xOC0uNTktLjQ0LS45Mi0uNTMtLjcxLS4xOS0xLjQ1LS4zMS0yLjE4LS40Mi0xLjI5LS4xOS0xLjU0LjAxLTEuNjksMS4zLS4wMS4xMi0uMDMuMjUtLjA4LjM2LS4xOS0xLjc3LjQxLTIuMzUsMi4xLTIuMDguNS4wOCwxLC4xMywxLjQ5LjIyLDEuMy4yMiwxLjc1Ljg0LDEuNTUsMi4yLS4yNywxLjg3LS42NiwzLjcyLS44Miw1LjYtLjMzLDMuNzQtLjU0LDcuNS0uODEsMTEuMjQtLjAzLjQtLjAzLjgxLS4xMiwxLjItLjE2LjY2LS41OS45NC0xLjI5LjgyLS44My0uMTUtMS42Ni0uMzItMi40OS0uNDMtLjgxLS4xMS0xLjM0LS41OS0xLjM0LTEuMzQuMDEtMi4yNy4xMy00LjUzLjItNi43OS4xMS4wMy4yMS4wNS4zLjA2Wm00LjY3LTMuNDFjLS42Mi0uMTItMS4xMi0uMjEtMS42My0uMzEuMDEtLjA0LjAxLS4wOC4wMi0uMTJoMS42NGMuMzUtMi4zNS43LTQuNjYsMS4wNi03LjA1LTEuMDEtLjE5LTEuODktLjM5LTIuNzktLjQ5LS4yMS0uMDItLjYyLjMtLjY1LjUyLS4xNC44My0uMTksMS42Ny0uMjIsMi41MS0uMDEuMzQuMTIuNjguMiwxLjA4LjMuMDcuNzEuMTgsMS4xMy4yOCwwLC4wMy0uMDEuMDYtLjAxLjEtLjQ4LjAzLS45Ni4wNy0xLjQ0LjEsMCwuMDcuMDEuMTQuMDEuMi43LjEzLDEuNC4yNiwyLjEuMzgtLjAxLjA1LS4wMi4xMS0uMDIuMTYtLjcyLS4wNi0xLjQ0LS4xMy0yLjE5LS4yLS4wNS4yNS0uMTEuNDQtLjEzLjYzLS4yOCwzLjI1LS42LDYuNS0uODMsOS43Ni0uMTcsMi41LS4xMiwyLjQ3LDIuNDcsMi44MS44NC4xMS45LS4zNC43NC0uODYtLjEtLjMzLS41MS0uNTYtLjc2LS44Mi4yLS4wNC40OC0uMS43NS0uMTYsMC0uMDgtLjAxLS4xNi0uMDEtLjI0bC0xLjExLS4zM2MuMDEtLjA1LjAyLS4wOS4wMy0uMTRoMS4wOGMuMTgtMi41OC4zNy01LjEyLjU2LTcuODFabS00LjE1LDUuMzdjLjA4LjAxLjE3LjAyLjI1LjAyLjI1LTIuOC41LTUuNjEuNzUtOC40MS0uMDgtLjAxLS4xNi0uMDItLjIzLS4wMi0uMjYsMi44LS41Miw1LjYxLS43Nyw4LjQxWiIgY2xhc3M9ImNscy0xIi8+JiN4YTsgICAgICA8cGF0aCBkPSJtMjcuMzgsMjkuMThjLS4yOSwyLjQtLjU5LDQuNzktLjg4LDcuMTktLjA5LS4wMS0uMTgtLjAyLS4yNy0uMDMuMy0yLjQuNjEtNC44LjkxLTcuMi4wOC4wMi4xNi4wMy4yNC4wNFoiIGNsYXNzPSJjbHMtMSIvPiYjeGE7ICAgICAgPHBhdGggZD0ibTYzLjUyLDEzMS4yOGMtNi41OSwzLjA1LTE0LjE1LDQuNjMtMjIuMTcsMy4yMywzLjg4LjIzLDcuNzguNjIsMTEuNTgtLjI2LDMuODEtLjg4LDcuNTQtMi4xLDEwLjU5LTIuOTdaIiBjbGFzcz0iY2xzLTEiLz4mI3hhOyAgICAgIDxwYXRoIGQ9Im04Ny4wNSwxMjAuNTljLTMuNjMsMS43Ny03LjI2LDMuNTUtMTAuOSw1LjMyLS4wMy0uMDctLjA2LS4xMy0uMS0uMiwzLjYzLTEuNzksNy4yNi0zLjU4LDEwLjktNS4zNy4wNC4wOC4wNy4xNi4xLjI1WiIgY2xhc3M9ImNscy0xIi8+JiN4YTsgICAgICA8cGF0aCBkPSJtNDAuNiwxMzMuODdjLTIuMjktLjI5LTQuNTktLjU5LTYuODgtLjg4LjAxLS4wNS4wMS0uMS4wMi0uMTUsMi4zMS4yNSw0LjYxLjUsNi45Mi43NS0uMDMuMDktLjA1LjE4LS4wNi4yOFoiIGNsYXNzPSJjbHMtMSIvPiYjeGE7ICAgICAgPHBhdGggZD0ibTM0LjksMTMzLjY1YzEuOTMuMiwzLjg1LjQxLDUuNzguNjEtLjAxLjExLS4wMy4yMi0uMDQuMzMtMS45Mi0uMjUtMy44NC0uNDktNS43Ni0uNzQsMC0uMDYuMDEtLjEzLjAyLS4yWiIgY2xhc3M9ImNscy0xIi8+JiN4YTsgICAgICA8cGF0aCBkPSJtNjAuNzMsMTMxLjE1YzEuNjYtLjY0LDMuMzEtMS4yNyw0Ljk3LTEuOTEuMDMuMDcuMDYuMTUuMDkuMjItMS42Ni42My0zLjMxLDEuMjYtNC45NywxLjktLjAzLS4wNy0uMDYtLjE0LS4wOS0uMjFaIiBjbGFzcz0iY2xzLTEiLz4mI3hhOyAgICAgIDxwYXRoIGQ9Im0yNy45MSwxMzEuOWMxLjcuMjcsMy4zOS41Myw1LjA5LjgtLjAxLjA2LS4wMi4xMi0uMDMuMTgtMS42OS0uMjctMy4zOS0uNTQtNS4wOC0uODEsMC0uMDYuMDItLjEyLjAyLS4xN1oiIGNsYXNzPSJjbHMtMSIvPiYjeGE7ICAgICAgPHBhdGggZD0ibTU4LjcxLDEzMi4xMWMtMS41MS40Mi0zLjAxLjg1LTQuNTIsMS4yNy0uMDItLjA3LS4wNC0uMTUtLjA2LS4yMiwxLjUtLjQyLDMtLjg0LDQuNS0xLjI3LjAyLjA4LjA1LjE1LjA4LjIyWiIgY2xhc3M9ImNscy0xIi8+JiN4YTsgICAgICA8cGF0aCBkPSJtNTguNiwxMzAuOTJjMS4zNi0uNSwyLjczLTEsNC4wOS0xLjUuMDMuMDcuMDUuMTQuMDguMjItMS4zNi40OS0yLjcxLjk3LTQuMDcsMS40Ni0uMDQtLjA2LS4wNy0uMTItLjEtLjE4WiIgY2xhc3M9ImNscy0xIi8+JiN4YTsgICAgICA8cGF0aCBkPSJtNDIuMDEsMTMyLjZjMS4yOS4xMywyLjU4LjI1LDMuODYuMzgtLjAxLjA4LS4wMi4xNi0uMDMuMjUtMS4yOS0uMTQtMi41Ny0uMjktMy44Ni0uNDMuMDItLjA3LjAyLS4xNC4wMy0uMloiIGNsYXNzPSJjbHMtMSIvPiYjeGE7ICAgICAgPHBhdGggZD0ibTYzLjY1LDcyLjc0Yy0uMjYtMS40NS0uNTItMi44OS0uNzYtNC4zNC0uMTctMS4wMi0uMzEtMi4wNC0uNDctMy4wNi4wOC0uMDIuMTctLjAzLjI1LS4wNS4wOS41LjE4LDEsLjI1LDEuNDkuMjUsMS42Mi41LDMuMjUuNzIsNC44Ny4wNS4zNiwwLC43My0uMDEsMS4xLDAsLjAxLjAyLDAsLjAyLDBaIiBjbGFzcz0iY2xzLTEiLz4mI3hhOyAgICAgIDxwYXRoIGQ9Im02MS42Myw3My4xMmMtLjI4LTIuMi0uNTYtNC40LS44NS02LjYuMDgtLjAxLjE1LS4wMi4yMy0uMDMuMywyLjIuNjEsNC4zOS45MSw2LjU5LS4wOSwwLS4xOS4wMy0uMjkuMDRaIiBjbGFzcz0iY2xzLTEiLz4mI3hhOyAgICAgIDxwYXRoIGQ9Im01OS41Nyw3MC4zN2MuMTIsMS4wOC4yNCwyLjE1LjM2LDMuMjMtLjA3LjAxLS4xNC4wMi0uMjIuMDMtLjEzLTEuMDgtLjI3LTIuMTctLjQtMy4yNS4wOC0uMDEuMTctLjAxLjI2LS4wMVoiIGNsYXNzPSJjbHMtMSIvPiYjeGE7ICAgICAgPHBhdGggZD0ibTg3LDExMC40NmMuMTMtMS41Mi4yNS0zLjA0LjM4LTQuNTYuMDksMCwuMTcsMCwuMjYuMDItLjE1LDEuNTEtLjMsMy4wMS0uNDUsNC41Mi0uMDYsMC0uMTMuMDItLjE5LjAyWiIgY2xhc3M9ImNscy0xIi8+JiN4YTsgICAgICA8cGF0aCBkPSJtOTUuMDQsOTMuNDdjLjA5LDEuMjMuMiwyLjQ2LjI4LDMuNjkuMDMuNDkuMDEuOTkuMDEsMS40OWgtLjI1Yy0uMDgtMS43Mi0uMTctMy40My0uMjUtNS4xNS4wNy0uMDEuMTQtLjAyLjIxLS4wM1oiIGNsYXNzPSJjbHMtMSIvPiYjeGE7ICAgICAgPHBhdGggZD0ibTk1LjM2LDk5LjQ3Yy4yNSwxLjE0LjQ5LDIuMjcuNzQsMy40MS0uMDguMDItLjE3LjA0LS4yNS4wNi0uMjUtMS4xNC0uNTEtMi4yNy0uNzYtMy40MS4wOS0uMDIuMTgtLjA0LjI3LS4wNloiIGNsYXNzPSJjbHMtMSIvPiYjeGE7ICAgICAgPHBhdGggZD0ibTIwLjk3LDExNy43N2MtLjY2LjQ3LTEuMzEuOTUtMi4wMywxLjQ2LjMyLjc5LTEuMTYsMi4xOC0yLjA4LDIuMS0uOC0uMDgtMS42LS4yNC0yLjM5LS4zOC0uNjktLjEzLS44MS0uNi0uNDctMS4xLjQ1LS42Ny45OC0xLjMzLDEuOTgtMS4xMS0uNDUtLjc1LDAtMS44Ljk2LTEuODMsMS4zLS4wNSwyLjYxLjIzLDMuOTIuMzYuMDMuMTUuMDcuMzMuMTEuNVptLTMuMjEsMS43MWMtMS4wNS4zNC0yLjEtLjg3LTMuMjEuNTIuODguMTksMS41OS4zNCwyLjI5LjQ4LS4xNS4wNS0uMjkuMS0uNDYuMTVxMS4yMi4yOSwxLjM4LTEuMTVabS0xLjEtMS41MWMxLjA0LjA5LDEuNzQuMTUsMi40NC4yMS4xOC4wMi4zNy4wMy41NS4wNS0uMTMtLjIzLS4yMi0uNjMtLjQtLjY3LS42MS0uMTYtMS4yNC0uMjUtMS44Ny0uMjYtLjE5LS4wMS0uMzkuMzUtLjcyLjY3WiIgY2xhc3M9ImNscy0xIi8+JiN4YTsgICAgICA8cGF0aCBkPSJtMzIuNDEsMTIxLjUxYy0uMjYtLjIyLS41LS40Mi0uNzQtLjYzLDEuMzItMS41NCw0LjExLTEuNjQsNS42NS0uMS0uNzYuNDYtMS40Ny45LTIuMjIsMS4zNi4yNS44Ni0uNzYsMi4xMS0xLjkxLDIuMDQtLjg5LS4wNS0xLjc4LS4zLTIuNjYtLjUxLS41OS0uMTQtLjU5LS41Ny0uMzctMS4wMy4zOS0uNzguODgtMS4wMiwyLjI1LTEuMTNabTEuNjcsMS4xMmMtLjY2LS4xNS0xLjI2LS4yMy0xLjgzLS40Mi0uOTgtLjMyLTEuMzQuMTQtMS40NCwxLjAxLDIuOC43NywyLjkxLjc1LDMuMjctLjU5Wm0tMS4wNi0xLjk4Yy42Ny4yMiwxLjMuNDUsMS45NC42MS4yOC4wNy42MS0uMDUuOTEtLjA4LS4wNi0uMjMtLjA4LS42My0uMTgtLjY2LS43Ny0uMTktMS41Ni0uMzMtMi4zNS0uMzktLjEzLDAtLjMuNDgtLjMyLjUyWiIgY2xhc3M9ImNscy0xIi8+JiN4YTsgICAgICA8cGF0aCBkPSJtMzEuMDQsMTE5LjI4Yy0uMjYuNC0uNC42OS0uNi45Mi0uNjEuNzItMS4xNywxLjUtMS44NywyLjExLS40LjM0LTEuMDcuNjMtMS41Ny41Ni0yLjE3LS4yOS00LjMxLS43NC02LjQ3LTEuMDktLjc4LS4xMy0uOTYtLjQtLjQ0LTEuMDQuMjUtLjMxLjQ5LS42NC43Mi0uOTcsMS4xNS0xLjU3LDIuNTQtMi4xMyw0LjUzLTEuNTQsMS43Ni41MywzLjYyLjY5LDUuNywxLjA1Wm0tLjg1LjM3Yy0yLjQzLS40NS00LjY1LS44Ny02Ljg5LTEuMjctLjEyLS4wMi0uMjguMDItLjM4LjA5LS45OS43My0xLjg3LDEuNTYtMi41NCwyLjgsMi40My40Myw0LjcxLjg1LDYuOTksMS4yMy4yMS4wNC41NC0uMTIuNjktLjMuNjktLjc4LDEuMzMtMS41OSwyLjEzLTIuNTVaIiBjbGFzcz0iY2xzLTEiLz4mI3hhOyAgICAgIDxwYXRoIGQ9Im0zNS43Miw1OC42NmMuMDQsMS4xMy0uODEsMS43Ny0yLjA2LDEuNS0xLjI2LS4yOC0yLjIyLS45NC0yLjU2LTIuMjctLjEtLjM5LS4yNy0uNzktLjI2LTEuMTguMDItLjYtLjAyLTEuMzkuMzItMS43NC4zMi0uMzIsMS4xNS0uMzQsMS42OS0uMjEsMS43OS40MywyLjgxLDEuODksMi44NywzLjlabS0uMi4yYy0uMzktLjk3LS41OC0xLjgxLTEuMDQtMi40NC0uMjUtLjM0LS45OC0uMzEtMS40OC0uNDYtLjI5LS4wOC0uNTctLjItLjg2LS4yNy0uMjctLjA2LS43MS0uMi0uNzktLjEtLjE2LjIyLS4xMy41OC0uMTYuNzksMS4wMi4xNywxLjkxLjI4LDIuNzcuNDkuMjIuMDUuMzcuNDEuNTUuNjItLjI0LjE1LS40OS40My0uNzIuNDEtLjcxLS4wNC0xLjQyLS4xOS0yLjE4LS4zMS4wMi4wNy4wMi4zMy4xLjM1LDEuMTQuMjksMi4zLjU2LDMuODEuOTJaIiBjbGFzcz0iY2xzLTEiLz4mI3hhOyAgICAgIDxwYXRoIGQ9Im00NC43NSw1Ni4zMnYzLjU3aC0uMjVjLjA1LTEuMTguMTEtMi4zNi4xNi0zLjU1LjAzLDAsLjA2LS4wMi4wOS0uMDJaIiBjbGFzcz0iY2xzLTEiLz4mI3hhOyAgICAgIDxwYXRoIGQ9Im00NS43Myw1Ni44MmMtLjA4LDEuMDEtLjE3LDIuMDItLjI1LDMuMDMtLjA4LS4wMS0uMTctLjAyLS4yNS0uMDMuMS0xLjAxLjItMi4wMS4zLTMuMDIuMDcsMCwuMTQsMCwuMi4wMloiIGNsYXNzPSJjbHMtMSIvPiYjeGE7ICAgICAgPHBhdGggZD0ibTMuMzIsMTE1LjU1YzMuMzctMy40LDcuNS01LjY0LDExLjY4LTcuOC4wNS4wNy4xLjE0LjE1LjIxLS4zMS4xOC0uNjIuMzctLjk0LjU1LS4zMi4xOC0uNjUuMzQtMS4xMi41OWguNjNjLTIuODcsMS45LTUuNzgsMy44Mi04LjY5LDUuNzQsMCwwLS4wMy0uMDItLjA0LS4wMywxLjQ5LTEuMTYsMi45OC0yLjMxLDQuNDctMy40Ny0uMDQtLjA2LS4wOS0uMTItLjEzLS4xOS0yLjAxLDEuNDctNC4wMSwyLjkzLTYuMDEsNC40WiIgY2xhc3M9ImNscy0xIi8+JiN4YTsgICAgICA8cGF0aCBkPSJtOC4xLDExMy4xOWMxLjU5LS45OSwzLjE3LTEuOTgsNC43Ni0yLjk3LjA1LjA4LjEuMTYuMTUuMjQtMS41OC45OC0zLjE2LDEuOTYtNC43NCwyLjk0LS4wNi0uMDctLjExLS4xNC0uMTctLjIxWiIgY2xhc3M9ImNscy0xIi8+JiN4YTsgICAgICA8cGF0aCBkPSJtMTMuNjQsMTEwLjg1Yy0xLjExLjcxLTIuMjIsMS40Mi0zLjMyLDIuMTMtLjA0LS4wNi0uMDgtLjEzLS4xMy0uMTksMS4xLS43MiwyLjItMS40NSwzLjMtMi4xNy4wNS4wOC4xLjE1LjE1LjIzWiIgY2xhc3M9ImNscy0xIi8+JiN4YTsgICAgICA8cGF0aCBkPSJtNDcuMTMsMTIxLjAxYy0xLjQxLjU0LTIuODMsMS4wOC00LjI0LDEuNjItLjAzLS4wNy0uMDctLjEzLS4xLS4yLDEuMzgtLjYzLDIuNzYtMS4yNSw0LjE0LTEuODguMDYuMTYuMTMuMzEuMi40NloiIGNsYXNzPSJjbHMtMSIvPiYjeGE7ICAgICAgPHBhdGggZD0ibTkwLjA4LDIzLjI3Yy41OCwxMy4zNCwxLjE2LDI2LjY5LDEuNzQsNDAuMDMtLjA5LDAtLjE4LjAxLS4yNy4wMS0uNi0xMy4zNC0xLjItMjYuNjgtMS44LTQwLjAyLjEyLDAsLjIyLDAsLjMzLS4wMloiIGNsYXNzPSJjbHMtMSIvPiYjeGE7ICAgICAgPHBhdGggZD0ibTkxLjY2LDY3Ljc4di0zLjcycy4wOS0uMDEuMTMtLjAxdjMuNzJzLS4wOCwwLS4xMy4wMVoiIGNsYXNzPSJjbHMtMSIvPiYjeGE7ICAgIDwvZz4mI3hhOyAgPC9nPiYjeGE7PC9zdmc+;" vertex="1" parent="1">
          <mxGeometry x="296" y="210" width="108" height="150" as="geometry" />
        </mxCell>
        <mxCell id="5a-CCkB_ibbZyQVuqNtb-4" value="" style="shape=image;imageAspect=0;aspect=fixed;verticalLabelPosition=bottom;verticalAlign=top;image=data:image/svg+xml,PHN2ZyB4bWxucz0iaHR0cDovL3d3dy53My5vcmcvMjAwMC9zdmciIHZpZXdCb3g9IjAgMCAxMDcuODkgMTM3LjcyIiBkYXRhLW5hbWU9IkxheWVyIDIiIGlkPSJMYXllcl8yIj4mI3hhOyAgPGRlZnM+JiN4YTsgICAgPHN0eWxlPiYjeGE7ICAgICAgLmNscy0xIHsmI3hhOyAgICAgICAgc3Ryb2tlLXdpZHRoOiAwcHg7JiN4YTsgICAgICB9JiN4YTsgICAgPC9zdHlsZT4mI3hhOyAgPC9kZWZzPiYjeGE7ICA8ZyBkYXRhLW5hbWU9IkxheWVyIDEiIGlkPSJMYXllcl8xLTIiPiYjeGE7ICAgIDxnPiYjeGE7ICAgICAgPHBhdGggZD0ibTgzLjc2LDY3LjQxYy0xLjc3LTEuMTctMy42My0yLjAzLTUuODEtMS45OCwxLjE2LjQxLDIuMzQuODMsMy41MSwxLjI1LS4wMy4wOS0uMDYuMTgtLjA4LjI3LTIuNzEtLjU4LTUuMzUtMS43Ny04LjA4LTEuMTctLjEuNTgtLjA4LDEuMDctLjI3LDEuNDUtLjc2LDEuNDktMS44OCwyLjY2LTMuMzUsMy40Ny0uNTYuMzEtMS4zNi41OC0uNTQsMS40NC4wNS4wNi4wMi4yLjAxLjMxLS4yMiwzLjg0Ljc5LDcuNTEsMS40NywxMS4yMywxLjAyLDUuNTQsMS45MiwxMS4wOSwyLjk3LDE2LjYyLjQ2LDIuMzksMS4wOSw0Ljc0LDEuOCw3LjA3LjQ1LDEuNDYsMS4xOCwyLjgzLDEuNzgsNC4yNS4wOC0uMDMuMTYtLjA2LjI0LS4wOC0uMTctLjYyLS4zMy0xLjI1LS41LTEuODYtMi4zNy04LjE5LTMuMzMtMTYuNTItMS45My0yNC45NS42OS00LjEyLjQxLTguMjUuODMtMTIuMzUuMTgtMS43NC4zOC0zLjQ4Ljc4LTUuMTktLjE0LDIuOS0uMjksNS44LS40Myw4LjcuMDcsMCwuMTQuMDEuMjEuMDEuMTItMS42Mi4yMy0zLjI0LjM1LTQuODYuMDYsMCwuMTIsMCwuMTgtLjAxLDAsLjQ5LjAyLjk3LDAsMS40Ni0uNDEsNi45LS43NCwxMy44LTEuMjksMjAuNjktLjE4LDIuMjYuMDIsNC40LjYxLDYuNTYuMDQtLjY2LjA5LTEuMzEuMTMtMS45N2guMjZjLjA5LDEuNTMuMTQsMy4wNi4yOSw0LjU5LjMxLDMuMDUuNjIsNi4xMSwxLjA4LDkuMTUuMiwxLjMxLjcxLDIuNTgsMS4xNSwzLjg1LjM2LDEuMDIuODMsMS4wOSwxLjQ5LjI4LjAyLS4wMy4wNC0uMDcuMDYtLjA4LDEuNzMtLjg1LDEuMDMtMi4xLjc3LTMuNDctLjQ5LTIuNTgtLjcxLTUuMjItMS4wMS03Ljg0LS4yMS0xLjg1LS4zOC0zLjcxLS40Ny01LjU4LDEuMTMsMy4xOC44NCw2LjU3LDEuMzksMTAuMDIuMTYtMS44Ni4wMy0zLjYzLjUyLTUuMi41Mi0xLjY2LS4wMi0zLjIzLjIyLTQuODIuMjQtMS42MS40NS0zLjIzLjY5LTQuODUuMDQtLjI5LjIxLS41Ni41NS0uNzktLjI2LDEuOTUtLjUyLDMuOS0uOCw1LjkzLDIuNzItLjk2LDQuOTMtNi4wNCw2LjUzLTE0Ljc5LjA5LjI5LjE0LjQzLjE4LjU3LjA5LDAsLjE4LjAzLjI4LjA0LjIyLTEuNzIuNDYtMy40NC42NS01LjE3LjAzLS4yOS0uMDYtLjY2LS4yNC0uODgtMS4yOC0xLjYtMS4yNi0zLjY0LTEuODUtNS40Ny0uNDEtMS4yNi0uMTEtMi40Ny42OS0zLjQ0LDEuNDMtMS43NCwyLjk3LTMuMzksNC40OC01LjA3LjUtLjU2LDEuMDMtMS4xLDEuNzMtMS44NC0uMTEuNDUtLjE2LjYzLS4yMS44Mi0uMjcuMzMtLjU0LjY2LS44MSwxLTEuMzcsMS40Ny0yLjc1LDIuOTUtNC4xMiw0LjQyLTEuNDYsMS41Ny0xLjY5LDMuMzYtLjkyLDUuMzIuMzQuODYuNzEsMS43MiwxLjE2LDIuNzcuNjYtMS40OCwxLjI4LTIuNzQsMS44LTQuMDMuNTMtMS4zMi45NS0yLjY5LDEuNDctNC4wMS44Mi0yLjA5LDIuMTItMy44MiwzLjk0LTUuMTQsMi45Ni0yLjE2LDUuOTItNC4zLDguOTUtNi41MS0uNjEuNjUtMS4xMSwxLjM1LTEuNzcsMS44Ni0xLjksMS40Ni0zLjg0LDIuODgtNS44Miw0LjIyLTIuNywxLjgzLTQuNTUsNC4yNS01LjQ1LDcuNDYsMi42MS0yLjM3LDUuMi00LjcxLDcuNzgtNy4wNS4xLjEuMjEuMjEuMzEuMzEtLjI3LjI2LS41NS41Mi0uODIuNzgtMS45LDEuNzgtMy44MywzLjUzLTUuNjgsNS4zNi0xLjM3LDEuMzYtMS45MywzLjE0LTIuMyw1LjA2LDIuMy0xLjMxLDQuNDgtMi41Niw2LjY2LTMuODEuMDYuMDguMTIuMTcuMTkuMjUtLjE1LjEzLS4yOS4zLS40Ni40LTEuMi43MS0yLjQ4LDEuMjktMy41OSwyLjEyLTEuMzcsMS4wMi0yLjYxLDIuMjItMy44NywzLjM5LS40MS4zOC0uNiwyLjg0LS4yNSwzLjE4LjE5LjE5LjYyLjE5Ljk0LjE5LDIuMDguMDIsNC4xNSwwLDYuMzksMC0xLjQ1LjgxLTMuMTgtLjI0LTQuNDMuOTMsMS4xNC42LDIuMjYsMS4xNiwzLjMzLDEuNzguMzguMjIuOTEuNDEuNjcsMS4xLS4wNi4xNy4yOS41MS40OS43MywxLjA1LDEuMTUsMi4xMSwyLjI5LDMuMTYsMy40NC0uMDYuMDctLjEyLjE0LS4xOC4yLS4zNy0uMzItLjc1LS42My0xLjEtLjk3LTEuMTMtMS4xNC0yLjIyLTIuMzEtMy4zNi0zLjQzLTEuNDYtMS40My0zLjE1LTIuMzgtNS4yNy0yLjQtLjY0LDAtMS4wOC4xOS0xLjIxLjg3LS41MiwyLjktMS4wNCw1LjgtMS41Miw4LjctLjAzLjE4LjI2LjU2LjQ2LjYxLDEuMjEuMjksMi40My41OCwzLjY2Ljc1Ljg0LjExLDEuNy4wMiwyLjczLjAyLS4yNS4yOS0uMzYuNDMtLjU3LjY4LDMuNDYsMS4zNCw2Ljg4LDIuNjUsMTAuMywzLjk3LS4wMS4wNC0uMDEuMDgtLjAyLjEzLTEuMDEtLjI1LTIuMDUtLjQxLTMuMDItLjc2LTIuMzItLjg1LTQuNjEtMS43Ny02Ljg5LTIuNy0xLjA2LS40My0yLjA5LS41OS0zLjI0LS4zMi0xLjA3LjI2LTIuNDMtLjAzLTMuMjQuNTQtLjc4LjU0LS45MiwxLjkxLTEuNSwyLjgyLS43NSwxLjE5LTEuNjYsMi4yOC0yLjQ3LDMuMzgsMS41Mi0uMjgsMy4xNi0uMjUsNC43MS43LS4xMi4wOC0uMTkuMTYtLjIyLjE0LTEuNjUtLjcxLTMuMTYtLjQ5LTQuNTYuNjItLjE2LjEzLS4zNy4yLS41NS4yOS0yLjA0LDEtMi4xNCwxLjIyLTEuOTUsMy41MS4wNy43Ni4wMSwxLjU0LjAxLDIuMywyLjMzLTEuNDIsNC44NC0yLjI2LDcuNjEtLjk1LTEuNDEsMC0yLjgzLS4xMy00LjIxLjA0LTEuNDEuMTYtMi42NS44MS0zLjQzLDIuMTEtLjU4Ljk4LS40NiwxLjcuNTQsMi4yOC40OS4yOSwxLjA4LjQ1LDEuNjUuNTYsMy41My42Niw1LjksMi45Nyw4LjAzLDUuNjYtMi43MS0zLjAzLTUuOTctNC45MS0xMC4yNy01LjEzLjIyLjM5LjM2LjYzLjUzLjk1LS40My4zOS0uODguOC0xLjMzLDEuMjEtLjM5LjIyLS43OS40NS0xLjI1LjcxLjMuMzYuNDkuNTkuNjguODItMi42LTEuMjItNS4zNS0xLjQ1LTguMTUtMS4yMi00Ljk1LjQtOS44OS45Ni0xNC44NSwxLjI4LTIuMzguMTUtNC43OS0uMDUtNy4xOC0uMTMtMi45Mi0uMS01LjgzLS4xNy04Ljc0LS4zNi00LjktLjMyLTkuNzgtLjktMTQuMjUtMy4xNC0xLjc5LS45LTMuNDktMS45Ny01LjI0LTIuOTUtLjMtLjE3LS42NC0uMjYtMS4xNi0uNDcuMjMuMzYuMzQuNTQuNTQuODUtMS40MS0uNjgtMi42Ni0xLjM3LTMuOTctMS44OC0xLjQ2LS41Ny0yLjg1LjMtMy4yLDEuOTEuMzYuMTQuNzIuMjksMS4wOS40MywwLC4wNy0uMDEuMTQtLjAxLjIxLS43LDAtMS40MS0uMDMtMi4xMSwwLS45My4wNS0xLjU5LjM4LTEuOTMsMS40MS0uMTguNTMtLjg2LDEuMS0xLjQyLDEuMjQtMS44MS40NS0yLjQzLjY0LTMuNDcsMS42NiwyLjE5LS41NywzLjk2LjA1LDUuNjguOTYtMS45Ny0uMi0zLjktMS4zOS01LjktLjE5LS43My40NC0xLjQ5Ljg2LTIuMTcsMS4zOC0uMjcuMi0uMzUuNjQtLjU2LDEuMDYuMjkuMDUuNDYuMTIuNi4wOSwxLjYyLS4zMSwzLjE5LS4xOSw0Ljc1LjM5LjU0LjIsMS4xNy4xNSwxLjczLjIxLS4wNS4xNy0uMTIuNTMtLjI2Ljg3LS4xNS4zNi0uMzEuOTMtLjU3Ljk5LS40NS4xMS0xLjE5LjA4LTEuNDUtLjIxLTEuNDUtMS42Mi0zLjI1LTEuNjQtNS4wMy0xLjA1LTEuMDIuMzQtMS44NywxLjIzLTIuNzgsMS44OS0uMzQuMjUtLjY2LjU0LS45OC44MS0uMS0uMTEtLjE5LS4yMS0uMjktLjMyLDEtLjk2LDIuMDItMS45MSwzLjAxLTIuODkuMzctLjM3LjctLjc5LDEtMS4yMi4yMi0uMzEuMjgtLjgzLjU2LS45NywxLjczLS45MywyLjYyLTIuOTQsNC42MS0zLjUyLjE5LS4wNS40NC0uMTYuNTEtLjMxLjgyLTEuNywyLjQ0LTIuMjMsNC4wNS0yLjc0LjQ3LS4xNS44Mi0uMTYuNzUtLjg0LS4wNy0uNywxLjUxLTEuOTUsMi40LTEuODgsMS4yNi4xLDIuNTEuMzQsMy42Mi41LS4yMi0uNTItLjUyLTEuMjMtLjgyLTEuOTNoLS4wMWMuMTQuMS4zNS4xNi40Mi4yOSwxLjA3LDIuMjEsMy4xNywyLjk2LDUuMzgsMy44MS0uOC0xLjAzLTEuNTItMS45Ni0yLjI0LTIuOS4wNy0uMDUuMTQtLjExLjIxLS4xNi45MiwxLDEuNzksMi4wNywyLjc4LDIuOTksMS41MiwxLjQxLDMuNDMsMS45Nyw1LjQ2LDIuMTMsMS4xNS4wOSwyLjE5LS4xMywzLjA0LS45N2gtLjAxYy4wNi0uMDIuMTMtLjAzLjE5LS4wNy42NS0uNDEsMS42MS0uNjksMS44NC0xLjI3LjIxLS41Mi0uNDYtMS4zNC0uNi0yLjA2LS4zMy0xLjctLjc0LTMuNC0uODMtNS4xMi0uMjEtNC4wOS0uMTMtOC4yMS0uNDMtMTIuMjktLjEyLTEuNjktLjgyLTMuMzYtMS40NC00Ljk3LTIuODUtNy40MS0yLjc4LTE1LTEuNjItMjIuNjguMDgtLjU0LjM0LTEuMDYuNTMtMS41OC4wNy0uMTkuMTgtLjM3LjIyLS40Ni0xLjQxLDcuOTgtMS42LDE1Ljk2LDEuMDgsMjQuMSwxLjIxLTEuNDgsMi4yLTIuNzIsMy4yMy0zLjkzLDEuNDktMS43NywzLjEzLTMuMzMsNS4yOS00LjMuNjEtLjI3LDEuMTUtLjk0LDEuNDYtMS41NiwxLjQ1LTIuODQsMi44My01LjcxLDQuMTktOC42LDEuMjctMi43LDIuNDEtNS40NywzLjc4LTguMTEuNjMtMS4yMywxLjY4LTIuMjQsMi42NS0zLjI0LS44MywxLjQ5LTEuODEsMi45MS0yLjQ2LDQuNDgtMS4zMSwzLjE4LTIuNDUsNi40Mi0zLjY2LDkuNjUtMS4zMywzLjU1LTMuNyw2LjM0LTYuNTEsOC43OS0xLjI4LDEuMTEtMi42OCwyLjA4LTMuOTMsMy4yMS0xLjIzLDEuMS0yLjM3LDIuMy0zLjQ5LDMuNS0uMTkuMjEtLjI0Ljc0LS4xMiwxLjAzLDEuNjUsMy45OSwxLjU2LDguMiwxLjczLDEyLjQuMSwyLjQyLjI3LDQuODMuNDIsNy4yNC4wMi4zOC4xMi43Ni4xOSwxLjEzLjQ1LDIuMjMsMS42NSwyLjcxLDMuNjEsMS40LDEuMTUtLjc3LDIuMjMtMS42NywzLjM3LTIuNDYuOTQtLjY1LDEuOTMtMS4yMywyLjkxLTEuODMsMS4zMy0uODEsMi4yNi0xLjkzLDIuNjQtMy41NS0uOTktLjU5LTEuOTktMS4xOS0yLjk5LTEuNzktLjEzLS4xMy0uMjYtLjI2LS4zOS0uMzktLjYxLS42Ny0xLjIxLTEuMzUtMS44Mi0yLjAyLjA3LS4wNy4xNS0uMTQuMjItLjIyLjQ3LjQzLjkyLjksMS40MiwxLjMuOTMuNzMsMS44NywxLjQ0LDIuODQsMi4xMS4yNy4xOS42OC4xOCwxLjAzLjI2LjEtLjQ1LjM1LS45My4yNy0xLjM0LS4yNC0xLjE1LS42NS0yLjI3LS45NC0zLjQyLS40My0xLjc0LS44MS0zLjQ5LTEuMjEtNS4yNC4wOS0uMDIuMTktLjA1LjI4LS4wN2wyLjczLDkuODRjLjA4LS4wMi4xNi0uMDQuMjQtLjA2LS4xNi0uNjgtLjMyLTEuMzUtLjQ5LTIuMDMuMDgtLjAyLjE2LS4wNS4yNC0uMDcuOCwyLjQ0LDEuNjEsNC44OSwyLjQxLDcuMzNoLjI1Yy4xMi0uNzQuMTktMS41LjM2LTIuMjMuMjYtMS4wOC40Ni0yLjIuOTItMy4xOSwxLjcyLTMuNzIsMy41OS03LjM2LDUuMy0xMS4wOS40NS0uOTcuNjMtMi4xMi42OS0zLjIxLjExLTEuOTQuMDMtMy44OC4wMy02LjAyLDEuODEsNC4wNi40NSwxMy4yOS0yLjM4LDE2LjI5LjU0LTEuOTQsMS44OC0zLjUyLDEuMzktNS43Ni0uOTgsMi4xMS0xLjg4LDQuMDYtMi44LDYuMDQuNjMuMzUsMS4xLjYyLDEuNjguOTUuNS0uOTQuOTktMS44OCwxLjUxLTIuODEsMy40MS02LjE0LDMuMzItMTIuMjItLjQzLTE4LjE3LTEuMDQtMS42NS0xLjI3LTMuNTEtMS44NC01LjM1LS40Ni4zMy0uOS42NS0xLjM0Ljk4LS4wNi0uMTEtLjEzLS4xOS0uMTEtLjIxLDIuMDQtMi41Niw0LjEzLTUuMSw2LjEyLTcuNy44Mi0xLjA3LDEuNDItMi4zLDIuMTQtMy40NS4yLS4zMi40Ni0uNTkuNy0uODktLjIsMS4zNy0uNTUsMi42Ni0xLjQ5LDMuNzgtMS42LDEuOTItMy4wOSwzLjkyLTQuNjIsNS45LS42Ni44NS0uNzcsMi4yNy0uMTMsMy4wMSwyLjEyLDIuNDQsMy41MSw1LjIzLDQuMjgsOC4zNi0uMi0yLjk3LS45LTUuOC0yLjE2LTguNDksMS43NiwzLjE3LDMuNTQsNi4zMiwzLjM0LDEwLjE1LjY3LTQuMzctLjk2LTguMTItMy4yOS0xMS42Ny4wOS0uMDUuMTgtLjA5LjI2LS4xNC41MS42LDEuMDIsMS4xOSwxLjU0LDEuNzkuMDUtLjAzLjA5LS4wNi4xNC0uMDktLjU0LTEuMzQtMS4wNy0yLjY4LTEuNjEtNC4wMi4xMS0uMDQuMjItLjA3LjMzLS4xMSwyLjMsMy4zOSwyLjkzLDcuMzMsMy42MSwxMS4yMy4xOC0xLjc5LDEuMDYtMy40NC43MS01LjQ5LS40OC0yLjg3LS4zMy01Ljg1LS40NC04LjU0LS4zMi40OS0uOTIsMS4yMi0xLjMsMi4wNC0uNDUuOTgtLjYzLDEuMS0xLjgyLjM4LDEuMDguMDYsMS40Ni0uNDQsMS40NS0xLjMzLDAtLjEzLjE2LS4yOC4yNy0uNC4zLS4zMS43NS0uNTYuOTEtLjkzLjQzLS45NS43NC0xLjk0LDEuMDgtMi45Mi41Mi0xLjQ1LjM1LTEuODQtMS4wOC0yLjUtMS42OS0xLjI0LTMuMzYtMi41MS01LjA4LTMuNjktLjY3LS40Ni0xLjQ2LS43NC0yLjEzLTEuMjMsNy4xMSwxLjg5LDguNTEsNC4xNiwxMS40NSw4LjkyLS4zNi4yMy0uNzMuNDUtMS4wOS42OC4wMy4wOS4wNS4xOC4wOC4yOC43My0uMjEsMS41MS0uMzQsMi4xOS0uNjcuNy0uMzQsMS4zMi0uODcsMi4wOC0xLjM5LS40NCwxLjY5LTMuMzQsMy4yLTYuMDEsMy4xNi4xNywxLjI4LjI0LDIuNTUuNTIsMy43OC40NiwxLjk4LjM3LDMuOTEtLjA2LDUuODgtLjQsMS43OS0uNDQsMy42Ny0uOTUsNS40Mi0uODEsMi43OC0xLjg3LDUuNDktMi44NSw4LjIyLS40OCwxLjM0LTEuMTIsMi42My0xLjUxLDMuOTktLjE2LjU2LDAsMS4zMS4yNCwxLjg3LDEuMzUsMy4yMywzLjMzLDYuMDksNS41Miw4LjgxLDEuMjQsMS41NCwyLjUxLDMuMDcsMy44MSw0LjU1LDEuMjgsMS40NSwyLjYzLDIuODUsMy44Niw0LjQyLTEuMDQtLjgxLTIuMDgtMS42MS0zLjEzLTIuNDItLjA2LjA0LS4xMi4wOC0uMTkuMTIuMTguNS4zNi45OS41NCwxLjQ5LjI1LjY1LjUxLDEuMjkuNzYsMS45NC42OCwxLjc1LjY4LDEuNzQsMi42MSwxLjc5LjY1LDAsMS4zMS4wOCwyLjI4LjE1LS40OS0xLjA2LS45LTEuOTYtMS4zMi0yLjg1LS4yLS40My0uNDMtLjg2LS42LTEuMy0yLjM4LTYuMjUtNC4zNS0xMi42Mi01LjM4LTE5LjI0LS43OS01LjExLTEuNDMtMTAuMjUtMi4wNS0xNS4zOS0uMTctMS4zNy0uMDMtMi43Ny0uMDktNC4xNi0uMDItLjUzLS4yMi0xLjA2LS4zNi0xLjY2LDIuMDMtMS4yOCwzLjczLTMuMDgsNC40OC01LjUyLjktLjEsMS43NS0uMTcsMi41OS0uMzEsMi4yNC0uMzgsNC40Ni0uMzEsNi41NC42Mi44LjMxLDEuMzgsMS4wNiwyLjA0LDEuNjNoMFptLTI1LjY3LDQxLjEyYy0uMjEtMi45MS4zMS01LjcyLDEuMTctOC40OS4xMy0uNDMuMTItLjkuMTgtMS4zNi0uMDksMC0uMTctLjAyLS4yNi0uMDMtLjMyLDEuMzYtLjc4LDIuNzEtLjkyLDQuMDgtLjE4LDEuOTMtLjEyLDMuODctLjE3LDUuOC4xMiwxLjQ1LjI5LDIuOS4zNCw0LjM2LjAzLDEuMDYtLjA5LDIuMTMtLjE0LDMuMi0uMTcuMDQtLjM0LjA5LS41MS4xMy0xLjAzLTEuNjMtMi4yMS0zLjE5LTMuMDQtNC45Mi0xLjQ0LTIuOTYtMi42Ni02LjAzLTMuOTgtOS4wNS0uMS0uMjMtLjI1LS40NC0uNDQtLjc4LS44LDEuMDItMS40NywxLjk1LTIuMjMsMi44MS0uNzEuOC0xLjQzLDEuNjItMi4yNywyLjI2LTEuMDEuNzctMi4xNSwxLjM5LTMuMjYsMi4wMy0xLjIzLjcxLTIuNTIsMS4zMy0zLjc1LDIuMDUtMS45MiwxLjExLTMuODIsMi4yNy01Ljk2LDMuNTUuNzUuMjUsMS4yMy40MiwxLjcyLjU2LDMuNzksMS4xNSw3LjY4LDEuNTcsMTEuNjIsMS42OCwyLjk4LjA4LDUuOTUuMzMsOC45Mi4zNywyLjE5LjAzLDQuMzgtLjEzLDYuNTYtLjI4LDEuOTItLjEzLDMuODQtLjM1LDYuMDQtLjU2LS44OC0uNTYtMS41MS0uOTYtMi4xNC0xLjM2LS4xMy4xOS0uMjUuMzctLjQ4LjcxLS4wNi0uNTMtLjA3LS44Ny0uMTQtMS4yLS4zLTEuNDItLjM4LTIuOTUtLjk4LTQuMjMtMS4xOC0yLjUxLTIuODUtNC43OS0zLjQ3LTcuNTctLjM4LDEuNTctLjI1LDMuMDIuNTksNC40Mi40Ny43OS43MiwxLjcyLDEuMDgsMi41OC4xNC4zNS4zMS42OS40NiwxLjAzLjA0LS4wMi4wOC0uMDQuMTItLjA3LS4wOC0uNDEtLjE1LS44My0uMjMtMS4yNGwuMzYtLjA5Yy40MywxLjQ3LjkzLDIuOTQsMS4yNiw0LjQzLjA5LjQxLS4zMS45NC0uNDgsMS40MS0uMzctLjE1LS43My0uMjktMS4xLS40NC0uMjIuNTEtLjQ0LDEuMDMtLjY3LDEuNTUtLjEzLS4wNS0uMjYtLjEtLjM4LS4xNi4yOS0uNjUuNTQtMS4zNC45Mi0xLjkzLjA1LS4wOC43Ny4yNiwxLjMxLjQ1LS4yMy0uOC0uNDUtMS41OS0uNjctMi4zNy0uMDguMDItLjE2LjA1LS4yNC4wNy0uMTEuMjktLjIyLjU3LS4zMy44Ni0uMTEsMC0uMjIsMC0uMzMsMC0uMTctMS0uMzUtMi0uNTItMy4wMS0uMDcsMC0uMTUuMDItLjIyLjAzdjUuOTZjLS4wOS4wMy0uMTcuMDUtLjI2LjA4LS4yLS41NS0uNC0xLjExLS42MS0xLjY2LS4yOS0uNzguMy0xLjQuMzgtMi4xLjEzLTEuMTcuMDctMi4zNi4wNC0zLjU0LS4wMS0uMzItLjE3LS42My0uMjctLjk0LS4xMywwLS4yNS4wMi0uMzguMDN2Ni4zOGMtLjEyLDAtLjI0LDAtLjM2LDAtLjA3LS4zNi0uMjItLjczLS4yLTEuMDkuMTItMS45Ny4yOC0zLjkzLjQyLTUuOS4wMi0uMjcuMS0uNzMsMC0uNzctLjc2LS4zMy0uNDItLjk4LS40Ny0xLjQ5LS4wOS0uOTktLjEzLTEuOTgtLjE5LTIuOTctLjk5LDIuNjYtMS4xNCw1LjM3LS40NSw4LjEydi00Ljc4Yy4xLDAsLjE5LDAsLjI5LjAydjEwLjMzYy0uNDctMi41MS0uODgtNC43NC0xLjI4LTYuOTZabS0yLjMxLDIuOTRjLjE4LS4wMy4zNi0uMDYuNTMtLjA5LTEuNTYtNC41OS0uMTYtOC44NCwxLjMxLTEzLjA2LS41NS0uMjMtMS4wMi0uNDItMS41OC0uNjUtMS4yNywzLjM3LTIuMDYsNi44LTEuNDksMTAuMzkuMTksMS4xNy44MSwyLjI4LDEuMjMsMy40MVptMTMuMzUsMy4wNGMtLjE3LjA1LS4zNC4xMS0uNTEuMTYtLjc4LTEuOTQtMS40NS0zLjkzLTIuMzUtNS44MS0uOTgtMi4wNC0yLjE3LTMuOTktMy4yNi01Ljk4LS4xMy4wNi0uMjUuMTMtLjM4LjE5LDEuNSw0LjQ1LDQuMzcsOC4yOSw1LjgsMTIuNjYsMS4yMi4yMSwxLjM3LS4zNywxLjQzLTEuMy4xNS0yLjM1LTEuMjUtMy45OS0yLjM4LTUuODUuNTcsMi4wMywxLjExLDMuOTgsMS42NSw1LjkzWm0tLjA0LTQuMzdjLjEyLS4wNi4yMy0uMTIuMzUtLjE4LS41Mi0uOTUtLjk2LTEuOTctMS41OS0yLjg1LTEuMTItMS41OC0yLjM3LTMuMDYtMy41My00LjYxLS43Mi0uOTUtMS4zOC0xLjk0LTIuMDYtMi45Mi0uMDguMDQtLjE2LjA3LS4yNC4xMS4xNy40Ny4yNS45OS41MiwxLjM5Ljk0LDEuMzYsMS45NiwyLjY3LDIuOTQsNC4wMSwxLjIxLDEuNjgsMi40LDMuMzcsMy42MSw1LjA1Wm0xOC4xNC0xNS4yOXMtLjA5LDAtLjE0LDBjLTEuMiwxLjM3LTIuMzUsMi43OS0zLjYzLDQuMDctLjg2Ljg2LTEuMTIsMS40My0uNTIsMi45NywxLjUtMi40NiwyLjg5LTQuNzUsNC4yOS03LjAzWm0tMTcuMTMsMTUuNDFjLjA1LDEuNDMuMTEsMi45OC4xNSw0LjU0LjAxLjQ4LjEyLjkxLjY3Ljc0LjI5LS4wOS43MS0uNS42OS0uNzQtLjEzLTEuNy0uNjYtMy4yOC0xLjUxLTQuNTRabS0yLjczLDQuNzNjLS4wMi0xLjM3LTEuMzctMy44Ny0yLjUzLTQuNy4xNS4zOC4yOS42OS40MSwxLjAxLjEyLjMyLjMyLjY2LjMuOTgtLjA5LDEuNDQuMzcsMi4xOSwxLjgyLDIuNzFabS0xNy4zNS01MC42N2MtLjEtLjA1LS4yLS4xLS4zMS0uMTQtMS4xNCwyLjg1LTIuMjcsNS43LTMuNDEsOC41NS4xMS4wNC4yMi4wOS4zMy4xMywxLjEzLTIuODUsMi4yNi01LjY5LDMuMzktOC41NFptMjAuNDQsMjEuNDdjLS4wNy4wMi0uMTQuMDQtLjIxLjA2LjQ2LDMuMDMuOTIsNi4wNywxLjM4LDkuMS4wOSwwLC4xOC0uMDMuMjYtLjA0LS40OC0zLjA0LS45NS02LjA4LTEuNDMtOS4xMlptNS4yOCwxNC4xNWMtLjEzLjAyLS4yNi4wNC0uNC4wNy4zOCwyLjEzLjc2LDQuMjYsMS4xNCw2LjM5LjEtLjAyLjE5LS4wMy4yOS0uMDUtLjM0LTIuMTQtLjY5LTQuMjgtMS4wMy02LjQxWm0xMi44My00LjcxYy0uMTYtLjA4LS4zMS0uMTYtLjQ3LS4yNS0uNjIsMS40MS0xLjI0LDIuODItMS44Nyw0LjIzLjA4LjA0LjE1LjA4LjIzLjEyLjctMS4zNywxLjQtMi43NCwyLjExLTQuMVptLTI3LjExLDguODJjLjE1LS4wMy4yOS0uMDYuNDQtLjA5LS4zMi0xLjU5LS42NC0zLjE5LS45Ni00Ljc4LS4xLjAyLS4xOS4wMy0uMjkuMDUuMjcsMS42LjU0LDMuMjEuODEsNC44MlptLS43My05LjFjLS4wOSwwLS4xOCwwLS4yOC0uMDItLjE4LjkxLS4zNywxLjgzLS41OSwyLjk1LDEuMDItLjc5LDEuMDktMS4xLjg3LTIuOTNabTMxLjAyLS44OWMtLjAxLS4xLS4wMi0uMTktLjAzLS4yOS0xLjAyLjAzLTIuMDgtLjM1LTMuMDYuMTYuMDEuMTMuMDIuMjUuMDMuMzgsMS4wMS0uMDgsMi4wNC0uMTYsMy4wNi0uMjVabS0yNS4yOS0zMS41M2MuMDYuMDYuMTIuMTMuMTguMTkuMjktLjE3LjU3LS4zNS43MS0uNDMuMzMuMzEuNTguNTQuODMuNzcuMDgtLjA4LjE2LS4xNi4yNC0uMjUtLjQ3LS41My0uOTMtMS4wNi0xLjU3LTEuNzgtLjE3LjY3LS4yOCwxLjA5LS4zOSwxLjVabS0uMjIsNi4xNGMtLjA4LjAxLS4xNy4wMi0uMjUuMDMuMDksMS4xNS4xOCwyLjMuMjcsMy40NS4xNi0uMDIuMzEtLjA0LjQ3LS4wNS0uMTctMS4xNS0uMzMtMi4yOS0uNDktMy40M1ptLTguOSwzOC4wNnMtLjA3LDAtLjExLDBjLjEzLDEuODkuMjcsMy43OC40LDUuNjcuMDcsMCwuMTUsMCwuMjItLjAyLS4xNi0xLjg5LS4zMy0zLjc4LS41MS01LjY2Wm0yMC41MSw2LjQyYy0uMDkuMDQtLjE4LjA3LS4yNy4xMS4zLjg0LjYsMS42OC45LDIuNTMuMTItLjA1LjI1LS4xLjM3LS4xNS0uMzMtLjgzLS42Ny0xLjY2LTEtMi40OVoiIGNsYXNzPSJjbHMtMSIvPiYjeGE7ICAgICAgPHBhdGggZD0ibTIxLjM4LDYyLjgyYy0uNTItLjY1LTEuMDQtMS4yOS0xLjY4LTIuMDgtLjcyLjE2LTEuNDItLjA0LTEuMTgtMS4yOS0uNzMtLjIxLTEuNDItLjQxLTIuMS0uNi0uMDEtLjA4LS4wMi0uMTctLjAyLS4yNSwxLjI4LS4xMywyLjI3LTEuMjQsMy43My0uODMuMzUuMS44MS0uMTcsMS4wMy0uMjMtLjA2LTEuMDItLjA3LTEuODYtLjE3LTIuNy0uMDQtLjM0LS4yNC0uNjctLjM3LTEuMDEtLjMyLjE3LS42My4zNS0uOTUuNTItLjExLjA2LS4yNi4xNi0uMzUuMTItMS4wOC0uNDYtMS43Ny4xNS0yLjUxLjgxLjE1LS4yOC4zLS41Ni40MS0uNzYtMS4wMi0uMjgtMi4wMy0uNTUtMy4wMy0uODJ2LS4yMmMuOTEsMCwxLjgxLjAxLDIuNzIsMCwxLjA0LS4wMSwyLjA4LDAsMy4xMi0uMDguMjUtLjAyLjY1LS4zMy42OC0uNTUuMTQtLjk5LjE1LTIsLjI2LTIuOTkuMDktLjgxLS4yOC0xLjA4LTEuMDMtMS4yMy0xLjU4LS4zMS0zLjA0LS4xMS00LjM5Ljc3LS4xOS4xMi0uNC4yLS43NC4xMi4zMi0uMjcuNjEtLjYuOTctLjgsMS4yOS0uNzQsMi42OC0uOTIsNC4xMy0uNTYsMS4zMy4zMiwxLjczLjA1LDIuMS0xLjMxLjM5LTEuNDQuNzMtMi45MSwxLjI5LTQuMjkuNDItMS4wMi4xNS0xLjY3LS42My0yLjIyLS42NC0uNDQtMS4zNS0uNzgtMi4xNy0xLjI0LDEuNDgtLjA2LDIuMzYuNzIsMy4yNiwxLjc5LjM3LS43NC42OS0xLjM4LDEuMDItMi4wMS4wOC4wMy4xNi4wNi4yNC4wOS0uMzksMS4yOC0uODMsMi41NS0xLjE2LDMuODQtLjYzLDIuNDItMS4yMSw0Ljg1LTEuNzgsNy4yOC0uMS40MS0uMTYuNzUuMzksMS4xMS4zMi4yMS4zNiwxLjE5LjIsMS43My0uMjIuNzctLjIxLDEuMzUuNTYsMS42MS40MS4xMy45Mi0uMDUsMS40Ny0uMDktLjA2LjMxLS4yMi45LS4yOCwxLjUtLjAyLjI0LjEuNTYuMjcuNzIuMTEuMS40OS4wNi42NS0uMDUuODctLjYyLDEuMzctLjUxLDEuNzcuNTcuMy43OSwyLjMyLjcyLDIuNzQtLjA0LjQxLS43NS43Ni0xLjUzLDEuMTQtMi4zLjA5LjA0LjE5LjA4LjI4LjEyLS4zOC45Mi0uNzcsMS44My0xLjIzLDIuOTUuNTMuMDQsMS4xOC4yOSwxLjQ1LjA4LDEuMTktLjk0LDIuNjQtMS44MSwyLjA3LTMuNzcuNDEuMTIuNzIuMjEsMS4wMy4zLS4xNS42OS0uMzEsMS4zOC0uNDYsMi4wOC4wOC4wMy4xNi4wNy4yNS4xLDIuNjQtMy4wMiw0LjY1LTYuNDQsNi4zOC0xMC4wNnYuNjNjLjA5LS4xMS4xNi0uMTcuMi0uMjUuNC0uOC4yOC0xLjU5LS40Mi0yLjA2LTIuMDktMS4zOS0zLjY4LTMuNTMtNi4xNi00LjI5LTIuMzUtLjcyLTQuNzYtMS4yNC03LjE0LTEuODQtLjM5LS4xLS44LS4xNC0xLjE4LS4zMiw0LjA4LS4xNSw3Ljc4LDEuMTMsMTEuNDIsMy4xMi0uMDItLjIzLS4wMy0uMzgtLjA1LS41Mi0uMDItLjE3LS4wNi0uMzMtLjE2LS44NS41Ny40LDEuMTIuNTcsMS4yNC45LjQ2LDEuMjUsMS4yNywyLjE3LDIuMzgsMi43OC43Mi40LjI3Ljk5LjQ1LDEuNDcuMjUuNjcuMzIsMS40MS41MiwyLjM3LDEuMTMtLjU2LDIuMzYtMS4xNywzLjQ5LTEuNzQtLjI4LDEuMDktMS42OCwyLjE5LTMuMTMsMi4xNC0uODQtLjAzLTEuMjUuMjktMS42MS45OC0xLjgzLDMuNTMtNC4wMyw2LjgxLTYuNjcsOS44LS43NS44NS0xLjQ5LDEuMzUtMi43LDEuMDItMi42NC0uNzItNS4zMS0xLjM0LTcuOTUtMi4wNS0uOTctLjI2LTEuODItLjU4LTIuMzMuNzMtLjEzLjM0LS44Mi40NS0xLjIzLjcxLS4zLjE5LS41Ni40Ni0uNzcuNzcsMS45OS0uMDcsMS43NiwxLjcyLDIuNDUsMi42N2gtLjAzWm0xLjMyLTguMDRjLS4wOS4xMi0uMTguMjQtLjI3LjM2LjQyLjMxLjg1LjYzLDEuMjcuOTQuMDktLjEyLjE4LS4yNC4yNy0uMzYtLjQyLS4zMS0uODQtLjYyLTEuMjctLjk0WiIgY2xhc3M9ImNscy0xIi8+JiN4YTsgICAgICA8cGF0aCBkPSJtNi4yLDEyNS4yOGMuMi0uMDMuNDQtLjA3LjkzLS4xNS0yLjM5LTEuMDMtNC43MS0uODYtNi45OS0uOTYsMC0uMTUsMC0uMy0uMDEtLjQ1LjgtLjA4LDEuNi0uMiwyLjQtLjIxLDEuMTMtLjAyLDIuMjgtLjA2LDMuNC4wNywyLjE5LjI2LDQuMzguNzcsNi4xMywyLjE0LDEuOTUsMS41Myw0LjE5LDIuMTUsNi41LDIuMTYsMy4wMi4wMiw2LjA0LS40Miw5LjA1LS42NywwLS4xNy0uMDEtLjM0LS4wMS0uNS0uODgtLjA1LTEuNzctLjA5LTIuNjUtLjE0LS4wMi0uMDYtLjAzLS4xMS0uMDUtLjE3LjYtLjA4LDEuMjEtLjIzLDEuODEtLjIzLDEuNjIsMCwzLjI2LjI0LDQuODYuMSwyLjg4LS4yNSw1LjU2LjMsOC4wMSwxLjc1LDIuMTcsMS4yOCw0LjQ5LDEuOTgsNi45NSwyLjM4LDEuNy4yOCwzLjM2Ljc3LDUsMS40MWgtMS4wM2MzLjA3LDEuMjYsNS45MywyLjQ1LDguOCwzLjYzLS4wMy4wNy0uMDUuMTQtLjA4LjIxLS44LS4yOC0xLjYtLjU2LTIuNC0uODUtMy41LTEuMjUtNi45Mi0yLjg1LTEwLjUyLTMuNjYtNS4wOS0xLjE2LTEwLjE0LTIuNzgtMTUuNDQtMi44Ni0yLjQ5LS4wNC01LC4xNC03LjQ5LjM2LTQuMjEuMzctOC4yMi0uNDMtMTIuMTYtMS44Mi0xLjYyLS41OC0zLjMzLTEuMDMtNS4wMS0xLjU0Wm0zMy43NSwzLjczYy4wMy0uMDkuMDUtLjE5LjA4LS4yOC0yLjYyLTEuMzgtNS4zMi0yLjQ0LTguNjQtMS43NywzLC43Myw1Ljc4LDEuMzksOC41NiwyLjA1WiIgY2xhc3M9ImNscy0xIi8+JiN4YTsgICAgICA8cGF0aCBkPSJtODMuNzcsNjcuNDFjLjgzLjAzLDEuMTctLjM4LDEuMTktMS4yLjA3LTMuMzMuMTUtNi42Ni4yNy05Ljk5LjA3LTEuOTQtLjA5LTMuODEtLjk3LTUuNTgtLjI0LS40OS0uMzYtMS4wNS0uNDctMS41OS0uMTUtLjc2LjEyLTEuMzIuOC0xLjc2LjQxLS4yNy43LS43MiwxLjA4LTEuMTMuMzMuNDUuMjEuOTUtLjQ0LDEuMjYtLjk2LjQ1LTEuMTIsMS4xNy0uODEsMi4wNy4zOCwxLjE0LjgsMi4yNiwxLjEsMy4xLDEuMTktNS4wMSwyLjQzLTEwLjIyLDMuNjMtMTUuMjMuNTEuMDQsMS4wMS4yMywxLjMuMDcsMy4yMi0xLjgxLDUuOTUtMS4wMSw4LjkuOTQsMi40MywxLjYxLDUuMzUsMi40Nyw4LjU0LDEuOTYtLjg5LjUtMi44NC43Mi00LjMuMzEtMi42NC0uNzQtNS4yNC0xLjYtNy44Ni0yLjQtLjc1LS4yMy0xLjUxLS40MS0yLjI3LS42Mi4wMi0uMTEuMDQtLjIyLjA2LS4zMiwxLjI1LjIsMi40OS4zOSwzLjk1LjYyLTEuNTUtMS4xNS0zLjA0LTEuMzgtNC42OC0uOS0uOTYuMjgtMS45NS40OS0yLjkuOC0uMjYuMDgtLjU3LjQtLjYxLjY1LS43Niw0LjM0LTEuNSw4LjY5LTIuMjIsMTMuMDQtLjMzLDEuOTgtLjYzLDMuOTctLjg4LDUuOTYtLjA3LjU3LjA5LDEuMTcuMDksMS43Ni4wMSwyLC4xOCw0LjAyLS4wNiw1Ljk5LS4yNSwyLjEtMS42MiwzLjEyLTMuMjcsMi44Ni0uMTktLjAzLS4zNy0uMTQtLjU4LS4yMS41LS4xOC45NS0uMzIsMS40MS0uNDYsMCwwLDAsMCwwLDBabTEuNDQtMS42OGMuMTUuMDIuMzEuMDQuNDYuMDYuMTYtMS4zOC4zMi0yLjc2LjQ4LTQuMTMtLjA4LS4wMS0uMTctLjAyLS4yNS0uMDMtLjI0LDEuMzYtLjQ3LDIuNzMtLjY5LDQuMVoiIGNsYXNzPSJjbHMtMSIvPiYjeGE7ICAgICAgPHBhdGggZD0ibTE5LjcxLDEwNy4wNmMtLjI0LS40OS0uNDgtLjk5LS44LTEuNjUuMDYuNDcuMS43OC4xMywxLjA5LS4xLjAyLS4yLjA0LS4zLjA2LS4yNy0xLjQyLS42MS0yLjgzLS43OS00LjI2LS41MS00LS44Ni04LjAxLS4zOC0xMi4wNC40MS0zLjQ0LjgzLTYuODksMS4xNS0xMC4zNC4zNS0zLjY5LjExLTcuMzYtLjgtMTAuOTYtLjE5LS43NC0uNjMtMS40My0xLjAyLTIuMTEtLjQ3LS44My0uOTktMS42My0xLjUtMi40NC4wOC0uMDUuMTYtLjEuMjQtLjE1LjM5LjY0Ljc4LDEuMjksMS4xNywxLjkzLjA4LS4wMy4xNy0uMDcuMjUtLjEtLjEzLS4zNC0uMjQtLjctLjQxLTEuMDMtMS4yNy0yLjQ2LTIuNTMtNC45My0zLjgzLTcuMzgtLjY5LTEuMy0uNzctMi42NC0uNDMtNC4wNGgtLjAxYy4wOC44Ni4xMywxLjcxLjI0LDIuNTYuMDQuMzEuMTkuNjEuNDkuODkuMDUtLjM2LjEtLjcyLjE0LS45My4yNi45MS41NSwxLjk1Ljg4LDIuOTguMTMuNDIuMzIuODIuNTEsMS4yMSwxLjAyLDIuMDgsMi4wNyw0LjE1LDMuMDUsNi4yNS41NCwxLjE1LDEuMTgsMi4zMSwxLjQyLDMuNTQuMzcsMS44Ni41NCwzLjc5LjU4LDUuNjkuMDUsMi4zNi0uMTEsNC43Mi0uMTgsNy4wOC0uMDEuNDQsMCwuODksMCwxLjQ1LDEuNDItLjA1Ljk1LTEuMjYsMS4zMy0xLjgzLjE4LDEuMjItLjA0LDEuNDQtLjg0LDIuMjItLjQ1LjQ0LS43MSwxLjIzLS43NiwxLjg5LS4zNyw0LjUtLjgyLDktLjkxLDEzLjUxLS4wNCwxLjg5Ljc0LDMuOCwxLjE0LDUuNy4wOS40MS4xNS44MS4yMiwxLjIyLDAsMCwuMDItLjAxLjAyLS4wMVptLTIuMDQtMTEuMzdjLjExLDAsLjIyLjAyLjMyLjAzLjM5LTQuMTIuNzgtOC4yNCwxLjE2LTEyLjM2LS4xLDAtLjIxLS4wMi0uMzEtLjAzLS4zOSw0LjEyLS43OCw4LjI0LTEuMTcsMTIuMzZaIiBjbGFzcz0iY2xzLTEiLz4mI3hhOyAgICAgIDxwYXRoIGQ9Im03Mi43Myw2NC41NGMuMzEtLjkyLjY5LTEuODIuOTItMi43Ni41Ni0yLjMyLjkxLTQuNzEsMS42Mi02Ljk4LDEuMDUtMy4zOCwyLjE5LTYuNzQsMy41OC05Ljk5LDEuNDEtMy4yOSwyLjI5LTYuNywzLjExLTEwLjE1LjMyLTEuMzQuMjEtMi43MS0uNzYtMy44NCwxLjMtLjk5LDEuOTctMS4wMSwzLjAxLjE5Ljg0Ljk2LDEuNTEsMi4wNywyLjIzLDMuMTQuNzIsMS4wNiwxLjQsMi4xNCwxLjk1LDMuMzUtLjM2LS4zOC0uNzctLjcyLTEuMDYtMS4xNC0uOTItMS4zNS0xLjc4LTIuNzQtMi43MS00LjA4LS4zNy0uNTMtLjgzLTEuMDUtMS4zNi0xLjQyLS4zNS0uMjQtLjktLjIxLTEuNjMtLjM1LDEuNjMsMy40MS44Nyw2LjU0LjAyLDkuNTYtLjk4LDMuNDctMi4zMyw2LjgzLTMuNSwxMC4yNS0xLjA2LDMuMDktMi4wNyw2LjE5LTMuMTYsOS4yNy0uNjEsMS43Mi0xLjM1LDMuMzktMi4wNCw1LjA4LS4wNy0uMDUtLjE0LS4wOS0uMjItLjEzWm01LjYxLTE2LjcxYy0uMTEtLjA0LS4yMi0uMDktLjMyLS4xMy0uODksMi43Mi0xLjc3LDUuNDUtMi42Niw4LjE3LjA4LjAzLjE3LjA1LjI1LjA4LjkxLTIuNzEsMS44Mi01LjQyLDIuNzMtOC4xMloiIGNsYXNzPSJjbHMtMSIvPiYjeGE7ICAgICAgPHBhdGggZD0ibTU0Ljk3LDUxLjc2YzEuMTQuNTkuMDcsMS4yOS4wNywxLjk0LDAsLjE5LS4yNy4zOS0uNDQuNTZzLS4zNy4zMS0uNDIuNjdjLjc1LS40NiwxLjUxLS45MiwyLjM3LTEuNDQtLjMxLS4xOS0uNDctLjI4LS42MS0uMzYuMjMtLjE5LjQ2LS4zOC44Ny0uNzItLjM4LS4yMS0uNjgtLjM3LS45Ny0uNTMuMDQtLjA3LjA5LS4xNS4xMy0uMjIuMjYtLjAyLjUxLS4wMS43Ny0uMDUuMzUtLjA2LjctLjE1LDEuMDQtLjIyLS4xMy0uMzQtLjIxLS43LS4zOS0xLjAxLS4yNi0uNDUtLjUzLS45LS44OC0xLjI3LS44Mi0uODUtMS4yMS0uNzgtMS44My4yMy0uMS4xNy0uMjIuMzMtLjQ2LjQ0LjQ3LTEuMjMuOTUtMi40NywxLjQyLTMuNy0uMDEsMCwuMDkuMDQuMDkuMDUtLjI5LDEuMDUtLjMxLDEuODguODcsMi41Ni43MS40MSwxLjEyLDEuMzUsMS44LDIuMjIuMTUtLjU2LjI1LS45Ni40Mi0xLjU5LjE1LjQ3LjIzLjc0LjM1LDEuMTUuNDQtLjM0LjgzLS42NCwxLjQxLTEuMDgtLjU0LS4wNC0uODUtLjA2LTEuMTQtLjA4LjE4LS4zMy4zNy0uNjYuNTctMS4wMi41My42NSwxLjI2LjQzLDIuMDQuMDEuMTktLjEuNTQuMTEuODIuMTctLjEuMDUtLjIxLjExLS4zMi4xNi0xLjc4LjI1LTIuMTgsMi4xNy0zLjUzLDIuOTguMjUtLjA4LjQ5LS4xNi43NC0uMjVoLS4wMWMtLjc3LjY4LTEuNTEsMS4zOS0yLjMsMi4wNS0yLjA5LDEuNzQtNC41NiwyLjc0LTcuMjIsMi45Mi0xLjc0LjEyLTMuNjMuNC01LjI1LS42My0uNjQtLjQtMS4zOS0uOTctMS42MS0xLjYzLS41Mi0xLjU2LS43NS0zLjIxLTEuMDktNC44Mi4xMy0uMDQuMjUtLjA4LjM4LS4xMi4yOC41NS41NSwxLjA5Ljg2LDEuNzEuMjQtLjM1LjUtLjczLjc2LTEuMTIuMDYuMDMuMTMuMDUuMTkuMDgtLjI0LjQ5LS40NS45OS0uNzIsMS40Ni0uODMsMS40MSwwLDMuMzYsMS41NywzLjg5LDEuNDguNSwyLjkyLjM5LDQuNi0uMDMtLjQyLS4zNy0uNzMtLjY0LTEuMDItLjg5LS4xNC4wMy0uMjIuMDMtLjI3LjA3LS40OC4zMy0uODMsMS4wNi0xLjU5LjYyLS44LS40Ny0uMS0xLjA0LS4wNi0xLjU2LjAzLS4zNi4xNC0uNzEuNDUtMS4wMy0uMDkuNTEtLjIyLDEuMDItLjI2LDEuNTQtLjAyLjI3LjExLjU2LjE3LjgzLjIzLS4xLjU3LS4xNC42OC0uMzEuNDItLjY3Ljc3LTEuMzksMS4xLTIuMDEsMCwuMTYuMDMuNTEtLjAxLjg2LS4wOC43NS4zLDEuMy45NCwxLjQuMzEuMDUuNzItLjUxLDEuMDctLjgxLjEyLS4xLjItLjI2LjQ1LS4zMi0uMTMuMzItLjI1LjY0LS4zOC45NS4wOC4wNi4xNi4xMS4yNC4xNy40MS0uNy44LTEuNDIsMS4yNC0yLjEuMy0uNDcuNTgtMS4wNiwxLjAyLTEuMjkuMjgtLjE0Ljg1LjMzLDEuMjguNTItMS41Mi0uMzUtMS44Ni0uMDgtMS43MSwxLjM2Ljk1LjAyLDEuNTYtLjM3LDEuNzEtMS4zNlptLS42MywxLjk0Yy0uODYtLjA1LTEuNjQtLjAyLTIuMTMuODctLjE3LjMyLS43NS40NC0xLjE1LjYyLS4zMS4xNC0uNjMuMjQtLjk0LjM2LDEuOS40LDIuOTItMS4wMiw0LjIyLTEuODVaIiBjbGFzcz0iY2xzLTEiLz4mI3hhOyAgICAgIDxwYXRoIGQ9Im03NS45MiwzMi45NGMuMjgtLjExLjU2LS4yMy44NC0uMzMuNjUtLjIyLDEuMzMtLjM3LDEuOTMtLjY5LjI4LS4xNS40LS42LjQtMS4wNi0uMTQuMDUtLjI3LjExLS4xNS4wNi0uODctLjcyLTEuNjMtMS4zNS0yLjM5LTEuOTguMDItLjA0LjA1LS4wOS4wNy0uMTMuNDkuMjcuOTcuNTMsMS41OS44Ny0uMTQtMi42My0xLjQ2LTQuOTktLjgtNy41Mi40MSwyLjMuODIsNC42LDEuMjMsNi45LjA2LS4wMS4xMS0uMDIuMTctLjAzLjQ0LTMuMjUuODctNi40OSwxLjMxLTkuNzQuMTQtMS4wNi4zMS0yLjEyLjQ2LTMuMTguMi0xLjQyLS4xMi0yLjczLS43MS00LjA3LjI3LjMxLjU1LjYxLjgyLjkyLjA2LDAsLjEyLDAsLjE3LS4wMi0uMTYtLjctLjMxLTEuNC0uNDgtMi4xLS4zNy0xLjU3LS43Mi0zLjE2LTEuMTQtNC43Mi0uNTctMi4xMS0xLjg4LTMuNzctMy4zMS01LjM2LS4xMy0uMTUtLjI2LS4zLS41OS0uNjcuMzguMTUuNTIuMTcuNi4yNSwyLjIsMi4yMSwzLjksNC42OCw0LjMzLDcuODguMjMsMS42OC42OSwzLjMzLjk3LDUsLjM2LDIuMTMuNSw0LjI2LS4xNCw2LjM5LS42MSwyLjAzLTEuMjYsNC4wNi0xLjU4LDYuMTUtLjQyLDIuNzctLjI5LDUuNTUsMS41LDcuOTktLjEuMDUtLjE5LjEtLjI5LjE1LS40NS0uNi0uOS0xLjItMS4zNC0xLjc4LS44OSwxLjE5LTIuMy42Ni0zLjQsMS4xNS0uMDEtLjEyLS4wNC0uMjMtLjA3LS4zM1ptNS40LTE3LjFjLS4xMi0uMDEtLjIzLS4wMS0uMzUtLjAyLS4xLDEuMDMtLjIsMi4wNy0uMywzLjEuMDYuMDEuMTMuMDIuMTkuMDIuMTUtMS4wMy4zLTIuMDYuNDYtMy4xWiIgY2xhc3M9ImNscy0xIi8+JiN4YTsgICAgICA8cGF0aCBkPSJtODEuNjcsMTE3LjQyYzEuODMsMi4zMSwzLjUzLDQuNzMsNS41Miw2Ljg5LDEuNzcsMS45MywzLjg1LDMuNTcsNS45MSw1LjIzLTEuNDktMi4xOC0yLjcyLTQuNDUtNC44OC02LjE4LTIuNjEtMi4wOS00Ljc2LTQuNzMtNi4zNC03Ljc1Ljk2LjkzLDEuOTYsMS44MywyLjg2LDIuODEsMS4yOCwxLjQsMi41MSwyLjg2LDMuNzMsNC4zMSwxLjQ3LDEuNzQsMy4wNCwzLjQyLDQuMzQsNS4yOSwxLjE4LDEuNywyLjM3LDMuMyw0LjE1LDQuNDMuOTUuNiwxLjc3LDEuNDIsMi42NSwyLjE0aDBjLTEuMzctLjg2LTIuNzktMS42Ni00LjEtMi42LTMuNDMtMi40Ny02LjgyLTUuMDMtOS41OS04LjI1LTEuMzctMS42LTIuNTQtMy4zNy0zLjc2LTUuMDktLjIzLS4zNS0uMzItLjgyLS40OS0xLjIzWiIgY2xhc3M9ImNscy0xIi8+JiN4YTsgICAgICA8cGF0aCBkPSJtNzUuMDIsMjMuNzljLjM5LjI1LjcxLjMyLjc2LS4zLjAzLS4zMS4wNi0uNjEuMDktLjkyLjEsMCwuMi4wMS4zMS4wMS0uMDksMS4xMy0uMTksMi4yNS0uMjgsMy4zOC0uMTUsMS45Mi0uMzEsMy44My0uNDYsNS43NS0uMDIuMzIsMCwuNjQsMCwuOTUtLjExLjAyLS4yMy4wNC0uMzQuMDUtLjM3LTEuMjctLjc1LTIuNTUtMS0zLjQzLS40OSwxLjA2LTEsMi41Ny0xLjgyLDMuODktMS4yLDEuOTItMy4xMSwyLjc1LTQuNzQsMi4xMy0uOC0uMy0xLjUyLS45My0yLjE1LTEuNTMtLjUzLS41LS40Ny0xLjE3LS4wOS0xLjY3LjMyLjU3LjY0LDEuMTQuOTYsMS43MWgtLjAxYy44OSwxLjE5LDIuNDMsMS41LDMuNzYuNTMsMi4wNi0xLjUyLDMuMzItMy42MSwzLjY3LTYuMTYuMjUtMS44Mi4wMi0zLjU5LS43My01LjMtMS40Ni0zLjMyLTQuMTgtMy45Ni02LjkxLTEuNjItLjI1LjIyLS41MS40NC0uODkuNzUsMS41My0zLjAzLDUuMTgtMy40OCw3LjIyLTEuMDQsMS4yMSwxLjQ1LDEuNjgsMy4xNywxLjg4LDQuOTkuMTcsMS41Mi4zMiwzLjA1LjQ4LDQuNjEuMy0xLjY0LjY4LTMuMjIuODUtNC44Mi4wNi0uNjItLjM2LTEuMjktLjU2LTEuOTN2LS4wM1oiIGNsYXNzPSJjbHMtMSIvPiYjeGE7ICAgICAgPHBhdGggZD0ibTMzLjA5LDI0LjkxYy4wNy0uNDYuMTQtLjkyLjIxLTEuMzcsMi40OS40MSwzLjQ0LDMuMDksMi43Nyw4LC4xOS0uMjEuMjgtLjMzLjM4LS40NC4wNS4wMS4xMS4wMy4xNi4wNC0uMjMuNzMtLjQxLDEuNDgtLjY5LDIuMTgtLjQsMS0uOTIsMS45NS0xLjMzLDIuOTQtLjIxLjUtLjQ2LDEuMDctLjQsMS41OC4wNS40OC4zOSwxLjA1Ljc4LDEuMzMuMjUuMTcuODktLjAxLDEuMjUtLjIyLDEuMTQtLjY5LDEuOTYtLjY3LDMuMDIuMjEtLjMyLjEyLS42NC4yMy0uOTUuMzQsMCwuMDQuMDEuMDkuMDEuMTNoMS43NmMtMS4zMy42NS00LjA0LjY5LTUuMTUuMTUtMS4xNy0uNTYtMS40OS0xLjQ2LTEuMDQtMi44OC4zOS0xLjI2Ljc3LTIuNTIsMS4xOC0zLjc3LjcxLTIuMi45Mi00LjM1LS41Ni02LjM1LS4wNy0uMDktLjA0LS4yNi0uMDYtLjQ1LjE5LS4wNC4zNC0uMDkuNS0uMTEuMTYtLjAyLjMzLS4wMi42OS0uMDQtLjY0LTEuMS0xLjgxLS43Ni0yLjUzLTEuMjdaIiBjbGFzcz0iY2xzLTEiLz4mI3hhOyAgICAgIDxwYXRoIGQ9Im05OS42MiwxMzQuNmMuNzEuMzQsMS4wMS0uMTUsMS4yNy0uNjYuOTUtMS44MSwxLjg1LTMuNjUsMi44NS01LjQ0LjY3LTEuMjEsMS40Ni0yLjM2LDIuMjQtMy41LjI2LS4zOC42OC0uNjUsMS4xMS0uODktLjYyLDEuMTMtMS4zMywyLjIyLTEuODQsMy4zOS0uODcsMS45OS0xLjYsNC4wNC0yLjQ1LDYuMDQtLjQzLDEuMDItLjk5LDEuOTktMS41MSwyLjk3LS4xNy4zMS0uMzkuNi0uNTkuODktLjA5LS4wNC0uMTgtLjA4LS4yNy0uMTMuMy0uOTMuNTktMS44Ni44OS0yLjc5LS4wNi0uMDItLjEzLS4wNC0uMTktLjA1LS40LjYtLjc1LDEuMjUtMS4yMiwxLjc5LS40OC41NS0xLjA4LDEtMS42MywxLjUtLjA4LS4wOS0uMTctLjE3LS4yNS0uMjYuNS0uNTIuOTctMS4wOSwxLjUxLTEuNTYuNTMtLjQ0LjUtLjg0LjA4LTEuMy4wMSwwLDAsMCwwLDBaIiBjbGFzcz0iY2xzLTEiLz4mI3hhOyAgICAgIDxwYXRoIGQ9Im00Ny42MiwyOC4xM2MuMDctLjY0LS4yNS0uODItLjgxLS42Ny0uNzcuMi0xLjU0LjQyLTIuMzEuNi0xLjM1LjMyLTIuMDgtLjI0LTIuMzgtMS41OS0uMDctLjMxLS42My0uNS0xLjAyLS43OS4zOS0uOTgsMS42MS0xLjU4LDIuODMtMS4yMy45LjI2LDEuOC40OSwyLjY4LjguNTQuMTkuNjYuNTkuMjMsMS4wNS0uNTgtLjI4LTEuMTUtLjU1LTEuNzYtLjg0LS4xMS43OC0uMTgsMS4yOS0uMywyLjEyLjgzLS41MSwxLjQ0LS45LDIuMDYtMS4yOC4wNiwxLjE4LjkzLjM2LDEuNDQuNjMuMjkuNTkuMDcsMS4wMy0uNTgsMS4zMS0uMDItLjA0LS4wNS0uMDctLjA4LS4xMVoiIGNsYXNzPSJjbHMtMSIvPiYjeGE7ICAgICAgPHBhdGggZD0ibTMwLjM2LDY4Ljk1Yy0uMDUuODktLjAzLDEuNzktLjE2LDIuNjctLjUyLDMuMy0uMDksNi41Ny4xMyw5Ljg2LjE2LDIuNDEuMTYsNC44NSwwLDcuMjctLjE2LDIuNS4xOSw0Ljc4LDEuODEsNi43NiwxLjA3LDEuMzIsMS4yOSwyLjg2LDEuMiw0LjctLjEzLS4zNi0uMjYtLjU0LS4yNC0uNy4xNy0xLjY2LS42My0yLjk2LTEuNTctNC4xOS0xLjU0LTIuMDEtMS44Ny00LjI3LTEuNTUtNi43MS4zOC0yLjkxLjItNS44Mi0uMTktOC43MS0uNDMtMy4yLS4zNi02LjM3LjI4LTkuNTMuMDktLjQ2LjA4LS45NS4xMi0xLjQyLjA2LDAsLjEyLDAsLjE3LDBaIiBjbGFzcz0iY2xzLTEiLz4mI3hhOyAgICAgIDxwYXRoIGQ9Im02OC44NiwxMy41M2MtLjQtLjg2LS44MS0xLjcyLTEuMjEtMi41OS4wOS0uMDUuMTktLjEuMjgtLjE1LjUzLDEuMDcsMS4wNywyLjEzLDEuNTYsMy4xLjg5LS40MSwxLjc4LS44MSwyLjY3LTEuMjIuMS4xMy4yMS4yNS4zMS4zOC0xLjcyLjY1LTMuNzEsMS4xNi0yLjIsMy41NS0xLjIzLTEuNjEtMi40Ni0zLjIyLTMuNjEtNC43My0xLjA4LjY4LTEuOTksMS4zNC0yLjk4LDEuODUtLjc2LjM5LTEuNTQuMjItMi4xNS0uNDYtLjAyLS4wMy0uMDQtLjA1LS4wNy0uMDgtMS4zNS0xLjM5LTEuNzYtMS4zOC0zLjA1LjA3LS4xNi4xNy0uMy4zNi0uNTEuNDcuMTItMS41NCwxLjM0LTEuOTEsMi40Mi0yLjQ1LjI0LjMxLS4xNCwxLjI1Ljc4LjY4LjAzLS4wMi4yNi4yNi4zNy40Mi42OSwxLjAxLDEuODcsMS4zNCwyLjg1LjY0LjcxLS41MSwxLjI3LTEuMjQsMS45MS0xLjg2LjE1LS4xNS4zMy0uMjYuNS0uMzguMDguMTUuMTQuMzEuMjMuNDUuNTIuODMsMS4wNCwxLjY2LDEuNTYsMi40OS4xMS0uMDUuMjMtLjEyLjM0LS4xOFoiIGNsYXNzPSJjbHMtMSIvPiYjeGE7ICAgICAgPHBhdGggZD0ibTM5LjUxLDIzLjQ4Yy45Mi0uMTgsMS44Ny0uMjcsMi43NS0uNTYsMi4wOC0uNzEsMi4wNy0uNzUsNC41OC0uNDgtLjg5LjExLTEuNTMuMDktMi4xLjI4LTEuNzQuNTctMy40NSwxLjIzLTUuMTcsMS44My0uNDUuMTYtLjkyLjMxLTEuMzguMzQtMS4xNi4wNy0xLjQxLS4yNC0xLjI2LTEuNTguMi40MS4zNS43NC41NSwxLjE1LjUtLjkuOTQtMS42OCwxLjM3LTIuNDUuMDguMDMuMTUuMDYuMjMuMDh2LjQyYy43My0uMDcsMS40Mi0uMTEsMi4xMS0uMjEuNzctLjExLDEuNTQtLjI2LDIuMzEtLjM5LjAyLjEuMDMuMi4wNS4zLTEuMzguMjgtMi43NS41NS00LjEzLjgzLjAyLjE0LjA1LjI5LjA5LjQ0WiIgY2xhc3M9ImNscy0xIi8+JiN4YTsgICAgICA8cGF0aCBkPSJtMzYuOTYsMTAwLjgxYzEuNC43NywyLjc5LDEuNTQsNC4zNywyLjQxLS40LTEuMTUtLjczLTIuMS0xLjA3LTMuMDUuMS0uMDYuMjEtLjExLjMxLS4xNy45MiwxLjk5LDEuMzEsNC40Myw0LjE1LDQuODUtLjA5LjExLS4xOC4yMy0uMjcuMzQtLjU2LS4xOS0xLjExLS4zNy0xLjY0LS41NS0uMTYuNDQtLjMuODMtLjQ0LDEuMjItLjQzLS4yMy0uODYtLjQ2LTEuMzUtLjczLS4wNy40NS0uMTIuOTYtLjI0LDEuNDUtLjE1LjU5LS42Ljc4LS45OC4zMS0uNjItLjc2LTEuMS0xLjYzLTEuNjQtMi40NS4xMS0uMDguMjItLjE2LjM0LS4yNC41NC43OCwxLjA4LDEuNTYsMS42NywyLjQyLjE4LS42My4yMS0xLjI5LjU1LTEuNjkuMi0uMjMuODktLjA0LDEuNTYtLjA0LS4zOS0uNC0uNzMtLjktMS4xOS0xLjItMS4xLS43Mi0yLjI3LTEuMzQtMy40LTIuMDEtLjMxLS4xOS0uNTktLjQ0LS44OC0uNjYuMDUtLjA1LjEtLjEzLjE1LS4yMVoiIGNsYXNzPSJjbHMtMSIvPiYjeGE7ICAgICAgPHBhdGggZD0ibTQ5LjQ1LDc2LjAyYy4yNC0uMzEuNjEtLjYuNjktLjk1LjUyLTIuNDUuOTgtNC45LDEuNDQtNy4zNi4yNi0xLjM2LjQ3LTIuNzQuNzItNC4xLjA3LS4zOS4yMy0uNzYuMzUtMS4xMy4wOC4wMi4xNy4wNC4yNS4wNi0uMTMuODQtLjI1LDEuNjktLjQxLDIuNTMtLjYyLDMuMjctMS4yMyw2LjU1LTEuOTIsOS44LS4xMi41Ni0uNjQsMS4wMy0uOTUsMS41NS0uMTcuMjktLjMuNi0uNDEuOTEtLjEuMjktLjE2LjYtLjQ2Ljg3LS40Mi0xLjcxLS4yMy0zLjM4LjMxLTUuMDV2Mi42MWMuMTQuMDkuMjYuMTguMzkuMjZaIiBjbGFzcz0iY2xzLTEiLz4mI3hhOyAgICAgIDxwYXRoIGQ9Im0zNS4zMSw5LjcyYy0xLjc2LDMuOTUtMi40MSw4LjEyLTIuNDIsMTIuNTEtMS41My0yLjQ1LS4wNy0xMC4xNCwyLjQyLTEyLjUxWiIgY2xhc3M9ImNscy0xIi8+JiN4YTsgICAgICA8cGF0aCBkPSJtODUuOTMsNzkuMDZjLS4zNS02Ljc0LjIyLTEzLjM2LDIuMzctMTkuODEtMS41Niw2LjUyLTIuMTEsMTMuMTUtMi4zNywxOS44MVoiIGNsYXNzPSJjbHMtMSIvPiYjeGE7ICAgICAgPHBhdGggZD0ibTcxLjAzLDIzLjgyYy4zNy4yOC43NS41NiwxLjI1Ljk0LS4yMi0uNzItLjQxLTEuMzUtLjYtMS45OCwxLjI1LDEuMzcsMS4yNiwzLjAxLDEuMDUsNC42Ni0uMjksMi4yLTEuNCw0LjA2LTIuNzgsNS43My0uMzEuMzctLjkyLjYtMS40My42Ny0uNzUuMS0xLjUyLS4wMS0yLjI4LS4wM2guMDFjLjY2LS4xNCwxLjM2LS4yMSwxLjk4LS40Ny42NC0uMjgsMS4yLS43NCwxLjg3LTEuMTctLjMzLS4zOS0uNTUtLjY0LS43Ny0uODkuMDMtLjA2LjA2LS4xMy4wOS0uMTkuMzEuMTEuNjMuMjIuOTQuMzMsMS45Mi0xLjYyLDIuMjQtNS4wOC42OS03LjZoLS4wMloiIGNsYXNzPSJjbHMtMSIvPiYjeGE7ICAgICAgPHBhdGggZD0ibTY5Ljg5LDI3Yy40NSwxLjMyLjA2LDIuNTMtLjM3LDMuNTgtLjU0LjA2LS44OS4wNy0xLjIzLjE2LS4zNy4wOS0uNzEuMjktMS4wNy4zOS0xLjA3LjI4LTEuMjIuMDQtMS4xMi0xLjA3LjA4LS45NS0uMDYtMS45MS0uMTEtMi44LjI4LjMuNy43NCwxLjE2LDEuMjIuMzMtLjIyLjYyLS40MiwxLjExLS43NS0uMzIuOS0xLjA4LDEuNTgtLjIzLDIuNDksMS4yMy0uNjksMS42NS0xLjg2LDEuODYtMy4yMloiIGNsYXNzPSJjbHMtMSIvPiYjeGE7ICAgICAgPHBhdGggZD0ibTk0LDY0LjdjLjI3LS4zMy41NC0uNjYuODEtMSwxLjYzLTEuOTQsMy4yNS0zLjg5LDQuOS01LjgxLDEuNDMtMS42NiwyLjg4LTMuMjksNC4zNC00LjkyLjM2LS40Ljc4LS43MywxLjMxLS45NS0zLjg5LDQuNi03Ljc4LDkuMi0xMS42NiwxMy44MS0uMDctLjA1LS4xMy0uMS0uMi0uMTYuMTYtLjMyLjMzLS42NS41LS45N1oiIGNsYXNzPSJjbHMtMSIvPiYjeGE7ICAgICAgPHBhdGggZD0ibTM1Ljc2LDUuMTZjMS4xNS42OCwyLjI1LDEuNDgsMy40NiwyLjAyLDEuMjguNTcsMi42LjU2LDMuNzgtLjQzLjU0LS40NSwxLjItLjc2LDEuODQtMS4wNy0xLjE0LDEuNzMtMy41OSwyLjYtNS43OSwyLjI4LS45Mi0uMTMtMS45MS0uMDYtMi44My4xLTEuMjcuMjItMi4yLS4zNi0yLjE4LTEuNjMuMDItMS4wMi4xNy0yLjA1LjI3LTMuMDcuMDUsMi4wNy4zNywyLjYxLDEuNjYsMi43OS0uMDctLjM0LS4xNC0uNjYtLjIxLS45OVptLTEuMjcuODZjLS4yNCwxLjU4LjgxLDEuNzIsMy41NSwxLjEzLTEuMTYtLjM3LTIuMzEtLjc0LTMuNTUtMS4xM1oiIGNsYXNzPSJjbHMtMSIvPiYjeGE7ICAgICAgPHBhdGggZD0ibTYyLjU2LDQ4LjYyYy4xMS0uMDUuMjEtLjExLjMyLS4xNi41Ny0uNSwxLjMzLS45MSwxLjY0LTEuNTQuMy0uNjEuMTMtMS40Ni4zNS0yLjIzLjEuMjMuMTkuNDUuMjkuNjcuMTItLjAyLjIzLS4wMi4yNS0uMDUuNDctLjk0LDEuMS0xLjgzLDEuMzYtMi44My4yNC0uOTEuMDktMS45Mi4xMS0yLjg4LjAxLS40MSwwLS44Mi4wNy0xLjI0Ljc4LDEuNTguNTIsMy4yMi4wOSw0Ljc5LS42NSwyLjMzLTEuODIsNC4zNi0zLjk1LDUuNzQtMS4xNS43NC0yLjIxLDEuNjMtMy4zMiwyLjQ1aC4wMWMuOTMtLjksMS44Ni0xLjgxLDIuNzgtMi43MloiIGNsYXNzPSJjbHMtMSIvPiYjeGE7ICAgICAgPHBhdGggZD0ibTc0Ljk5LDIzLjg0Yy0uMTEuOC0uMjIsMS42LS4zMywyLjQtLjA1LDAtLjEuMDEtLjE0LjAxLS4wNy0uNjEtLjIzLTEuMjMtLjItMS44NC4wOS0yLjA3LS4zOC00LjAyLTEuMTItNS45My0uMy0uNzgtLjcxLTEuNTYtLjc3LTIuMzZzLjI2LTEuNjIuNDUtMi42NmMuNTEsMS4yOSwwLDIuOTgsMS43NSwzLjQ2LS4zNS0uMDQtLjctLjA3LTEuMTgtLjEyLjA5LjYyLjE3LDEuMTcuMjgsMS45NC4zNS0uNDkuNTktLjgyLjgzLTEuMTYtLjI1LDEuMzMtLjUzLDIuNjEuNSwzLjU5LS43Ni45NS0uMzUsMS43OS0uMDMsMi42Mi0uMDEsMC0uMDQuMDUtLjA0LjA1WiIgY2xhc3M9ImNscy0xIi8+JiN4YTsgICAgICA8cGF0aCBkPSJtMzUuMywyLjE0Yy44MS0uNzEsMS42MS0xLjQyLDIuNDItMi4xNC4wNy4wOC4xNC4xNi4yMS4yNS0uNDUuMzctLjg5Ljc1LTEuMTQuOTUuNzguNTgsMS41MSwxLjEyLDIuMjQsMS42Ny4zNy4wMi42OS0uODQuNjQtMS45Mi4wOS4yOC4xOC41Ni4yOC44OC44Mi0uMjcsMS41OS0uNTIsMi4zNi0uNzcuMDIuMDUuMDQuMS4wNi4xNS0uNzEuNDEtMS40Mi44Mi0yLjEzLDEuMjMtLjE1LjA5LS4yOC4yLS40Mi4zMS0xLjQ1LDEuMTktMS40NCwxLjQuMDMsMi41NS4yMy4xOC40NC40LjUzLjc3LTEuMTQtLjctMi4yOC0xLjQxLTMuNjMtMi4yNWgxLjNjLS4xNC0uMzgtLjE2LS43OC0uMzctLjk2LS4zNy0uMzEtLjg0LS42MS0xLjMtLjY2LS4xOC0uMDItLjUxLjYxLS42NC45OS0uMTEuMzQtLjA1Ljc1LS4wNiwxLjEyLS4xMi0uNzItLjI1LTEuNDUtLjM4LTIuMTdaIiBjbGFzcz0iY2xzLTEiLz4mI3hhOyAgICAgIDxwYXRoIGQ9Im05OS4xMSw1Mi41MmMtMS4yNi45LTIuNTYsMS43Ny0zLjc4LDIuNzMtLjcuNTYtMS4zMiwxLjI0LTEuODgsMS45NC0xLjE3LDEuNDctMS44MSwzLjA3LTEuMjMsNS4wMy4zOSwxLjMxLjEzLDEuOTQtLjc2LDIuNjguNjktMS4xMy4zMy0yLjI2LjE4LTMuNDItLjExLS44Mi0uMDgtMS43OC4yNC0yLjUzLDEuNC0zLjI0LDQuMDEtNS4yMSw3LjIzLTYuNDNaIiBjbGFzcz0iY2xzLTEiLz4mI3hhOyAgICAgIDxwYXRoIGQ9Im03Mi43Nyw3Ny4yM2MtLjctLjEyLTEuNDUtLjI0LTEuNTYtMS4xNy0uMDctLjYxLDEuMy0xLjg4LDEuODItMS41Ny41MS4zLjk2LDEuMDIsMS4wNiwxLjYyLjE1LjgtLjU5LDEuMDQtMS4zMiwxLjEyWiIgY2xhc3M9ImNscy0xIi8+JiN4YTsgICAgICA8cGF0aCBkPSJtNDkuMzUsNDguMjFjLS4yOS41My0uNTgsMS4wNS0uODIsMS40OS0uMDUtMS4wNC0uMDgtMi4wOC0uMTUtMy4xMS0uMS0xLjQ1LTEuNjUtMS4xMi0yLjM4LTEuODcsMi4xMy4wOSwzLjM0LjcyLDQuMDEsMi4xNi4wOC0uNTUuMTQtMS4wMy4yNC0xLjczLjE3LDEuMjguMzEsMi4zMi40NSwzLjQ1LS4zMS0uMDktLjg0LS4yMy0xLjM4LS4zOC4yNy0uODguMzctMS43MS0uNDktMi4yNy0uMTQuMDUtLjI4LjEtLjQyLjE0LjMyLjcxLjYzLDEuNDEuOTQsMi4xMloiIGNsYXNzPSJjbHMtMSIvPiYjeGE7ICAgICAgPHBhdGggZD0ibTYyLC4zOWMuMzguNTQuNjgsMS40MSwxLjE3LDEuNTQuNTIuMTMsMS4yMS0uNDYsMS44NC0uNywxLjM5LS41NCwyLjY3LS4wNywzLjUzLDEuNjkuNjksMS40Mi45NywzLjA0LDEuNDQsNC41OC0uMTIuMDQtLjI0LjA3LS4zNi4xMS0uMzktMS4zMy0uNzYtMi42Ny0xLjE2LTMuOTktLjM3LTEuMjMtMS40Ni0yLjE3LTIuNTctMi4xNi0uMzQsMC0uNjkuMjEtMS4wMy4zMy0uNjMuMjEtMS40My43NS0xLjg0LjU0LS41Ny0uMy0uODUtMS4xNy0xLjI2LTEuNzkuMDgtLjA2LjE2LS4xLjI0LS4xNVoiIGNsYXNzPSJjbHMtMSIvPiYjeGE7ICAgICAgPHBhdGggZD0ibTEwMC4xNSwxMDcuMzFjLTMuODktLjg0LTcuMDgtMy4yMy0xMC42NC00Ljc4LDMuODIuOTgsNi45OSwzLjQzLDEwLjY0LDQuNzhaIiBjbGFzcz0iY2xzLTEiLz4mI3hhOyAgICAgIDxwYXRoIGQ9Im00NC41Myw3Ljg3YzEuNTItLjg1LDIuODctMS45OSw0LjY5LTIuMjcsMS4yLS4xOCwyLjQ3LjY3LDIuNjYsMS44Ni4wOC40OC4xNS45Ni4yMiwxLjQ0LjA2LjQ0LjExLjg3LjE3LDEuMzEtLjA5LjAzLS4xOC4wNi0uMjYuMDktLjE0LS41Ni0uMzUtMS4xMi0uNC0xLjY5LS4xLTEuMTQtLjM3LTIuMDktMS42Mi0yLjUtLjk0LS4zLTEuNjUuMTctMi4zOS41NS0uOTcuNDktMS45MywxLjAyLTIuOSwxLjUzLS4wNi0uMTItLjEyLS4yMi0uMTctLjMyWiIgY2xhc3M9ImNscy0xIi8+JiN4YTsgICAgICA8cGF0aCBkPSJtMzAuNzcsMTE1LjhjNC4yMS0uMjYsNy44NywxLjk3LDExLjg4LDIuMzctMi4wOS4xOC00LjAxLS41NC01Ljk4LTEuMDMtMS45My0uNDgtMy44OS0uODgtNS45LTEuMzRaIiBjbGFzcz0iY2xzLTEiLz4mI3hhOyAgICAgIDxwYXRoIGQ9Im0yMS4zNyw2Mi44NGMuNTUtMS4yNSwxLjExLTIuNTEsMS42Ni0zLjc1LDEuNDkuNzgsMi45NSwzLjU2LDIuNTYsNS4zMi0uMjktMS43Ni0xLjA5LTMuMjItMi4zNy00LjUyLS4zNy44MS0uNjcsMS41OC0xLjA2LDIuMy0uMTUuMjctLjUxLjQzLS43OC42NSwwLS4wMi0uMDEsMC0uMDEsMFoiIGNsYXNzPSJjbHMtMSIvPiYjeGE7ICAgICAgPHBhdGggZD0ibTQ2LjI0LDgyLjkxYy4zMSwzLjMyLjYxLDYuNjQuOTIsOS45Ni0uMTUsMC0uMjkuMDMtLjQ0LjA0LS4zMS0zLjM0LS42Mi02LjY3LS45My0xMC4wMS4xNSwwLC4zLDAsLjQ1LDBaIiBjbGFzcz0iY2xzLTEiLz4mI3hhOyAgICAgIDxwYXRoIGQ9Im04NS4wMiw5MC42NGMwLDEuNDcuMDIsMi45My0uMDIsNC40LDAsLjE2LS4zLjQzLS40Ny40NC0uMTYsMC0uNDItLjI1LS40OC0uNDMtLjIxLS43NS0uMzYtMS41Mi0uNTMtMi4yOS4wOS0uMDQuMTgtLjA3LjI4LS4xMS4yMy41NS40NiwxLjA5LjcsMS42NGguMTR2LTMuNjRjLjEyLDAsLjI1LS4wMS4zOC0uMDFaIiBjbGFzcz0iY2xzLTEiLz4mI3hhOyAgICAgIDxwYXRoIGQ9Im01Mi40Nyw0LjE5YzEuMzguMzUsMi40LDEuNjksMi4zNSwzLjE0LS4wMi42OS0uMjksMS40Mi0uMTQsMi4wNi4yMywxLjAzLjcxLDIuMDEsMS4xNywzLjI2LS41Mi0uNzMtLjk5LTEuMjgtMS4zMi0xLjkxLS4yLS4zOC0uMjctLjg5LS4yMS0xLjMyLjI3LTIuMDctLjAyLTMuOTItMS44NC01LjI1di4wMloiIGNsYXNzPSJjbHMtMSIvPiYjeGE7ICAgICAgPHBhdGggZD0ibTUyLjQ4LDQuMThjLTEuNzQtLjUxLTMuMzYtLjA5LTQuOTguNTgtMS4wOS40NS0yLjIyLjQ1LTMuMTUtLjU2LDEuNTYuODYsMi45My4yNSw0LjM4LS4zNiwxLjI1LS41MywyLjU3LS41LDMuNzUuMzYtLjAxLS4wMSwwLS4wMiwwLS4wMloiIGNsYXNzPSJjbHMtMSIvPiYjeGE7ICAgICAgPHBhdGggZD0ibTg0LjI3LDY0Ljk2Yy0xLjItMi41NS0uNzgtNS4wOS4xNC03LjYxLS4zOSwyLjUyLS44NSw1LjA0LS4xNCw3LjYxWiIgY2xhc3M9ImNscy0xIi8+JiN4YTsgICAgICA8cGF0aCBkPSJtNjguMTgsMjEuODdjLS40Ni40OC0xLjAxLjktMS4zNCwxLjQ0LS4zMS41Mi0uMjUsMS4xMi4zNiwxLjU1LjEzLjA5LjA1LjQ3LjA2LjcyLS4yMy0uMDItLjUuMDItLjY3LS4wOS0uNDgtLjMxLS41Ni0xLjg1LS4xNy0yLjY2LjQtLjc5LDEuMDMtMS4xMSwxLjc2LS45NloiIGNsYXNzPSJjbHMtMSIvPiYjeGE7ICAgICAgPHBhdGggZD0ibTI2LjczLDYyLjQzYy0uMTgtLjUzLS4zNy0xLjA2LS41NS0xLjU4LjEyLS4wNC4yMy0uMDguMzUtLjEyLjMyLjg4LjY1LDEuNzUsMS4wNCwyLjgtMS4yNy0uMzUtMi4xNy0xLjY5LTIuMjktMy4yNS40My43NC44NSwxLjQ5LDEuMjgsMi4yMy4wNC0uMDMuMTEtLjA2LjE3LS4wOFoiIGNsYXNzPSJjbHMtMSIvPiYjeGE7ICAgICAgPHBhdGggZD0ibTQ5LjExLDIuNTVjLTEuODItMS4yNC0zLjk0LTEuMy02LjA0LTEuNDMsMS44LS43Miw1LjAzLjA3LDYuMDQsMS40M1oiIGNsYXNzPSJjbHMtMSIvPiYjeGE7ICAgICAgPHBhdGggZD0ibTE5LjA5LDQzLjIyYy0uMjYtLjMzLS41Mi0uNjYtLjc5LS45OS4wNi0uMDkuMTEtLjE3LjE3LS4yNi44NiwxLjA2LDEuOTYsMS4zOSwzLjI1LDEuMzUtLjE1LjEtLjMuMTktLjUuMzIuMzQuMjIuNjYuNDIuOTcuNjItLjA0LjA4LS4wOC4xNy0uMTIuMjUtLjU1LS40Ni0xLjU3LjQtMS44OC0uODktLjA1LS4yMS0uNzMtLjI4LTEuMTItLjQxLDAsMCwuMDIuMDEuMDIuMDFaIiBjbGFzcz0iY2xzLTEiLz4mI3hhOyAgICAgIDxwYXRoIGQ9Im0zMS4wNyw2MS4wNnY0LjE3aC0uMjh2LTQuMTVjLjA5LDAsLjE5LDAsLjI4LS4wMloiIGNsYXNzPSJjbHMtMSIvPiYjeGE7ICAgICAgPHBhdGggZD0ibTQ1LjYsOTguOTNjLjEzLjEzLjI2LjI2LjM5LjM5LjUxLjQ4LDEuMDEuOTYsMS41MiwxLjQ0LS4wNy4wOC0uMTUuMTctLjIyLjI1LTEuMzEtMS4wMS0yLjYyLTIuMDMtMy45My0zLjA0LjA2LS4wOS4xMi0uMTguMTktLjI4LjY4LjQyLDEuMzcuODMsMi4wNSwxLjI0WiIgY2xhc3M9ImNscy0xIi8+JiN4YTsgICAgICA8cGF0aCBkPSJtMzQuNzUsMTEyLjI2aC01LjY3YzAtLjEyLDAtLjI1LjAxLS4zNywxLjg5LS4xNiwzLjc4LS4zNCw1LjY2LjM4LS4wMSwwLDAtLjAxLDAtLjAxWiIgY2xhc3M9ImNscy0xIi8+JiN4YTsgICAgICA8cGF0aCBkPSJtMTYuODQsNDMuMDFjLTIuMTEsMS4zMy0yLjU0LDIuNTUtMS43MSw0LjM2LS43My0uMjYtLjg4LS41NS0uODQtMS42NC4wNC0xLjI3Ljk4LTIuMzQsMi41NS0yLjcyWiIgY2xhc3M9ImNscy0xIi8+JiN4YTsgICAgICA8cGF0aCBkPSJtNzguNTQsMjEuMDZjLS4wOS0xLjM2LS4xNy0yLjczLS4yNi00LjA5LjE1LS4wMS4yOS0uMDIuNDQtLjAzLjEsMS4zNi4yLDIuNzIuMyw0LjA4LS4xNi4wMi0uMzIuMDMtLjQ4LjA0WiIgY2xhc3M9ImNscy0xIi8+JiN4YTsgICAgICA8cGF0aCBkPSJtMjguNSwxMjEuNTdjMS44NC4zMSwzLjM2Ljk5LDQuMjIsMi41OS0xLjM1LS44My0yLjc0LTEuNjgtNC4yMi0yLjU5WiIgY2xhc3M9ImNscy0xIi8+JiN4YTsgICAgICA8cGF0aCBkPSJtNDMuNDgsMTAwLjU2Yy4zNy43Ny43NCwxLjU0LDEuMSwyLjMxLjI2LjU3LjQ5LDEuMTUuNzQsMS43Mi0uMS4wNS0uMi4wOS0uMy4xNC0uNi0xLjEzLTEuMjMtMi4yNC0xLjc4LTMuMzktLjExLS4yMy4wNy0uNi4xMS0uOTEuMDUuMDMuMDkuMDguMTMuMTNaIiBjbGFzcz0iY2xzLTEiLz4mI3hhOyAgICAgIDxwYXRoIGQ9Im03MS4wNCwyMy44MWMtLjEtLjE0LS4yMy0uMjctLjI4LS40M3EtLjU5LTEuNjctMi4xNy0yLjJjLjUzLS4zNCwxLjA4LS4zLDEuNjkuMTQuODguNjQsMS4xOSwxLjQ2Ljc1LDIuNWguMDFaIiBjbGFzcz0iY2xzLTEiLz4mI3hhOyAgICAgIDxwYXRoIGQ9Im00My40OCwxMDAuNTZjLS4wNC0uMDUtLjA5LS4xLS4xNC0uMTQuMTUtLjA2LjMzLS4xOS40NC0uMTUsMS4xMi4zOCwyLjI0Ljc5LDMuNTYsMS4yNy0xLjU3LjM1LTIuNzEtLjMzLTMuODYtLjk4WiIgY2xhc3M9ImNscy0xIi8+JiN4YTsgICAgICA8cGF0aCBkPSJtNTIuOTMsMTAuMDJjLS4wMS0uMTktLjAzLS4zOS0uMDMtLjU4LDAtMS4xMiwwLTIuMjQuMTMtMy4zNi43MywxLjMxLjQ3LDIuNjMuMTksMy45NS0uMDksMC0uMTksMC0uMjksMFoiIGNsYXNzPSJjbHMtMSIvPiYjeGE7ICAgICAgPHBhdGggZD0ibTQ1LjM3LDIyLjc2YzEuMDQuMTksMi4wOS4zOSwzLjEzLjU4LS4wMS4xLS4wMi4yMS0uMDMuMzEtMS4wNi0uMS0yLjExLS4yLTMuMTctLjMuMDItLjIuMDUtLjM5LjA3LS41OVoiIGNsYXNzPSJjbHMtMSIvPiYjeGE7ICAgICAgPHBhdGggZD0ibTc5LjA2LDEzLjUyYy0yLjA3LS43Mi0yLjY5LTEuODctMS44NC0zLjQzLS40LDEuNzEuNjIsMi42MSwxLjg0LDMuNDNaIiBjbGFzcz0iY2xzLTEiLz4mI3hhOyAgICAgIDxwYXRoIGQ9Im0yMC4wNyw5My42MXYtNi4yNHMuMDksMCwuMTQsMHY2LjIyYy0uMDUsMC0uMDksMC0uMTQuMDFaIiBjbGFzcz0iY2xzLTEiLz4mI3hhOyAgICAgIDxwYXRoIGQ9Im0xOC4wNCw0NS43MmMuMzktLjM0LjY5LS42LDEuMjQtMS4wOS0uMTIuODktLjIsMS41My0uMjksMi4xNi0uMTIuMDItLjIzLjAzLS4zNS4wNS0uMjEtLjM5LS40Mi0uNzgtLjYtMS4xMloiIGNsYXNzPSJjbHMtMSIvPiYjeGE7ICAgICAgPHBhdGggZD0ibTQwLjgxLDM2LjEyYzEuNjYuNjQsMi4xMiwyLjA0LDEuMDgsMy4zNy41MS0xLjQ0LjA1LTIuNTItMS4wOC0zLjM3WiIgY2xhc3M9ImNscy0xIi8+JiN4YTsgICAgICA8cGF0aCBkPSJtNDAuNTcsNDEuNDRjLjctLjM4LDEuMzMtMS4wMywyLjMxLS4xNC0uNzQuMTctMS40OC4zNC0yLjIyLjUxLS4wMy0uMTItLjA2LS4yNS0uMDktLjM3WiIgY2xhc3M9ImNscy0xIi8+JiN4YTsgICAgICA8cGF0aCBkPSJtMTIuNDEsNTMuNjVjLS42Mi0xLjcxLS4xNi0yLjgxLDEuODgtNC4xNy0xLjE4LDEuMTYtMi4wNiwyLjQ1LTEuODksNC4xOCwwLS4wMS4wMS0uMDEuMDEtLjAxWiIgY2xhc3M9ImNscy0xIi8+JiN4YTsgICAgICA8cGF0aCBkPSJtMjYuODUsNDMuMThjLS4yNi0uNTItLjUyLTEuMDQtLjc4LTEuNTYuNjItLjI3LDEuMjQtLjU0LDEuODYtLjgxLjA1LjEzLjA5LjI2LjE0LjM5LS41MS4xNi0xLjAzLjMyLTEuNjMuNTEuMjQuNDEuNDguODQuNzIsMS4yNy0uMS4wNy0uMi4xMy0uMzEuMloiIGNsYXNzPSJjbHMtMSIvPiYjeGE7ICAgICAgPHBhdGggZD0ibTQyLjc1LDQzLjg5YzEuMDUtLjE0LDEuODYuNCwyLjcuODktLjAzLjEtLjA2LjE5LS4xLjI5LS44OS0uMy0xLjc4LS42LTIuNjgtLjkuMDMtLjEuMDUtLjE5LjA4LS4yOFoiIGNsYXNzPSJjbHMtMSIvPiYjeGE7ICAgICAgPHBhdGggZD0ibTY1LjEyLDIzLjk1Yy0uMDktLjEyLS40LS40MS0uMzYtLjQ3LjUtLjczLDEuMDUtMS40MywxLjU4LTIuMTQuMDcuMDUuMTUuMTEuMjIuMTYtLjQ1Ljc1LS44OSwxLjUxLTEuNDQsMi40NVoiIGNsYXNzPSJjbHMtMSIvPiYjeGE7ICAgICAgPHBhdGggZD0ibTYxLjY1LDMxLjYyYy0uMSwxLjIzLS4yMiwyLjY3LS4zMSwzLjgyLS41OS0uNzYtLjUxLTIuNS4zMS0zLjgyWiIgY2xhc3M9ImNscy0xIi8+JiN4YTsgICAgICA8cGF0aCBkPSJtNDMuNDQsMy45Yy0uNjkuNzQtMS4zOSwxLjQ4LTIuMDgsMi4yMi0uMDktLjA4LS4xOC0uMTYtLjI2LS4yMy42OC0uNzQsMS4zNy0xLjQ3LDIuMDUtMi4yMS4xLjA3LjIuMTUuMjkuMjJaIiBjbGFzcz0iY2xzLTEiLz4mI3hhOyAgICAgIDxwYXRoIGQ9Im00Ny43MiwyOC4yNGMtMS4xNCwxLjE0LTIuMTgsMS41OS0zLjM1LDEuNTYuOTYtLjQ5LDIuMTEtMS4wNywzLjI1LTEuNjYuMDMuMDMuMDYuMDYuMS4xWiIgY2xhc3M9ImNscy0xIi8+JiN4YTsgICAgICA8cGF0aCBkPSJtNzcuMTksOC45NGMtLjM4LS41Ni0uOC0xLjItMS4xOS0xLjc3Ljk4LS4yMywxLjQ5LjQyLDEuMTksMS43N1oiIGNsYXNzPSJjbHMtMSIvPiYjeGE7ICAgICAgPHBhdGggZD0ibTc1LjQ4LDEuMjhjLjU4LjgzLDEuMTYsMS42NywxLjc0LDIuNS0uMDkuMDYtLjE3LjEyLS4yNi4xOC0uNTgtLjg0LTEuMTYtMS42OC0xLjc0LTIuNTMuMDgtLjA1LjE3LS4xLjI2LS4xNVoiIGNsYXNzPSJjbHMtMSIvPiYjeGE7ICAgICAgPHBhdGggZD0ibTI1LjUzLDQ3LjUzYy0uMjMtLjc3LS40Ny0xLjU0LS43LTIuMy4xMS0uMDQuMjEtLjA3LjMyLS4xMS4yNi43Ni41MSwxLjUyLjc3LDIuMjgtLjEzLjA0LS4yNi4wOS0uMzkuMTNaIiBjbGFzcz0iY2xzLTEiLz4mI3hhOyAgICAgIDxwYXRoIGQ9Im0xNy44Miw0Mi4zOWMuNDIuMjguODQuNTUsMS4yNy44M2gtLjAxYy4yMy4yNy40Ni41NS42OC44My0uMDYuMDYtLjEzLjEyLS4xOS4xOC0uNjctLjUxLTEuNjUtLjctMS43NC0xLjg1aDBaIiBjbGFzcz0iY2xzLTEiLz4mI3hhOyAgICAgIDxwYXRoIGQ9Im03Ny4yMyw1OC41NWMuMTMtLjgyLjI2LTEuNjUuNC0yLjQ3LjEuMDIuMjEuMDMuMzEuMDUtLjE0Ljg0LS4yNywxLjY3LS40MSwyLjUxLS4xMS0uMDMtLjIxLS4wNi0uMy0uMDlaIiBjbGFzcz0iY2xzLTEiLz4mI3hhOyAgICAgIDxwYXRoIGQ9Im0xOC45Miw1MC4yM2MtLjIuNTYtLjQxLDEuMTMtLjY0LDEuNzctLjM4LS4zMi0uNjEtLjUxLS43LS41OS4zOS0uNDIuNzUtLjgyLDEuMTEtMS4yMS4wOC4wMS4xNS4wMi4yMy4wM1oiIGNsYXNzPSJjbHMtMSIvPiYjeGE7ICAgICAgPHBhdGggZD0ibTE3LjgzLDQyLjM4Yy0uNTktMS41OS0uMS0yLjQ4LDEuNjktMi43NC0xLjQ4LjQxLTEuOCwxLjQ2LTEuNywyLjc1LDAsMCwuMDEtLjAxLjAxLS4wMVoiIGNsYXNzPSJjbHMtMSIvPiYjeGE7ICAgIDwvZz4mI3hhOyAgPC9nPiYjeGE7PC9zdmc+;" vertex="1" parent="1">
          <mxGeometry x="476" y="210" width="118" height="150" as="geometry" />
        </mxCell>
        <mxCell id="5a-CCkB_ibbZyQVuqNtb-6" value="" style="shape=flexArrow;endArrow=classic;html=1;rounded=0;exitX=1;exitY=1;exitDx=0;exitDy=0;" edge="1" parent="1">
          <mxGeometry width="50" height="50" relative="1" as="geometry">
            <mxPoint x="240" y="290" as="sourcePoint" />
            <mxPoint x="286" y="290" as="targetPoint" />
          </mxGeometry>
        </mxCell>
        <mxCell id="5a-CCkB_ibbZyQVuqNtb-7" value="" style="shape=flexArrow;endArrow=classic;html=1;rounded=0;exitX=1;exitY=1;exitDx=0;exitDy=0;" edge="1" parent="1">
          <mxGeometry width="50" height="50" relative="1" as="geometry">
            <mxPoint x="420" y="290" as="sourcePoint" />
            <mxPoint x="466" y="290" as="targetPoint" />
          </mxGeometry>
        </mxCell>
        <mxCell id="5a-CCkB_ibbZyQVuqNtb-8" value="Pré-processeur" style="text;strokeColor=none;align=center;fillColor=none;html=1;verticalAlign=middle;whiteSpace=wrap;rounded=0;" vertex="1" parent="1">
          <mxGeometry x="115" y="370" width="100" height="30" as="geometry" />
        </mxCell>
        <mxCell id="5a-CCkB_ibbZyQVuqNtb-9" value="Compilation" style="text;strokeColor=none;align=center;fillColor=none;html=1;verticalAlign=middle;whiteSpace=wrap;rounded=0;" vertex="1" parent="1">
          <mxGeometry x="304" y="370" width="100" height="30" as="geometry" />
        </mxCell>
        <mxCell id="5a-CCkB_ibbZyQVuqNtb-10" value="Exécution" style="text;strokeColor=none;align=center;fillColor=none;html=1;verticalAlign=middle;whiteSpace=wrap;rounded=0;" vertex="1" parent="1">
          <mxGeometry x="494" y="370" width="100" height="30" as="geometry" />
        </mxCell>
      </root>
    </mxGraphModel>
  </diagram>
</mxfile>
